<?xml version="1.0" encoding="UTF-8"?>
<!DOCTYPE svg PUBLIC "-//W3C//DTD SVG 1.1//EN" "http://www.w3.org/Graphics/SVG/1.1/DTD/svg11.dtd">
<!-- Creator: CorelDRAW 2019 (64-Bit) -->
<svg xmlns="http://www.w3.org/2000/svg" xml:space="preserve" width="210mm" height="240mm" version="1.1" style="shape-rendering:geometricPrecision; text-rendering:geometricPrecision; image-rendering:optimizeQuality; fill-rule:evenodd; clip-rule:evenodd"
viewBox="0 0 21000 24000"
 xmlns:xlink="http://www.w3.org/1999/xlink">
 <defs>
  <style type="text/css">
   <![CDATA[
    .fil0 {fill:#0B2027}
   ]]>
  </style>
 </defs>
 <g id="Capa_x0020_1">
  <metadata id="CorelCorpID_0Corel-Layer"/>
  <path class="fil0" d="M5992.87 5.73c829.69,0 1500,670.31 1500,1500l0 1500 6000 0 0 -1500c0,-829.69 670.31,-1500 1500,-1500 829.69,0 1500,670.31 1500,1500l0 1500 2250 0c1242.19,0 2250,1007.81 2250,2250l0 2250 -21000 0 0 -2250c0,-1242.19 1007.81,-2250 2250,-2250l2250 0 0 -1500c0,-829.69 670.31,-1500 1500,-1500zm-6000 9000l21000 0 0 12750c0,1242.19 -1007.81,2250 -2250,2250l-16500 0c-1242.19,0 -2250,-1007.81 -2250,-2250l0 -12750zm3000 3750l0 1500c0,412.5 337.5,750 750,750l1500 0c412.5,0 750,-337.5 750,-750l0 -1500c0,-412.5 -337.5,-750 -750,-750l-1500 0c-412.5,0 -750,337.5 -750,750zm6000 0l0 1500c0,412.5 337.5,750 750,750l1500 0c412.5,0 750,-337.5 750,-750l0 -1500c0,-412.5 -337.5,-750 -750,-750l-1500 0c-412.5,0 -750,337.5 -750,750zm6750 -750c-412.5,0 -750,337.5 -750,750l0 1500c0,412.5 337.5,750 750,750l1500 0c412.5,0 750,-337.5 750,-750l0 -1500c0,-412.5 -337.5,-750 -750,-750l-1500 0zm-12750 6750l0 1500c0,412.5 337.5,750 750,750l1500 0c412.5,0 750,-337.5 750,-750l0 -1500c0,-412.5 -337.5,-750 -750,-750l-1500 0c-412.5,0 -750,337.5 -750,750zm6750 -750c-412.5,0 -750,337.5 -750,750l0 1500c0,412.5 337.5,750 750,750l1500 0c412.5,0 750,-337.5 750,-750l0 -1500c0,-412.5 -337.5,-750 -750,-750l-1500 0zm5250 750l0 1500c0,412.5 337.5,750 750,750l1500 0c412.5,0 750,-337.5 750,-750l0 -1500c0,-412.5 -337.5,-750 -750,-750l-1500 0c-412.5,0 -750,337.5 -750,750z"/>
 </g>
</svg>
