<?xml version="1.0" encoding="UTF-8"?>
<!DOCTYPE svg PUBLIC "-//W3C//DTD SVG 1.1//EN" "http://www.w3.org/Graphics/SVG/1.1/DTD/svg11.dtd">
<!-- Creator: CorelDRAW 2019 (64-Bit) -->
<svg xmlns="http://www.w3.org/2000/svg" xml:space="preserve" width="128mm" height="112mm" version="1.1" style="shape-rendering:geometricPrecision; text-rendering:geometricPrecision; image-rendering:optimizeQuality; fill-rule:evenodd; clip-rule:evenodd"
viewBox="0 0 12800 11200"
 xmlns:xlink="http://www.w3.org/1999/xlink">
 <defs>
  <style type="text/css">
   <![CDATA[
    .fil0 {fill:#20FC8F}
   ]]>
  </style>
 </defs>
 <g id="Capa_x0020_1">
  <metadata id="CorelCorpID_0Corel-Layer"/>
  <path class="fil0" d="M3768.46 899.62l-255.94 767.81 -1838.32 0c-868.71,0 -1575,706.29 -1575,1575l0 6300c0,868.71 706.29,1575 1575,1575l9450 0c868.71,0 1575,-706.29 1575,-1575l0 -6300c0,-868.71 -706.29,-1575 -1575,-1575l-1838.32 0 -255.94 -767.81c-159.96,-482.35 -610.31,-807.19 -1119.72,-807.19l-3022.04 0c-509.41,0 -959.77,324.84 -1119.73,807.19l0.01 0zm2630.74 7855.31c-1304.3,0 -2362.5,-1058.2 -2362.5,-2362.5 0,-1304.3 1058.2,-2362.5 2362.5,-2362.5 1304.3,0 2362.5,1058.2 2362.5,2362.5 0,1304.3 -1058.2,2362.5 -2362.5,2362.5z"/>
 </g>
</svg>
