<?xml version="1.0" encoding="UTF-8"?>
<!DOCTYPE svg PUBLIC "-//W3C//DTD SVG 1.1//EN" "http://www.w3.org/Graphics/SVG/1.1/DTD/svg11.dtd">
<!-- Creator: CorelDRAW 2019 (64-Bit) -->
<svg xmlns="http://www.w3.org/2000/svg" xml:space="preserve" width="210mm" height="202mm" version="1.1" style="shape-rendering:geometricPrecision; text-rendering:geometricPrecision; image-rendering:optimizeQuality; fill-rule:evenodd; clip-rule:evenodd"
viewBox="0 0 21000 20200"
 xmlns:xlink="http://www.w3.org/1999/xlink">
 <defs>
  <style type="text/css">
   <![CDATA[
    .fil0 {fill:#0B2027}
   ]]>
  </style>
 </defs>
 <g id="Capa_x0020_1">
  <metadata id="CorelCorpID_0Corel-Layer"/>
  <g id="_2186072847120">
   <path class="fil0" d="M3604.52 3842.8l0 -2830.95 1635.07 0c0,244.78 34.06,1681.45 -28.76,1799.62 -103.78,195.21 -543.04,404.12 -732.77,507.27l-873.54 524.06zm-1910.87 3695.97c-412.09,0 -709.19,-287.39 -709.19,-747.06 0,-453.36 963.55,-999.92 1385.8,-1212.07 327.86,-164.73 1406.7,-803.82 1809.46,-1044.85l445.26 -263.39c103.72,-62.06 197.55,-113.62 298.28,-174.15 1356.12,-814.92 2831.84,-1657 4208.54,-2464.6 173.84,-101.97 1167.94,-699.44 1210,-699.44 439.14,0 2150.27,1097.7 2557.03,1340.75l3546.27 2063.91c57.8,34.92 104.42,64.13 161.18,94.72 54.17,29.19 91.06,52.2 149,87.21l2635.51 1518.01c359.59,182.13 623.53,378.99 623.53,852.2 0,394.28 -285.77,648.76 -630.39,648.76 -386.48,0 -877.83,-391.97 -1175.75,-556.67 -191.21,-105.71 -360.3,-205.07 -549.43,-316.71l-1656.94 -961.15c-371.8,-222.93 -740.82,-422.56 -1108.27,-643.68l-1097.55 -634.72c-764.92,-415.85 -2950.39,-1880.56 -3434.5,-1880.56 -263.32,0 -877.39,428.4 -1119.16,573.83l-3213.66 1924.01c-498.45,297.6 -4045.24,2495.65 -4335.02,2495.65zm4452.12 -5249.06c0,-124.71 19.7,-164.14 19.7,-294.89l0 -1120.59c0,-952.28 -632.05,-806.01 -1438.07,-806.03 -190.43,-0.01 -380.86,0.05 -571.29,0 -211.39,-0.06 -345.44,19.92 -551.58,19.67 -166.03,-0.21 -418.93,-18.31 -548.17,23.08 -160.26,51.31 -226.3,143.26 -358.03,212.82l0 4030.18 -1567.44 952.16c-262.94,157.7 -526.43,316.97 -722.53,537.15 -328.41,368.7 -330.08,777.74 -330.08,1263 0,404.25 280.26,801.47 509.08,986.07 395.81,319.33 1181.55,509.53 1678.17,253.06 63.29,-32.68 134.71,-76.27 199.88,-115.07 81.04,-48.25 151.72,-62.88 232.92,-101.77l0 9593.79c119.86,63.29 178.17,178.79 308.28,223.16 71.8,24.48 178.8,12.76 263.46,12.31 120.81,-0.65 152.21,17.68 255,20.75l1438.72 19.02c357.35,0 1181.98,-49.04 1181.98,-353.87 0,-251.7 -49.3,-453.24 -331.9,-553.45 -418.63,-148.45 -985.95,-76.96 -1441.74,-76.33 -133.08,0.19 -218.95,20.71 -373.6,20.36 -131.32,-0.3 -262.68,-0.02 -394.01,-0.02l0 -9298.9c0,-206.35 512.4,-534.4 709.97,-647.98l5144.61 -3044.22c93.71,-56.22 793.2,-474.49 899.75,-469.35 116.46,5.61 1091.88,524.6 1346.04,678.02l1736.51 999.7c152.51,82.86 286.15,164.37 435.16,253.8 579.03,347.53 1139.67,670.47 1716.43,1019.73l875.4 482.89c170.7,92.14 748.58,419.9 748.58,629.11l0 9397.2 -1950.26 0c-408.68,0 -561.46,620.21 -197.05,845.4 171.1,105.73 403.36,74.51 670.62,77.8 122.35,1.51 206.01,20.81 353.79,20.47 572.42,-1.3 1157.05,26.42 1708.7,-64.18 196.17,-32.22 224.9,-60.18 301.13,-505.53 107.66,-629.08 95.63,-1337.7 98.11,-2005.76 0.67,-179.38 -19.99,-285.68 -19.76,-471.75 0.42,-346.09 -21.39,-621.72 -19.43,-963.58 0.94,-165.01 -20.01,-287.15 -19.97,-471.57l0 -5445.65 410.98 179.64c492.61,178.07 978.47,274.01 1472.27,68.02 819.3,-341.78 1486.86,-1935.1 134.4,-2850.97l-4459.38 -2587.79c-115.81,-66.54 -225.02,-135.04 -348.86,-202.32l-685.14 -397.53c-457.74,-276.62 -915.55,-523.06 -1369.25,-796.08l-512.33 -294.75c-623.74,-356.12 -1796.79,-1139.26 -2404.34,-1139.26 -566.81,0 -1235.24,432.14 -1698,723.58l-2267.85 1393.43c-96.58,57.96 -173.75,93.21 -269.58,143.82z"/>
   <path class="fil0" d="M6224.57 13495.57c0,787.78 241.71,1916.44 709.23,2575.34 229.44,323.35 228.37,245.62 45.05,674.15 -55.96,130.8 -114.13,220.57 -171.61,359.55l-318.26 743.99c-194.56,502.22 -555.93,1588.89 -330.24,2121.63 117.48,277.29 400.08,234.31 601.22,75.42 198.6,-156.88 223.88,-423.1 270.86,-653.69 27.32,-134.13 33.9,-270 68.19,-403.77 67.61,-263.75 134.54,-462.53 216.47,-707.97 148.27,-444.12 336.05,-874.09 575.24,-1273.92 173.17,-289.47 324.33,-584.43 512.6,-864.6 251.01,-373.54 494.29,-743.96 764.93,-1104.28l509.84 -651.11c533.16,-629.57 1102.54,-1218.34 1755.59,-1727.71l252.9 -219.43c118.99,-119.35 368.41,-342.63 439.79,-486.02 81.86,-164.42 -30.93,-620.11 -267.7,-620.11l-98.5 0c-335.01,0 -1018.7,634.94 -1190.29,856.71 -158.92,205.41 -840.58,837.31 -1013.14,1053.17 -147.68,184.75 -353.61,325.55 -503.73,519.59 -68.61,88.67 -171.61,178.02 -252.71,258.95 -241.04,240.54 -1055.97,1247.82 -1078.56,1518.69 -210.1,-17.45 -400.13,-597.41 -445,-755.13 -311.81,-1096.19 -110.45,-2526.58 476.49,-3400.9 1288.5,-1919.4 3537.1,-1246.9 5458.24,-2279.05 167.26,-89.86 274.25,-181.79 479.26,-229.46 89.93,1078.4 334.9,1372.63 334.9,2830.96 0,1179.69 -173.5,2147.2 -656.62,3119.33 -206.67,415.87 -512.42,733.58 -855.86,1033.19 -117.1,102.15 -231.99,179.23 -362.88,266.96 -503.64,337.6 -1040.82,480.82 -1645.03,560.18 -80.06,10.51 -199.77,6.19 -295.96,19.2 -301.87,40.83 -513.87,5.91 -662.42,282.58 -130.37,242.8 -147.72,207.07 0.32,465.72 15.72,27.47 53.58,81.54 73.87,103.22 80.62,86.14 181.83,60.41 286.18,68.27l319.24 1.7c63.89,-7.19 130.17,-2.85 194.56,-2.44 877.57,5.57 2164.28,-519.1 2801.54,-1155.72l276.98 -274.05c30.97,-36.91 55.71,-54.55 87.99,-89.12 298.9,-320.09 519.18,-710.83 707.08,-1103.03 160.78,-335.6 285.11,-692.06 381.24,-1054.68 262.74,-991.09 323.77,-2383.35 213.42,-3437.41 -6.95,-66.32 -16.17,-185.44 -27.71,-267.23 -70.62,-500.51 -300.34,-2724.13 -757.14,-2724.13 -239.67,0 -843.02,475.59 -1102.02,630.27 -875.98,523.16 -1646.77,613.38 -2655.54,809.93 -597.73,116.47 -1183.81,197.33 -1705.96,460.07 -328.7,165.4 -652.14,341.81 -914.63,601.01 -259.87,256.6 -480.84,531.82 -678.18,836.98 -392.51,606.97 -823.53,1649.06 -823.53,2638.2z"/>
  </g>
 </g>
</svg>
