<?xml version="1.0" encoding="UTF-8"?>
<!DOCTYPE svg PUBLIC "-//W3C//DTD SVG 1.1//EN" "http://www.w3.org/Graphics/SVG/1.1/DTD/svg11.dtd">
<!-- Creator: CorelDRAW 2019 (64-Bit) -->
<svg xmlns="http://www.w3.org/2000/svg" xml:space="preserve" width="210mm" height="210mm" version="1.1" style="shape-rendering:geometricPrecision; text-rendering:geometricPrecision; image-rendering:optimizeQuality; fill-rule:evenodd; clip-rule:evenodd"
viewBox="0 0 21000 21000"
 xmlns:xlink="http://www.w3.org/1999/xlink">
 <defs>
  <style type="text/css">
   <![CDATA[
    .fil0 {fill:#CDD1C4}
   ]]>
  </style>
 </defs>
 <g id="Capa_x0020_1">
  <metadata id="CorelCorpID_0Corel-Layer"/>
  <g id="Capa_x0020_1_0">
   <g id="_2186072847120">
    <path class="fil0" d="M3605.24 4243.74l0 -2829.16 1633.3 0c0,243.41 35.28,1682.68 -28.22,1799.09 -102.3,194.02 -543.26,405.68 -733.75,507.98l-871.33 522.09zm-1911.98 3693.43c-412.73,0 -709.05,-285.74 -709.05,-747.86 0,-455.06 963.04,-998.32 1386.36,-1213.51 328.07,-165.8 1407.53,-804.3 1809.68,-1044.18l444.48 -264.57c102.3,-63.5 197.55,-112.88 299.85,-172.85 1354.61,-814.88 2832.69,-1657.99 4208.47,-2465.82 172.85,-102.3 1167.65,-698.47 1209.98,-698.47 437.43,0 2151.86,1097.09 2557.53,1340.5l3545.27 2063.67c56.44,35.28 105.83,63.5 162.27,95.25 52.91,28.22 91.72,52.91 148.16,88.19l2635.14 1516.88c359.82,183.44 624.39,377.46 624.39,853.69 0,395.09 -285.74,649.08 -631.45,649.08 -388.04,0 -878.38,-391.57 -1174.7,-557.37 -190.49,-105.83 -359.82,-204.6 -550.31,-317.49l-1657.99 -959.52c-370.4,-222.24 -740.8,-423.32 -1107.68,-642.03l-1097.09 -634.97c-765.5,-416.26 -2949.1,-1880.23 -3435.91,-1880.23 -264.57,0 -878.38,426.84 -1118.26,575l-3213.67 1922.56c-497.4,296.34 -4046.2,2494.05 -4335.47,2494.05l0 0zm4451.88 -5245.59c0,-123.47 21.17,-165.8 21.17,-296.32l0 -1121.79c0,-952.46 -631.45,-804.3 -1439.27,-804.3 -190.49,0 -380.98,0 -571.48,0 -211.66,0 -345.71,21.17 -550.31,21.17 -165.8,0 -419.79,-17.64 -546.78,24.69 -158.74,52.91 -225.77,144.63 -356.29,211.66l0 4028.56 -1566.27 952.46c-264.57,158.74 -525.62,317.49 -723.16,536.2 -328.07,370.4 -331.6,776.08 -331.6,1262.89 0,405.68 278.68,800.77 507.98,987.74 395.09,321.01 1181.76,507.98 1679.15,253.99 63.5,-31.75 134.05,-77.61 201.08,-116.41 81.14,-49.39 151.69,-63.5 232.82,-102.3l-0.01 9591.63c119.94,63.5 179.91,179.91 306.9,222.24 70.55,24.69 179.91,14.11 264.57,10.58 119.94,0 151.69,17.64 253.99,21.17l1439.27 17.64c356.29,0 1181.76,-49.39 1181.76,-352.76 0,-250.46 -49.39,-451.54 -331.6,-553.84 -419.79,-148.16 -984.21,-77.61 -1442.8,-77.61 -134.05,0 -218.71,21.17 -373.93,21.17 -130.52,0 -261.04,0 -395.09,0l0 -9295.32c0,-204.6 511.51,-532.67 709.05,-649.08l5143.29 -3044.35c95.25,-56.44 793.72,-476.23 899.55,-469.18 116.41,7.06 1093.57,525.62 1347.56,677.31l1735.6 998.32c151.69,81.14 285.74,165.8 433.9,253.99 578.53,349.24 1139.43,670.25 1717.96,1019.49l874.85 483.29c169.33,91.72 747.86,419.79 747.86,627.92l0 9397.61 -1950.79 -0.01c-409.21,0 -560.89,620.86 -197.55,846.63 172.85,105.83 402.15,74.08 670.25,77.61 123.47,0 204.6,21.17 352.76,21.17 571.48,0 1157.06,24.69 1707.37,-63.5 197.55,-31.75 225.77,-59.97 299.85,-504.45 109.36,-627.92 95.25,-1336.97 98.77,-2007.22 0,-179.91 -21.17,-285.74 -21.17,-472.7 0,-345.71 -21.17,-620.86 -21.17,-963.04 0,-165.8 -21.17,-285.74 -21.17,-472.7l0.02 -5443.15 409.21 179.91c493.87,176.38 977.15,275.16 1471.02,67.03 818.41,-342.18 1485.13,-1936.67 134.05,-2850.33l-4458.93 -2589.28c-116.41,-67.03 -225.77,-134.05 -349.24,-201.08l-684.36 -398.62c-458.59,-275.16 -917.18,-522.09 -1368.72,-797.25l-511.51 -296.32c-624.39,-356.29 -1795.57,-1139.43 -2405.85,-1139.43 -567.95,0 -1234.67,430.37 -1696.79,723.16l-2268.27 1393.42c-84.65,63.5 -162.26,98.78 -257.5,151.69l0 0z"/>
    <path class="fil0" d="M6222.74 13895.35c0,786.66 243.41,1915.5 709.05,2575.17 229.3,324.54 229.3,246.93 45.86,673.78 -56.44,130.52 -112.88,222.24 -172.85,359.82l-317.49 744.33c-194.02,500.92 -557.37,1587.43 -331.6,2120.11 116.41,278.68 398.62,232.82 599.7,74.08 197.55,-155.22 222.24,-423.32 271.63,-652.61 28.22,-134.05 35.28,-271.63 67.03,-402.15 67.03,-264.57 134.05,-462.12 215.19,-709.05 148.16,-444.48 335.13,-874.85 575,-1273.48 172.85,-289.27 324.54,-585.59 511.51,-864.27 250.46,-373.93 493.87,-744.33 765.5,-1104.15l511.51 -652.61c532.67,-627.92 1104.15,-1217.03 1756.76,-1728.54l253.99 -218.71c119.94,-119.94 366.87,-342.18 440.95,-486.81 81.14,-165.8 -31.75,-620.86 -268.1,-620.86l-98.78 -0.02c-335.13,0 -1019.49,634.97 -1188.81,857.21 -158.74,204.6 -839.58,836.05 -1012.43,1054.76 -148.16,183.44 -352.76,324.54 -504.45,518.56 -67.03,88.19 -172.85,176.38 -253.99,257.52 -239.88,239.88 -1054.76,1248.78 -1079.46,1516.88 -211.66,-17.64 -398.62,-596.17 -444.48,-754.91 -310.43,-1097.09 -109.36,-2525.79 476.23,-3400.64 1287.59,-1919.03 3538.22,-1245.25 5457.25,-2278.85 165.8,-88.19 275.16,-183.44 479.76,-229.3 88.19,1079.46 335.13,1372.25 335.13,2829.16 0,1178.23 -172.85,2148.33 -656.14,3118.43 -208.13,416.26 -511.51,733.75 -857.21,1033.6 -116.41,102.3 -232.82,179.91 -363.35,268.1 -504.45,338.65 -1040.65,479.76 -1643.88,560.89 -81.14,10.58 -201.08,7.06 -296.32,17.64 -303.38,42.33 -515.03,7.06 -663.2,282.21 -130.52,243.41 -148.16,208.13 0,465.65 14.11,28.22 52.91,81.14 74.08,102.3 81.14,84.66 183.44,59.97 285.74,67.03l317.49 0c63.5,-7.06 130.52,-3.53 194.02,-3.53 878.38,7.06 2162.44,-518.56 2800.94,-1157.06l278.68 -275.16c31.75,-35.28 56.44,-52.91 88.19,-88.19 299.85,-321.01 518.56,-709.05 705.53,-1104.15 162.27,-335.13 285.74,-691.42 380.98,-1054.76 261.04,-991.26 324.54,-2384.68 211.66,-3435.91 -7.06,-67.03 -17.64,-186.96 -28.22,-268.1 -70.55,-500.92 -299.85,-2723.33 -758.44,-2723.33 -239.88,0 -843.1,476.23 -1100.62,631.45 -874.85,522.09 -1647.4,613.81 -2656.31,811.36 -596.17,116.41 -1185.28,197.55 -1707.37,458.59 -328.07,165.8 -652.61,342.18 -913.66,599.7 -261.04,257.52 -479.76,532.67 -677.31,836.05 -380.99,620.85 -814.89,1665.03 -814.89,2652.77l0 0z"/>
   </g>
  </g>
 </g>
</svg>
