<?xml version="1.0" encoding="UTF-8"?>
<!DOCTYPE svg PUBLIC "-//W3C//DTD SVG 1.1//EN" "http://www.w3.org/Graphics/SVG/1.1/DTD/svg11.dtd">
<!-- Creator: CorelDRAW 2019 (64-Bit) -->
<svg xmlns="http://www.w3.org/2000/svg" xml:space="preserve" width="42mm" height="42mm" version="1.1" style="shape-rendering:geometricPrecision; text-rendering:geometricPrecision; image-rendering:optimizeQuality; fill-rule:evenodd; clip-rule:evenodd"
viewBox="0 0 4200 4200"
 xmlns:xlink="http://www.w3.org/1999/xlink">
 <defs>
  <style type="text/css">
   <![CDATA[
    .str0 {stroke:#20FC8F;stroke-width:35.28;stroke-miterlimit:22.9256}
    .fil0 {fill:#20FC8F}
   ]]>
  </style>
 </defs>
 <g id="Capa_x0020_1">
  <metadata id="CorelCorpID_0Corel-Layer"/>
  <g id="_1759115502672">
   <path class="fil0 str0" d="M1161.69 1686.72c6.11,7.6 78.29,167.98 115.92,229.3 216.37,352.67 516.26,672.47 845.22,914.85 64.73,47.69 135.54,99.57 210.54,142.92 41.51,24 71.26,40.06 115,61.3 28.75,13.97 99.67,40.31 119.17,56.44 -352.12,173.96 -758.64,332.27 -1133.11,483.35l-1017.86 401.86c-45.27,17.24 -106.94,48.47 -152.11,11.16 -42.52,-35.13 -7.54,-104.17 9.04,-147.06 199.85,-516.95 675.26,-1739.57 888.19,-2154.12zm483.54 -132.67c-6.94,59.9 -69.37,146.73 -84.5,203.32l149.04 79.98c35.12,-46.13 61.9,-150.36 92.91,-183.28 111.32,66.47 255.78,197.52 349.78,283.62 52.62,48.2 290.15,281.38 306.63,332.47 -29.61,20.04 -204.03,201.63 -224.39,239.5 10.99,18.25 108.33,95.44 130.98,108.44 64.77,-63.86 140.09,-169.12 202.95,-211.95 49.54,43 161.79,240.89 197.04,324.71 102.89,244.69 19.77,258.71 -190.76,170.67 -218.71,-91.45 -446.34,-282.56 -617.64,-435.11 -184.98,-164.74 -616.14,-652.52 -651.76,-931.36 -12.81,-100.3 36.15,-103.33 155.38,-64.82 72.29,23.36 124.46,55.74 184.34,83.81zm-187.67 -615.25c-35.36,5.49 -55.69,22.46 -102.97,9.19 -104.44,-29.32 -130.77,-136.28 -77.17,-226.01 56.21,-94.11 221.11,-123.78 344.26,-58.91 248.57,130.91 118.21,663.21 82.81,721.01 -26.96,-6.68 -127.36,-62.31 -219.54,-88.51 -84.2,-23.94 -187.15,-31.75 -257.52,10.77 -44.12,26.66 -120.92,109.45 -149.21,158.89 -144.12,251.93 -350.67,770.86 -466.61,1051.86 -176.5,427.76 -350.24,874.72 -518.92,1306.26 -71.63,183.25 30.4,336.69 198.14,355.25 91.65,10.14 175.58,-33.14 247.06,-61.69 70.6,-28.2 144.2,-56.24 216.01,-83.83 427.08,-164.11 879.02,-349.3 1302.3,-524.05 188.31,-77.75 694.38,-281.14 817.11,-400.54 49.1,-47.76 103.41,-93.51 108.69,-199.52 4.29,-86.32 -27.15,-179.7 -55.2,-246.21 -32.93,-78.07 -179.07,-340.35 -222.94,-372.08 69.55,-71.37 254.57,-174.53 380.2,-214.28 433.17,-137.05 784.53,205.48 617.64,420.44 -84.22,108.47 -288.6,102.31 -354.66,-56.92l-9.52 -20.34c-2.39,-14.9 -146.72,-46.38 -164.44,-46.77 -35.04,248.22 259.27,443.35 504.18,348.72 211.46,-81.71 331.48,-349.85 163.82,-581.44 -106.6,-147.26 -331.38,-299.66 -622.6,-268.87 -351.46,37.16 -562.76,251.15 -623.67,274.5 -31.88,-20.07 -134.97,-149.91 -169.83,-185.95 -90.3,-93.35 -260.55,-257.29 -362.56,-331.1 -64.93,-46.98 -130.6,-109.88 -200.37,-145.3 8,-49.3 30.44,-107.18 42.5,-161.42 12.39,-55.76 23.54,-111.22 30.18,-166.89 94.57,-792.12 -565.12,-797.45 -764.1,-578.65 -58.01,63.77 -112.84,177.47 -89.5,299.76 20.39,106.83 96.43,184.78 177.51,221.6 102.38,46.5 267.67,36.47 310.49,-40.36 -20.4,-40.69 -80.65,-82.33 -111.57,-118.61z"/>
   <path class="fil0 str0" d="M3846.88 1332.69c-50.91,2.87 -177.74,6.35 -209.46,27.02 -24.44,15.92 -54.08,66.93 -77.69,99.22l-17.11 22.89c-8.12,8.72 -2.09,3.66 -11.66,10.54l-22.49 -39.58c-6.62,-15.66 -11.24,-25.87 -17.97,-41.34 -46.48,-106.85 -47.18,-85.92 -214.33,-150.86 15.25,-26.77 100.64,-75.7 130.01,-105.46 40.73,-41.29 28.33,-143.31 29.73,-213.77 36.3,2.3 99.15,81.06 143.67,93.91 55.5,16.03 143.95,-36.05 199.4,-41.92 -6.27,55.77 -55.75,142.46 -33,195.59 18.16,42.41 94.77,102.94 100.9,143.76zm142.24 -425.73c32.4,-105.88 -34.51,-156.77 -131.01,-124.7 -34.2,11.36 -201.92,68.63 -223.73,69.76 -45.77,2.39 -202.66,-168.08 -267.6,-176.53 -47.78,-6.22 -81.41,19.27 -93.27,52.29 -11.86,33.02 -12.17,234.73 -12.86,284.36 -0.58,42.38 4.95,34.22 -64.06,84.11l-167.47 127.02c-20.69,22.53 -34.47,72.66 -9.04,109.4 26.92,38.88 137.33,69.72 195.79,92.13 126.24,48.41 98.77,20.05 152.17,142.18 25.32,57.91 59.16,165.39 105.59,187.98 83.54,40.65 134.96,-62.72 167.87,-109.54 104.02,-148.01 73.38,-126.46 163.36,-134.05 136.23,-11.48 342.54,9.2 304.71,-130.7 -10.22,-37.82 -181.87,-220.51 -183.8,-251.29 -0.87,-13.83 55.12,-195.53 63.35,-222.42z"/>
   <path class="fil0 str0" d="M2125 409.79c-13.32,-102.28 62.13,-186.65 149.51,-196.45 241.51,-27.12 263.02,322.14 45.17,345.52 -102.66,11.02 -183.57,-63.73 -194.68,-149.07zm517.55 26.17c36.78,-204.22 -120.52,-364.63 -287.27,-394.2 -208.5,-36.96 -373.17,119.67 -401.18,284.31 -54.01,317.45 308.9,531.07 561.09,331.38 63,-49.88 107.5,-111.27 127.36,-221.49z"/>
   <path class="fil0 str0" d="M2723.87 178.85c12.02,48.15 36.29,83.24 57.52,149.35 54.6,170.09 50.11,349.65 -6.2,510.55 -57.07,163.05 -211.34,366.13 -358.48,425.68 5.69,31.44 60.78,126.24 79.9,152.44 36.87,-7.05 123.67,-75.08 147.21,-94.43 136.18,-111.94 233.23,-248.24 297.16,-429.08 44.96,-127.17 64.01,-277.66 48.54,-430.48 -9.19,-90.88 -70.22,-311.82 -120.65,-361.5l-145 77.47z"/>
  </g>
 </g>
</svg>
