<?xml version="1.0" encoding="UTF-8"?>
<!DOCTYPE svg PUBLIC "-//W3C//DTD SVG 1.1//EN" "http://www.w3.org/Graphics/SVG/1.1/DTD/svg11.dtd">
<!-- Creator: CorelDRAW 2019 (64-Bit) -->
<svg xmlns="http://www.w3.org/2000/svg" xml:space="preserve" width="100mm" height="100mm" version="1.1" style="shape-rendering:geometricPrecision; text-rendering:geometricPrecision; image-rendering:optimizeQuality; fill-rule:evenodd; clip-rule:evenodd"
viewBox="0 0 10000 10000"
 xmlns:xlink="http://www.w3.org/1999/xlink">
 <defs>
  <style type="text/css">
   <![CDATA[
    .fil0 {fill:#20FC8F}
   ]]>
  </style>
 </defs>
 <g id="Capa_x0020_1">
  <metadata id="CorelCorpID_0Corel-Layer"/>
  <g id="_2150701943488">
   <path class="fil0" d="M5722.72 6002.52c86.52,138.21 665.23,984.32 457.95,1199.41 -332.06,344.59 -1873.98,-948.63 -2155.68,-1231.26 -332.61,-333.7 -1579.73,-1822.74 -1227.87,-2155.36 202.74,-191.65 1085.41,368.67 1204.85,450.32 336.94,230.34 671.58,535.68 931.32,796.73 264.35,265.68 571.92,592.68 789.43,940.16zm-4192.67 -352.9c2.62,107.83 487.83,566.64 578.02,650.18 581.3,538.47 1621.82,1009.89 2415.02,1254.34 586.11,180.63 1481.86,452.74 1989.82,85.99 931.58,-672.62 -999.83,-2859.02 -1680.96,-3393.56 -68.06,-53.4 -99.28,-90.37 -173.31,-144.13 -67.54,-49.05 -85.45,-57.66 -163.34,-119.3 -199.65,-158.01 -477.6,-345.6 -731.29,-468.12 -269.46,-130.12 -605.26,-286.47 -964.3,-255.25 -414.88,36.08 -483.47,272.44 -618.2,614.14 -74.33,188.52 -652.73,1723.59 -651.46,1775.71z"/>
   <path class="fil0" d="M1312.11 6273.52c-100.54,150.31 -199.45,482.17 -274.76,688.55 -136.74,374.76 -244.98,492.79 -96.82,680.65 272.12,345.05 618.99,571.9 1125.88,781.18 277.46,114.55 1224.57,406.81 1504.12,330.67 85.27,-23.23 1281.74,-443.86 1386.89,-540.12 -2580.55,-605.48 -3439.22,-1835.98 -3645.31,-1940.93z"/>
   <path class="fil0" d="M5419.98 1486.52c-453.38,9.97 -782.31,49.44 -914.13,408.1 -155.84,424.07 202.05,676 305.68,945.27 -170.69,51.8 -405.17,79.11 -542.26,149.83 -39.88,193.69 24.35,474.55 98.78,619.03 379.86,77.97 849.04,-154.99 1035.61,-358.94 374.95,-409.9 -11.22,-775.79 -156.45,-1057.09 442.96,-9.16 764.77,-48.64 903.8,-381.56 183.08,-438.4 -209.2,-744.88 -295.45,-972.51 253.11,-75.44 823.86,-2.96 442.56,-767.24 -373,-79.2 -856.22,163.26 -1034.92,357.38 -374.74,407.05 9.54,779.1 156.78,1057.73z"/>
   <path class="fil0" d="M8509.38 4575.08c280.56,142.17 645.57,533.27 1056.38,156.21 204.27,-187.48 437.11,-655.78 359.38,-1035.04 -144.92,-74.03 -424.84,-138.17 -619.04,-99.06 -70.98,138.14 -96.83,371.08 -150.25,541.43 -114.67,-44.61 -1315.62,-1050.4 -1353.09,609.15 -277.22,-147.97 -652.31,-531.29 -1057.91,-156.77 -202.67,187.13 -437.35,657.19 -357.15,1035.18 760.32,383.34 694.01,-191.43 766.97,-443.39 132.69,48.68 115.27,70.44 230.09,144.69 223.78,144.73 465.82,266.39 742.46,151.27 333.32,-138.69 371.48,-462.4 382.16,-903.67z"/>
   <path class="fil0" d="M5863.46 3834.16c80.41,86.94 336.74,283.89 467.6,170.35 138.13,-119.85 720.61,-1135.41 2132.25,-1680.88 184.33,-71.22 388.44,-131.16 604.47,-170.1 461.05,-83.1 499.66,27.66 499.66,-243.36 0,-278.85 32.99,-324.88 -172.5,-333.94 -558.64,-24.66 -1539.48,394.79 -1998.42,702.91 -430.75,289.18 -1468.24,1092.53 -1533.06,1555.02z"/>
   <path class="fil0" d="M623.09 8101.15c-57.64,122.2 -570.87,1443.6 -575.91,1574.26 -8.49,219.94 164.25,315.2 386.93,248.37 251.13,-75.38 1880.7,-678.5 2046.05,-781.66 -98.38,-59.95 -1439.99,-417.3 -1857.07,-1040.97z"/>
   <path class="fil0" d="M8579.34 1030.69c155.32,-47.23 515.64,-431.01 592.08,-566.9 -42.91,-126.91 -218.27,-302.17 -345.14,-345.31 -135.92,77.43 -333.44,297.01 -456.09,419.1 -101.46,100.99 -158.22,148.84 -47.93,286.66 59.79,74.7 165.32,169.25 257.08,206.45z"/>
   <path class="fil0" d="M8459.67 6298.46c-96.17,-93.99 -393.91,-51.13 -553.14,-51.81 -257.39,-1.09 -289.13,23.22 -285.26,285.74 3.89,264.67 72.77,250.62 321.41,248.14 154,-1.54 423.87,39.96 516.85,-51.28 77.84,-79.35 77.66,-351.39 0.14,-430.79z"/>
   <path class="fil0" d="M3216.79 992.95c0,686.25 -57.4,670.61 317.82,670.61 276.28,0 211.99,-141.68 211.99,-670.61 0,-231.79 -84.52,-211.99 -317.89,-211.99 -174.45,0 -211.92,37.47 -211.92,211.99z"/>
  </g>
 </g>
</svg>
