<?xml version="1.0" encoding="UTF-8"?>
<!DOCTYPE svg PUBLIC "-//W3C//DTD SVG 1.1//EN" "http://www.w3.org/Graphics/SVG/1.1/DTD/svg11.dtd">
<!-- Creator: CorelDRAW 2019 (64-Bit) -->
<svg xmlns="http://www.w3.org/2000/svg" xml:space="preserve" width="58mm" height="46mm" version="1.1" style="shape-rendering:geometricPrecision; text-rendering:geometricPrecision; image-rendering:optimizeQuality; fill-rule:evenodd; clip-rule:evenodd"
viewBox="0 0 5800 4600"
 xmlns:xlink="http://www.w3.org/1999/xlink">
 <defs>
  <style type="text/css">
   <![CDATA[
    .str0 {stroke:#20FC8F;stroke-width:35.28;stroke-miterlimit:22.9256}
    .fil0 {fill:#20FC8F}
   ]]>
  </style>
 </defs>
 <g id="Capa_x0020_1">
  <metadata id="CorelCorpID_0Corel-Layer"/>
  <g id="_2074662136640">
   <path class="fil0 str0" d="M1941.31 1860.41c6.59,8.19 84.34,180.95 124.87,247.01 233.08,379.9 556.14,724.41 910.51,985.5 69.73,51.38 146.01,107.27 226.8,153.97 44.71,25.85 76.77,43.14 123.88,66.03 30.97,15.05 107.37,43.42 128.38,60.8 -379.32,187.39 -817.23,357.93 -1220.64,520.68l-1096.47 432.9c-48.76,18.57 -115.2,52.22 -163.86,12.02 -45.81,-37.84 -8.12,-112.21 9.74,-158.41 215.29,-556.88 727.41,-1873.94 956.79,-2320.5zm520.89 -142.92c-7.48,64.53 -74.72,158.07 -91.03,219.02l160.55 86.16c37.84,-49.69 66.68,-161.98 100.09,-197.44 119.92,71.61 275.54,212.78 376.8,305.53 56.69,51.93 312.56,303.12 330.31,358.15 -31.9,21.59 -219.79,217.2 -241.72,258 11.84,19.66 116.69,102.81 141.1,116.81 69.77,-68.79 150.9,-182.18 218.62,-228.32 53.36,46.32 174.29,259.49 212.26,349.79 110.84,263.59 21.3,278.69 -205.5,183.86 -235.6,-98.52 -480.81,-304.39 -665.34,-468.73 -199.27,-177.46 -663.73,-702.91 -702.1,-1003.29 -13.8,-108.05 38.94,-111.31 167.38,-69.82 77.88,25.16 134.07,60.04 198.58,90.28zm-202.17 -662.77c-38.09,5.91 -59.99,24.19 -110.92,9.9 -112.51,-31.59 -140.87,-146.81 -83.14,-243.47 60.56,-101.38 238.19,-133.34 370.86,-63.46 267.77,141.03 127.34,714.43 89.2,776.7 -29.04,-7.2 -137.19,-67.13 -236.49,-95.35 -90.71,-25.78 -201.61,-34.2 -277.42,11.61 -47.52,28.71 -130.25,117.9 -160.73,171.16 -155.24,271.38 -377.75,830.4 -502.65,1133.1 -190.13,460.8 -377.29,942.28 -559,1407.15 -77.16,197.41 32.76,362.7 213.45,382.69 98.73,10.92 189.14,-35.7 266.14,-66.45 76.05,-30.38 155.34,-60.58 232.69,-90.31 460.07,-176.78 946.92,-376.28 1402.89,-564.53 202.85,-83.74 748.01,-302.84 880.23,-431.47 52.89,-51.44 111.39,-100.73 117.08,-214.93 4.62,-92.98 -29.24,-193.58 -59.47,-265.23 -35.47,-84.1 -192.89,-366.63 -240.15,-400.81 74.92,-76.89 274.23,-188.01 409.56,-230.83 466.63,-147.65 845.13,221.34 665.34,452.91 -90.72,116.84 -310.88,110.21 -382.05,-61.31l-10.26 -21.92c-2.57,-16.06 -158.04,-49.96 -177.14,-50.38 -37.74,267.39 279.31,477.6 543.13,375.66 227.79,-88.03 357.08,-376.88 176.48,-626.36 -114.85,-158.63 -356.99,-322.8 -670.7,-289.64 -378.6,40.03 -606.22,270.55 -671.84,295.71 -34.34,-21.63 -145.39,-161.49 -182.94,-200.31 -97.28,-100.56 -280.68,-277.17 -390.57,-356.68 -69.95,-50.61 -140.68,-118.37 -215.84,-156.52 8.62,-53.11 32.79,-115.46 45.78,-173.89 13.35,-60.07 25.35,-119.81 32.51,-179.78 101.88,-853.3 -608.77,-859.04 -823.12,-623.35 -62.49,68.71 -121.55,191.19 -96.41,322.92 21.96,115.09 103.88,199.05 191.22,238.72 110.28,50.09 288.35,39.29 334.47,-43.48 -21.98,-43.84 -86.88,-88.69 -120.19,-127.77z"/>
   <path class="fil0 str0" d="M4833.9 1479.03c-54.85,3.09 -191.47,6.84 -225.64,29.1 -26.32,17.16 -58.26,72.1 -83.69,106.9l-18.43 24.65c-8.75,9.39 -2.25,3.95 -12.56,11.35l-24.23 -42.63c-7.13,-16.88 -12.1,-27.87 -19.35,-44.53 -50.08,-115.11 -50.83,-92.56 -230.89,-162.52 16.43,-28.83 108.42,-81.54 140.05,-113.61 43.88,-44.47 30.52,-154.38 32.03,-230.28 39.1,2.48 106.8,87.32 154.77,101.17 59.78,17.26 155.07,-38.84 214.8,-45.16 -6.76,60.08 -60.06,153.46 -35.55,210.7 19.56,45.68 102.08,110.89 108.69,154.86zm153.23 -458.62c34.9,-114.05 -37.18,-168.87 -141.13,-134.33 -36.85,12.25 -217.52,73.93 -241.01,75.16 -49.31,2.57 -218.32,-181.07 -288.27,-190.17 -51.47,-6.7 -87.7,20.76 -100.48,56.33 -12.78,35.57 -13.11,252.85 -13.85,306.32 -0.63,45.65 5.33,36.86 -69.01,90.61l-180.4 136.82c-22.29,24.28 -37.14,78.28 -9.74,117.85 29,41.9 147.94,75.11 210.91,99.26 135.99,52.15 106.4,21.6 163.92,153.16 27.28,62.38 63.74,178.16 113.76,202.5 89.98,43.79 145.38,-67.57 180.82,-118.01 112.06,-159.44 79.06,-136.22 175.98,-144.4 146.75,-12.37 369,9.91 328.25,-140.79 -11.01,-40.75 -195.91,-237.55 -197.99,-270.7 -0.94,-14.9 59.38,-210.64 68.24,-239.61z"/>
   <path class="fil0 str0" d="M2979.02 484.85c-14.34,-110.18 66.94,-201.06 161.06,-211.63 260.16,-29.21 283.34,347.02 48.67,372.21 -110.6,11.87 -197.75,-68.65 -209.73,-160.58zm557.53 28.19c39.62,-219.99 -129.83,-392.8 -309.46,-424.64 -224.6,-39.82 -401.99,128.91 -432.16,306.26 -58.19,341.97 332.75,572.09 604.43,356.98 67.86,-53.74 115.8,-119.87 137.19,-238.6z"/>
   <path class="fil0 str0" d="M3624.15 236.07c12.95,51.87 39.09,89.67 61.96,160.89 58.82,183.22 53.99,376.65 -6.68,549.98 -61.48,175.64 -227.66,394.4 -386.17,458.56 6.13,33.86 65.48,135.99 86.08,164.21 39.71,-7.59 133.22,-80.87 158.58,-101.72 146.7,-120.58 251.24,-267.42 320.11,-462.22 48.44,-137 68.96,-299.11 52.29,-463.73 -9.91,-97.9 -75.65,-335.91 -129.97,-389.42l-156.2 83.45z"/>
  </g>
 </g>
</svg>
