<?xml version="1.0" encoding="UTF-8"?>
<!DOCTYPE svg PUBLIC "-//W3C//DTD SVG 1.1//EN" "http://www.w3.org/Graphics/SVG/1.1/DTD/svg11.dtd">
<!-- Creator: CorelDRAW 2019 (64-Bit) -->
<svg xmlns="http://www.w3.org/2000/svg" xml:space="preserve" width="210mm" height="202mm" version="1.1" style="shape-rendering:geometricPrecision; text-rendering:geometricPrecision; image-rendering:optimizeQuality; fill-rule:evenodd; clip-rule:evenodd"
viewBox="0 0 21000 20200"
 xmlns:xlink="http://www.w3.org/1999/xlink">
 <defs>
  <style type="text/css">
   <![CDATA[
    .fil0 {fill:#0B2027}
   ]]>
  </style>
 </defs>
 <g id="Capa_x0020_1">
  <metadata id="CorelCorpID_0Corel-Layer"/>
  <g id="_2151464717520">
   <path class="fil0" d="M1316.43 12627.7l1856.27 0 0 6611.66 -1856.27 0 0 -6611.66zm2523.69 4505.1l0 -3649.97c128.78,-2.87 700.56,-147.06 981.42,-186.57 168.07,-23.65 366.26,-36.4 525.98,-58.02l557.44 -26.55c704.16,0 1313.54,154.56 1904.96,451.89 259.55,130.48 950.6,523.73 1205.03,567.81 608.63,105.45 2184.92,2.3 2855.11,2.29 105.57,0 250.8,-8.26 351.52,3.05 313.52,35.2 570.57,-6.63 956.79,148.64 333.96,134.26 603.27,361 789.77,670.21 92.82,153.88 172.36,342.01 217.05,533.81l-5109.96 0 0 667.42 5568.81 0c192.57,0 292,-228.18 292,-396.28 0,-243.1 -120.28,-631.5 -211.31,-852.4 -30.07,-72.98 -81.98,-169.06 -101.54,-253.02 169.47,-39.49 1603.9,-959.61 1852.33,-1109.36 1304.18,-786.15 1013.84,-851.2 2673.63,-851.2 265.83,0 426.17,82.06 640.44,172.98 74.27,31.52 149.03,45.8 214.7,77.31 -218.97,413.81 -2018.16,1491.64 -2565.41,1856.27 -147.03,97.96 -282.24,195.09 -433.84,296.15 -155.69,103.78 -292.67,195.1 -450.52,300.34l-4406.48 2956.03c-648.71,360.24 -1109.34,387.36 -1801.12,327.46 -1448.7,-125.45 -3873.72,-961.54 -5372.23,-1302 -211.63,-48.09 -395.16,-88.44 -592.29,-137.72 -100.58,-25.14 -206.93,-54.06 -296.63,-78.79 -110.83,-30.54 -245.65,-55.07 -245.65,-129.78zm-3274.54 -4692.82l0 6861.95c0,183.81 68.16,337.93 83.42,521.43 770.71,179.55 1642.09,99.39 2544.83,104.56 127.19,0.73 195.03,-14.83 312.5,-21.21 347.64,-18.88 333.82,-377.59 333.79,-688.21 -0.04,-451.9 0,-903.8 0,-1355.7l604.85 166.86c385.82,96.49 874.61,191.6 1244.04,299.37l1851.17 484.82c1245.82,310.15 2604.98,875.09 3900.22,579.84 1109.8,-252.98 2047.49,-1054.73 2953.43,-1697.67l692.35 -475.65c1011.55,-671.29 2017.23,-1356.59 3036.97,-2010.41 159.2,-102.07 308.65,-206.03 462.86,-308.85 158.3,-105.55 321.51,-207.38 479.71,-312.86l926.65 -616.76c220.58,-161.18 741.91,-420.26 741.91,-822.37 0,-743.68 -1320.19,-1063.7 -2023.13,-1063.7 -542.75,0 -996.64,113.8 -1379.83,267.86 -285.09,114.62 -1689.68,1010.5 -2103.28,1233.84 -210.42,113.62 -906.96,604.85 -1063.71,604.85 -46.36,0 -535.09,-338.05 -650.49,-413.22 -72.64,-47.32 -170.79,-96.82 -249.02,-126.4 -433.9,-164.07 -654.18,-103.95 -955.67,-128.9 -692.9,-57.34 -1279.12,42.81 -1982.51,42.81 -549.76,0 -1066.8,36.11 -1529.24,-222.74 -144.16,-80.7 -250.48,-145.33 -403.35,-222.36l-432.92 -192.79c-1042.29,-416.78 -2187.09,-530.84 -3325.72,-339.67 -247.19,41.51 -545.5,143.28 -816.14,143.28l-83.43 -792.56c-111.29,0 -222.11,-31.68 -334.27,-41.16 -797.65,-67.45 -891.85,-63.13 -1709.72,-63.13 -250.19,0 -765.93,24.31 -969.12,94.58 -86,29.74 -77.51,40.42 -93.07,136.36 -12.06,74.42 -14.08,102.99 -31.2,177.37 -17.32,75.31 -32.88,109.98 -32.88,196.54z"/>
   <path class="fil0" d="M3506.41 9394.86c211.55,49.29 797.33,83.92 1022.48,82.94 145.41,-0.63 202.57,22.49 353.81,21.63 502.74,-2.88 948.04,20.58 1460.26,20.58 416.15,0 5656.18,30.82 5991.65,-15.16l2413.73 -5.69c360.67,0.59 291.98,125.71 291.98,-688.29l-10949.91 0 104.14 -730.14c55.5,-336.22 149.23,-702.53 247.78,-1024.5 115.1,-376.07 225.57,-586.8 366.02,-927.11 116.34,-281.9 432.59,-788.41 628.92,-1060.5 1596.46,-2212.51 4476.09,-3332.71 7179.5,-2698.42 1262.77,296.28 2368.74,868.91 3283.91,1784.35 73.92,73.94 142.48,134.03 203.35,213.78 159.05,208.39 339.54,363.81 571.52,700.76 251.37,365.12 266.78,405.2 483.39,768.02 395.36,662.24 863.93,2005.25 863.93,2973.76l-1126.27 0 0 688.28 1251.42 0c622.03,0 542.28,-291.55 542.28,-875.99 0,-1195.61 -490.64,-2563.69 -1147.13,-3545.7 -304.6,-455.62 -873.22,-1197.8 -1305.2,-1531.35l-506.49 -432.08c-259.8,-207.54 -546.59,-391.12 -833.22,-564.19 -805.43,-486.34 -1848.73,-870.88 -2798.75,-976.37 -133.23,-14.79 -296.78,-42.29 -437.31,-42.4l-919.25 -0.12c-652.47,8.05 -1751.84,237.51 -2353,462.69 -292.41,109.53 -441.84,192.65 -673.36,286.06l-606.01 332.56c-99.8,64.6 -179.04,112.32 -279.69,179.16l-659.83 508.16c-461.33,407.88 -672.62,660.27 -1034.93,1113.34 -447.29,559.33 -752.66,1125.99 -1073.69,1762.86 -463.83,920.17 -556.03,2131.14 -556.03,3219.08z"/>
   <polygon class="fil0" points="2129.85,10875.71 20087.71,10875.71 20087.71,10208.29 2129.85,10208.29 "/>
   <path class="fil0" d="M5592.11 6871.17c66.76,32.03 217.76,56.98 294.89,80.53 114.81,35.07 174.01,80.37 289.11,107.18 18.93,-81.26 202.16,-404.33 264.18,-528.37l278.21 -535.22c201.91,-391.02 392.87,-612.09 693.38,-912.61 242.19,-242.19 601.41,-522.31 895.62,-710.36 111.96,-71.56 903.3,-484.11 1080.58,-525.41l-73.14 -469.14c-11.82,-64.16 -1.73,-114.86 -72.86,-114.86 -519.72,0 -1157.54,447.15 -1528.58,723.98 -321.54,239.9 -931.3,812.06 -1162.01,1111.39 -332.17,430.97 -946.26,1183.76 -959.38,1772.89z"/>
   <polygon class="fil0" points="10201.5,885.21 11995.2,885.21 11995.2,217.79 10201.5,217.79 "/>
  </g>
 </g>
</svg>
