<?xml version="1.0" encoding="UTF-8"?>
<!DOCTYPE svg PUBLIC "-//W3C//DTD SVG 1.1//EN" "http://www.w3.org/Graphics/SVG/1.1/DTD/svg11.dtd">
<!-- Creator: CorelDRAW 2019 (64-Bit) -->
<svg xmlns="http://www.w3.org/2000/svg" xml:space="preserve" width="202mm" height="202mm" version="1.1" style="shape-rendering:geometricPrecision; text-rendering:geometricPrecision; image-rendering:optimizeQuality; fill-rule:evenodd; clip-rule:evenodd"
viewBox="0 0 20200 20200"
 xmlns:xlink="http://www.w3.org/1999/xlink">
 <defs>
  <style type="text/css">
   <![CDATA[
    .fil0 {fill:#CDD1C4}
   ]]>
  </style>
 </defs>
 <g id="Capa_x0020_1">
  <metadata id="CorelCorpID_0Corel-Layer"/>
  <g id="Capa_x0020_1_0">
   <g id="_2151464717520">
    <path class="fil0" d="M915.81 12627.55l1855.53 0 0 6610.78 -1855.53 0c0,0 0,-6610.78 0,-6610.78zm2525.78 4504.79l0 -3651.1c130.52,-3.53 702,-148.16 980.68,-186.96 169.33,-24.69 366.87,-35.28 525.62,-56.44l557.37 -28.22c705.53,0 1312.28,155.22 1904.92,451.54 261.04,130.52 948.93,522.09 1206.45,567.95 610.28,105.83 2183.6,3.53 2853.86,3.53 105.83,0 250.46,-7.06 352.76,3.53 313.96,35.28 571.48,-7.06 955.99,148.16 335.13,134.05 603.23,359.82 790.19,670.25 91.72,155.22 172.85,342.18 218.71,532.67l-5111.54 -0.02 0 666.72 5570.13 0.01c194.02,0 292.79,-229.3 292.79,-395.09 0,-243.41 -119.94,-631.45 -211.66,-853.69 -31.75,-74.08 -81.14,-169.33 -102.3,-253.99 169.33,-38.8 1605.07,-959.52 1852.01,-1107.68 1305.22,-786.66 1012.43,-850.16 2673.95,-850.16 264.57,0 426.84,81.14 642.03,172.85 74.08,31.75 148.16,45.86 215.19,77.61 -218.71,412.73 -2017.81,1492.19 -2564.59,1855.54 -148.16,98.77 -282.21,194.02 -433.9,296.32 -155.22,102.3 -292.79,194.02 -451.54,299.85l-4406.01 2956.16c-649.08,359.82 -1107.68,388.04 -1802.62,328.07 -1449.86,-126.99 -3873.34,-963.04 -5372.59,-1301.7 -211.66,-49.39 -395.09,-88.19 -592.64,-137.58 -102.3,-24.69 -208.13,-52.91 -296.32,-77.61 -112.89,-31.75 -246.94,-56.44 -246.94,-130.52l0 0zm-3277.17 -4691.76l0 6861.25c0,183.44 67.03,338.65 84.66,522.09 769.02,179.91 1640.35,98.77 2543.42,105.83 126.99,0 194.02,-14.11 313.96,-21.17 349.24,-17.64 335.13,-377.46 335.13,-687.89 0,-451.54 0,-903.07 0,-1354.61l603.23 165.8c384.51,95.25 874.85,190.49 1245.25,299.85l1852.01 483.29c1245.25,310.43 2603.39,874.85 3901.56,578.53 1111.2,-253.99 2046.03,-1054.76 2952.63,-1696.79l691.42 -476.23c1012.43,-670.25 2017.81,-1358.14 3037.29,-2010.75 158.74,-102.3 306.9,-204.6 462.12,-310.43 158.74,-105.83 321.01,-208.13 479.76,-313.96l927.77 -617.34c222.24,-162.27 740.8,-419.79 740.8,-821.94 0,-744.33 -1319.33,-1065.35 -2021.33,-1065.35 -543.26,0 -998.32,112.88 -1379.3,268.1 -285.74,112.88 -1689.74,1008.9 -2102.47,1234.67 -211.66,112.88 -906.6,603.23 -1065.35,603.23 -45.86,0 -536.2,-338.65 -649.08,-412.73 -74.08,-45.86 -169.33,-95.25 -250.46,-126.99 -433.9,-165.8 -652.61,-102.3 -955.99,-130.52 -691.42,-56.44 -1280.53,42.33 -1982.53,42.33 -550.31,0 -1065.35,35.28 -1527.47,-222.24 -144.63,-81.14 -250.46,-144.63 -402.15,-222.24l-433.9 -194.02c-1040.65,-416.26 -2187.13,-529.14 -3326.56,-338.65 -246.93,42.33 -546.78,144.63 -814.88,144.63l-84.66 -793.72c-112.88,0 -222.24,-31.75 -335.13,-42.33 -797.25,-67.03 -892.49,-63.5 -1710.9,-63.5 -250.46,0 -765.5,24.69 -970.1,95.25 -84.66,28.22 -77.61,38.8 -91.72,137.58 -10.58,74.08 -14.11,102.3 -31.75,176.38 -17.64,81.13 -35.28,116.4 -35.28,204.59l0 0z"/>
    <path class="fil0" d="M3106.47 9396.24c211.66,49.39 797.25,84.66 1023.01,84.66 144.63,0 201.08,21.17 352.76,21.17 504.45,-3.53 948.93,21.17 1460.44,21.17 416.26,0 5654.8,31.75 5989.92,-14.11l2412.9 -7.06c359.82,0 292.79,126.99 292.79,-687.89l-10949.76 0 105.83 -730.22c56.44,-335.13 148.16,-702 246.93,-1023.01 116.41,-377.46 225.77,-585.59 366.87,-927.77 116.41,-282.21 433.9,-786.66 627.92,-1061.82 1598.02,-2211.83 4476.57,-3333.61 7178.73,-2698.64 1262.89,296.32 2367.04,867.8 3284.23,1784.98 74.08,74.08 141.11,134.05 204.6,215.19 158.74,208.13 338.65,363.35 571.48,702 250.46,363.35 268.1,405.68 483.29,769.02 395.09,663.2 864.27,2003.7 864.27,2973.79l-1125.32 0 0 687.89 1252.31 0c620.86,0 543.26,-292.79 543.26,-874.85 0,-1195.87 -490.34,-2564.59 -1146.48,-3545.27 -303.38,-455.06 -874.85,-1199.4 -1305.22,-1530.99l-507.98 -430.37c-261.04,-208.13 -546.78,-391.57 -832.52,-564.42 -804.3,-486.81 -1848.48,-871.33 -2797.41,-977.15 -134.05,-14.11 -296.32,-42.33 -437.43,-42.33l-920.71 0c-652.61,7.06 -1753.23,236.35 -2352.93,462.12 -292.79,109.36 -440.95,194.02 -673.78,285.74l-606.75 331.6c-98.77,63.5 -179.91,112.88 -278.68,179.91l-659.67 507.98c-462.12,409.21 -673.78,659.67 -1033.6,1114.73 -448.01,560.89 -751.39,1125.31 -1072.4,1763.82 -469.18,910.11 -560.9,2120.09 -560.9,3210.13l0 0z"/>
    <polygon class="fil0" points="1730.69,10874.32 19686.34,10874.32 19686.34,10207.59 1730.69,10207.59 "/>
    <path class="fil0" d="M5191.3 6870.45c67.03,31.75 218.71,56.44 296.32,81.14 116.41,35.28 172.85,81.14 289.27,105.83 17.64,-81.14 201.08,-405.68 264.57,-529.14l278.68 -536.2c201.08,-391.57 391.57,-613.81 694.94,-913.66 243.41,-243.41 599.7,-522.09 896.02,-709.05 112.88,-70.55 903.07,-483.29 1079.46,-525.62l-74.08 -469.18c-10.58,-63.5 0,-116.41 -74.08,-116.41 -518.56,0 -1157.06,448.01 -1527.47,723.16 -321.01,239.88 -931.3,811.36 -1160.59,1111.2 -335.12,437.43 -948.93,1188.82 -963.04,1777.93l0 0z"/>
    <polygon class="fil0" points="9801.92,884.06 11593.95,884.06 11593.95,217.34 9801.92,217.34 "/>
   </g>
  </g>
 </g>
</svg>
