<?xml version="1.0" encoding="UTF-8"?>
<!DOCTYPE svg PUBLIC "-//W3C//DTD SVG 1.1//EN" "http://www.w3.org/Graphics/SVG/1.1/DTD/svg11.dtd">
<!-- Creator: CorelDRAW 2019 (64-Bit) -->
<svg xmlns="http://www.w3.org/2000/svg" xml:space="preserve" width="80mm" height="64mm" version="1.1" style="shape-rendering:geometricPrecision; text-rendering:geometricPrecision; image-rendering:optimizeQuality; fill-rule:evenodd; clip-rule:evenodd"
viewBox="0 0 8000 6400"
 xmlns:xlink="http://www.w3.org/1999/xlink">
 <defs>
  <style type="text/css">
   <![CDATA[
    .fil0 {fill:#20FC8F}
   ]]>
  </style>
 </defs>
 <g id="Capa_x0020_1">
  <metadata id="CorelCorpID_0Corel-Layer"/>
  <g id="_2150701938144">
   <g id="_2150716392304">
    <path class="fil0" d="M1181.89 3620.68c-31.22,635.73 -8.82,1626.38 -8.53,2299.39 0,272.57 66.83,411.08 332.37,411.08l1853.75 -1.8 11.08 -1870.4c341.84,6.34 948.02,-45.35 1247.31,24.92l2.87 1842.19c390.74,24.63 834.35,5.09 1224.14,5.09 370.1,0 907.69,108.52 967.09,-245.33 44.14,-262.87 31.33,-2133.99 -2.16,-2436.37l-1035.54 -869.19c-320.34,-241.11 -1610.87,-1358.88 -1814.39,-1451.39 -58.39,95.71 -242.27,222.52 -332.66,291.61l-1041.66 863.08c-90.68,78.7 -87.88,76.23 -177.4,141.03l-518.14 432.15c-179.87,141.44 -575.74,499.37 -708.13,563.94z"/>
    <path class="fil0" d="M4010.44 911.05c168.28,132.23 328.48,280.6 503.03,414.61 619.03,475.23 1819.36,1520.44 2502.05,2083.41 184.96,152.53 376.81,386.06 527.23,329.09 83.26,-31.53 424.29,-404.7 399.28,-534.48 -30.63,-158.99 -1083.17,-856.37 -1124.17,-1023.05 0.66,-289.71 42.14,-1925.31 -38.82,-2059.87 -85.02,-92.88 -1118.16,-83.22 -1186.4,13.76 -71.93,189.99 -16.21,765.22 -32.18,1018.93 -587.44,-281.04 -1298.28,-1504.45 -1951.68,-962.71l-3504.26 2923.25c-124.76,167.3 -21.21,242.57 77.07,354.71 360.83,411.77 206.95,455.29 1464.9,-617.3 195.46,-166.66 2221.94,-1878.93 2363.95,-1940.35z"/>
   </g>
  </g>
 </g>
</svg>
