<?xml version="1.0" encoding="UTF-8"?>
<!DOCTYPE svg PUBLIC "-//W3C//DTD SVG 1.1//EN" "http://www.w3.org/Graphics/SVG/1.1/DTD/svg11.dtd">
<!-- Creator: CorelDRAW 2019 (64-Bit) -->
<svg xmlns="http://www.w3.org/2000/svg" xml:space="preserve" width="46mm" height="42mm" version="1.1" style="shape-rendering:geometricPrecision; text-rendering:geometricPrecision; image-rendering:optimizeQuality; fill-rule:evenodd; clip-rule:evenodd"
viewBox="0 0 4600 4200"
 xmlns:xlink="http://www.w3.org/1999/xlink">
 <defs>
  <style type="text/css">
   <![CDATA[
    .str0 {stroke:#20FC8F;stroke-width:282.22;stroke-miterlimit:22.9256}
    .fil0 {fill:none}
   ]]>
  </style>
 </defs>
 <g id="Capa_x0020_1">
  <metadata id="CorelCorpID_0Corel-Layer"/>
  <g id="_1760031563280">
   <polyline class="fil0 str0" points="118.65,1804.69 2296.3,252.6 4478.7,1808.05 "/>
   <path class="fil0 str0" d="M622.28 2164.72l-6.89 1408.93c11.41,280.96 153.1,432.94 425.06,455.93l642.85 1.54c120.66,4.6 185.31,-45.14 193.95,-149.22l-0.93 -973.71 839.88 0.69 -5.58 899.4c-3.89,124.4 31.23,194.14 105.36,209.22 34.78,8.48 71.8,12.3 111.07,11.46l402.74 3.17 269.6 0c162.39,-36.61 270.92,-110.27 325.59,-220.96 41.38,-57.96 59.96,-170.17 55.72,-336.64l-10.01 -1312.46"/>
   <polyline class="fil0 str0" points="622.19,915.24 623.41,180.7 1353.28,179.47 "/>
  </g>
 </g>
</svg>
