<?xml version="1.0" encoding="UTF-8"?>
<!DOCTYPE svg PUBLIC "-//W3C//DTD SVG 1.1//EN" "http://www.w3.org/Graphics/SVG/1.1/DTD/svg11.dtd">
<!-- Creator: CorelDRAW 2019 (64-Bit) -->
<svg xmlns="http://www.w3.org/2000/svg" xml:space="preserve" width="58mm" height="46mm" version="1.1" style="shape-rendering:geometricPrecision; text-rendering:geometricPrecision; image-rendering:optimizeQuality; fill-rule:evenodd; clip-rule:evenodd"
viewBox="0 0 5800 4600"
 xmlns:xlink="http://www.w3.org/1999/xlink">
 <defs>
  <style type="text/css">
   <![CDATA[
    .str0 {stroke:#20FC8F;stroke-width:282.22;stroke-miterlimit:22.9256}
    .fil0 {fill:none}
   ]]>
  </style>
 </defs>
 <g id="Capa_x0020_1">
  <metadata id="CorelCorpID_0Corel-Layer"/>
  <g id="_2074502234800">
   <polyline class="fil0 str0" points="474.73,2096.25 2893.29,372.45 5317.14,2099.98 "/>
   <path class="fil0 str0" d="M1034.08 2340.63l-7.65 1564.8c12.67,312.04 170.03,480.83 472.08,506.36l713.97 1.72c134.01,5.11 205.81,-50.14 215.4,-165.73l-1.03 -1081.44 932.8 0.77 -6.19 998.9c-4.32,138.16 34.67,215.62 117.01,232.37 38.63,9.42 79.75,13.66 123.36,12.73l447.3 3.52 299.42 0c180.36,-40.66 300.9,-122.47 361.62,-245.41 45.95,-64.37 66.58,-188.99 61.88,-373.87l-11.12 -1457.67"/>
   <polyline class="fil0 str0" points="1033.97,1108.4 1035.34,292.6 1845.95,291.23 "/>
  </g>
 </g>
</svg>
