<?xml version="1.0" encoding="UTF-8"?>
<!DOCTYPE svg PUBLIC "-//W3C//DTD SVG 1.1//EN" "http://www.w3.org/Graphics/SVG/1.1/DTD/svg11.dtd">
<!-- Creator: CorelDRAW 2019 (64-Bit) -->
<svg xmlns="http://www.w3.org/2000/svg" xml:space="preserve" width="210mm" height="240mm" version="1.1" style="shape-rendering:geometricPrecision; text-rendering:geometricPrecision; image-rendering:optimizeQuality; fill-rule:evenodd; clip-rule:evenodd"
viewBox="0 0 21000 24000"
 xmlns:xlink="http://www.w3.org/1999/xlink">
 <defs>
  <style type="text/css">
   <![CDATA[
    .fil0 {fill:#CDD1C4}
   ]]>
  </style>
 </defs>
 <g id="Capa_x0020_1">
  <metadata id="CorelCorpID_0Corel-Layer"/>
  <path class="fil0" d="M11603.81 23436.78c2404.69,-3009.37 7889.06,-10303.12 7889.06,-14400 0,-4968.75 -4031.25,-9000 -9000,-9000 -4968.75,0 -9000,4031.25 -9000,9000 0,4096.88 5484.38,11390.63 7889.06,14400 576.56,717.19 1645.32,717.19 2221.88,0l0 0zm-1110.94 -11400c-1654.69,0 -3000,-1345.31 -3000,-3000 0,-1654.69 1345.31,-3000 3000,-3000 1654.69,0 3000,1345.31 3000,3000 0,1654.69 -1345.31,3000 -3000,3000z"/>
 </g>
</svg>
