<?xml version="1.0" encoding="UTF-8"?>
<!DOCTYPE svg PUBLIC "-//W3C//DTD SVG 1.1//EN" "http://www.w3.org/Graphics/SVG/1.1/DTD/svg11.dtd">
<!-- Creator: CorelDRAW 2019 (64-Bit) -->
<svg xmlns="http://www.w3.org/2000/svg" xml:space="preserve" width="210mm" height="110mm" version="1.1" style="shape-rendering:geometricPrecision; text-rendering:geometricPrecision; image-rendering:optimizeQuality; fill-rule:evenodd; clip-rule:evenodd"
viewBox="0 0 21000 11000"
 xmlns:xlink="http://www.w3.org/1999/xlink">
 <defs>
  <style type="text/css">
   <![CDATA[
    .fil0 {fill:#CDD1C4}
   ]]>
  </style>
 </defs>
 <g id="Capa_x0020_1">
  <metadata id="CorelCorpID_0Corel-Layer"/>
  <g id="Capa_x0020_1_0">
   <g id="_2186080198640">
    <path class="fil0" d="M17264.24 1617.84c0,-151.69 -7.06,-229.3 70.55,-370.4 42.33,-81.14 84.66,-123.47 137.58,-190.49 81.14,-102.3 222.24,-257.52 324.54,-331.6 70.55,-52.91 119.94,-84.66 201.08,-126.99 338.65,-169.33 744.33,-218.71 1128.84,-155.22 313.96,52.91 589.11,155.22 839.58,352.76 232.82,183.44 419.79,465.65 419.79,783.13l-28.22 719.64c-3.53,42.33 -7.06,38.8 -10.58,84.66 -3.53,105.83 -3.53,236.35 -17.64,328.07l-31.75 670.25c0,70.55 -10.58,105.83 -10.58,162.27 -3.53,275.16 -38.8,585.59 -38.8,853.69 0,222.24 17.64,426.84 0,634.97 -3.53,49.39 0,112.88 0,162.27 0,67.03 -7.06,98.77 -10.58,151.69 -3.53,105.83 0,225.77 14.11,321.01 28.22,197.55 24.69,416.26 24.69,638.5 0,63.5 3.53,105.83 7.06,155.22 7.06,52.91 -3.53,105.83 3.53,158.74 7.06,49.39 14.11,91.72 21.17,141.11 7.06,52.91 3.53,116.41 10.58,162.27l70.55 906.6c10.58,91.72 24.69,208.13 28.22,310.43 3.53,95.25 24.69,204.6 28.22,296.32 7.06,105.83 21.17,208.13 28.22,306.9 28.22,377.46 95.25,666.72 -38.8,1005.38 -81.14,204.6 -215.19,328.07 -388.04,455.06 -469.18,349.24 -1114.73,469.18 -1675.63,282.21 -165.8,-56.44 -144.63,-49.39 -299.85,-123.47 -88.19,-42.33 -183.44,-109.36 -253.99,-169.33 -74.08,-59.97 -148.16,-141.11 -208.13,-215.19 -141.11,-172.85 -215.19,-398.62 -218.71,-631.45l24.69 -391.57c3.53,-35.28 -3.53,-70.55 0,-105.83 3.53,-42.33 10.58,-45.86 10.58,-95.25 3.53,-225.77 17.64,-373.93 17.64,-624.39 0,-148.16 10.58,-264.57 10.58,-412.73 0,-984.21 28.22,-1968.42 28.22,-2945.57l-84.66 -1372.25c-7.06,-74.08 -10.58,-141.11 -17.64,-204.6l-70.55 -776.08c-3.53,-67.03 -3.53,-130.52 -14.11,-197.55 -10.58,-67.03 0,-137.58 -7.06,-204.6l-24.7 -398.59 0 0zm-412.74 49.39c0,243.41 7.06,507.98 42.33,733.75l95.25 1019.49c35.28,243.41 70.55,853.69 74.08,1051.23l38.8 797.25c0,102.3 10.58,169.33 10.58,268.1 0,246.93 28.22,522.09 0,769.02 -3.53,35.28 0,77.61 0,112.88 0,52.91 -7.06,59.97 -10.58,105.83 -3.53,35.28 0,70.55 0,105.83l-21.17 324.54c-38.8,-28.22 -98.77,-158.74 -130.52,-208.13l-190.49 -317.49c-24.69,-38.8 -42.33,-70.55 -63.5,-109.36l-384.51 -645.56c-116.41,-190.49 -278.68,-458.59 -377.46,-638.5 -119.94,-222.24 -310.43,-518.56 -444.48,-747.86 -91.72,-158.74 -218.71,-398.62 -352.76,-511.51 -211.66,-172.85 -575,-109.36 -716.11,134.05 -268.1,451.54 -522.09,910.13 -793.72,1361.67l-455.06 776.08c-42.33,67.03 -70.55,126.99 -112.88,194.02l-225.77 388.04c0,165.8 250.46,448.01 504.45,-52.91 63.5,-123.47 511.51,-906.6 624.39,-1075.93 77.61,-116.41 137.58,-236.35 211.66,-356.29 74.08,-116.41 137.58,-239.88 215.19,-352.76 112.88,-169.33 215.19,-349.24 324.54,-522.09 31.75,-49.39 74.08,-130.52 123.47,-162.27 63.5,17.64 137.58,137.58 169.33,194.02l539.73 920.71c45.86,77.61 91.72,151.69 137.58,229.3l543.26 917.18c24.69,42.33 45.86,70.55 70.55,112.88 24.69,42.33 42.33,74.08 67.03,116.41 45.86,81.14 88.19,151.69 134.05,229.3l201.08 345.71c24.69,42.33 45.86,70.55 70.55,112.88 31.75,52.91 264.57,412.73 275.16,455.06 -134.05,91.72 -236.35,218.71 -349.24,335.13 -95.25,95.25 -278.68,282.21 -412.73,282.21 -105.83,0 -162.27,-42.33 -232.82,-102.3 -169.33,-141.11 -363.35,-356.29 -518.56,-518.56 -176.38,-183.44 -356.29,-405.68 -642.03,-405.68 -229.3,0 -349.24,35.28 -518.56,183.44 -52.91,45.86 -109.36,88.19 -151.69,144.63 -45.86,59.97 -98.77,102.3 -151.69,155.22 -95.25,95.25 -222.24,186.96 -289.27,306.9 -98.77,176.38 -14.11,321.01 197.55,321.01 137.58,0 321.01,-250.46 426.84,-352.76l194.02 -201.08c243.41,-239.88 366.87,-158.74 613.81,105.83 17.64,21.17 17.64,24.69 35.28,42.33l74.08 81.14c119.94,151.69 370.4,391.57 511.51,490.34 176.38,123.47 324.54,162.27 560.89,162.27 112.88,0 211.66,-38.8 285.74,-109.36 24.69,-24.69 49.39,-38.8 74.08,-63.5 88.19,-88.19 172.85,-183.44 275.16,-250.46 0,81.14 -10.58,123.47 -10.58,201.08l-17.64 310.43c-10.58,88.19 -10.58,402.15 -10.58,497.4 0,204.6 31.75,384.51 102.3,560.89 102.3,253.99 285.74,462.12 493.87,631.45 123.47,98.77 257.52,194.02 409.21,253.99 183.44,74.08 303.38,126.99 518.56,165.8 599.7,102.3 1298.17,-17.64 1784.98,-380.98l437.43 -455.06c204.6,-271.63 215.19,-536.2 215.19,-899.55 0,-278.68 -63.5,-850.16 -98.77,-1188.81l-134.05 -1682.68c0,-172.85 -21.17,-335.13 -17.64,-500.92l-10.58 -642.03c0,-571.48 42.33,-1118.26 38.8,-1689.74 0,-70.55 7.06,-123.47 10.58,-201.08l28.22 -402.15c3.53,-56.44 17.64,-144.63 17.64,-201.08l35.28 -617.34c17.64,-116.41 3.53,-253.99 3.53,-370.4 0,-296.32 -35.28,-546.78 -137.58,-744.33 -102.3,-201.08 -239.88,-349.24 -405.68,-490.34 -42.33,-35.28 -84.66,-59.97 -126.99,-91.72l-275.16 -165.8c-243.41,-123.47 -567.95,-232.82 -881.91,-232.82 -398.62,0 -627.92,10.58 -994.79,148.16 -398.62,151.69 -793.72,388.04 -977.15,783.13 -116.46,218.72 -172.91,458.6 -172.91,723.18l0 0z"/>
    <path class="fil0" d="M2688.06 1540.23c0,67.03 67.03,144.63 134.05,144.63 151.69,0 201.08,-77.61 282.21,-225.77 81.14,-144.63 162.27,-289.27 261.04,-423.32l144.63 -201.08c35.28,-42.33 116.41,-172.85 148.16,-197.55 102.3,67.03 335.13,448.01 405.68,553.84l292.79 483.29c67.03,123.47 137.58,250.46 194.02,384.51l119.94 261.04c45.86,95.25 74.08,179.91 116.41,278.68 77.61,183.44 144.63,370.4 208.13,560.89 98.77,292.79 179.91,603.23 253.99,906.6 84.66,338.65 201.08,987.74 218.71,1336.97 3.53,109.36 21.17,243.41 28.22,356.29 3.53,63.5 -3.53,130.52 0,194.02 3.53,59.97 10.58,109.36 10.58,183.44 0,137.58 -10.58,257.52 -10.58,384.51 0,522.09 -28.22,1012.43 -91.72,1460.44 -77.61,536.2 -201.08,1058.29 -359.82,1573.32 -31.75,102.3 -70.55,186.96 -102.3,289.27 -24.69,77.61 -201.08,507.98 -204.6,571.48 -95.25,-49.39 -190.49,-155.22 -268.1,-232.82 -45.86,-45.86 -88.19,-67.03 -134.05,-116.41l-493.86 -507.96c-70.55,-74.08 -70.55,-109.36 -190.49,-109.36 -45.86,0 -63.5,10.58 -91.72,31.75 -10.58,7.06 -24.69,21.17 -31.75,24.69l-151.69 172.85c-88.19,88.19 -165.8,169.33 -253.99,253.99 -24.69,24.69 -42.33,31.75 -67.03,56.44l-253.99 253.99c-28.22,28.22 -42.33,31.75 -67.03,56.44 -45.86,42.33 -74.08,105.83 -148.16,112.88 -3.53,-42.33 -21.17,-67.03 -35.28,-109.36 -271.63,-790.19 -479.76,-1298.17 -599.7,-2187.13 -10.58,-84.66 -24.69,-172.85 -35.28,-250.46 -35.28,-268.1 -67.03,-539.73 -70.55,-814.88 0,-56.44 -10.58,-74.08 -10.58,-134.05l-14.09 -497.38c0,-225.77 17.64,-430.37 17.64,-642.03 0,-52.91 7.06,-88.19 10.58,-155.22l14.11 -158.74c14.11,-95.25 17.64,-201.08 31.75,-303.38 28.22,-208.13 49.39,-388.04 84.66,-589.11 45.86,-268.1 162.27,-818.41 253.99,-1090.04 70.55,-211.66 130.52,-423.32 208.13,-627.92 88.19,-236.35 183.44,-483.29 303.38,-705.53 148.16,-271.63 -141.11,-479.76 -303.38,-158.74 -42.33,88.19 -74.08,162.27 -109.36,253.99 -70.55,165.8 -151.69,331.6 -215.19,507.98 -63.5,179.91 -130.52,356.29 -179.91,539.73 -141.11,504.45 -183.44,673.78 -278.68,1171.17 -17.64,95.25 -35.28,201.08 -52.91,303.38 -10.58,56.44 -14.11,105.83 -21.17,158.74 -7.06,52.91 -17.64,105.83 -21.17,162.27l-17.64 239.88c-3.53,31.75 0,63.5 -3.53,95.25 -7.06,105.83 -14.11,236.35 -28.22,338.65l-31.73 511.51c-17.64,162.27 -14.11,352.76 -7.06,518.56 10.58,345.71 45.86,719.64 88.19,1061.82 91.72,726.69 275.16,1449.86 500.92,2130.69 52.91,155.22 296.32,885.44 430.37,885.44 137.58,0 208.13,-77.61 296.32,-155.22l35.28 -31.75c102.3,-88.19 194.02,-190.49 299.85,-278.68l264.57 -271.63c45.86,-45.86 88.19,-88.19 134.05,-134.05l141.11 -126.99c88.19,59.97 419.79,416.26 525.62,522.09l134.05 123.47c45.86,45.86 88.19,91.72 137.58,130.52 28.22,21.17 38.8,35.28 63.5,59.97 49.39,49.39 176.38,162.27 243.41,162.27l49.38 -0.01c112.88,0 211.66,-292.79 250.46,-391.57 59.97,-148.16 123.47,-306.9 179.91,-465.65 253.99,-747.86 380.98,-1301.7 497.4,-2095.41 130.52,-874.85 116.41,-1820.26 31.75,-2691.58 -28.22,-292.79 -74.08,-596.17 -134.05,-885.44 -14.11,-70.55 -28.22,-134.05 -42.33,-208.13 -67.03,-338.65 -169.33,-680.83 -268.1,-1008.9 -95.25,-313.96 -218.71,-620.86 -349.24,-920.71l-81.14 -179.91c-261.04,-539.73 -416.26,-807.83 -747.86,-1287.59 -67.03,-98.77 -134.05,-204.6 -215.19,-292.79 -59.97,-67.03 -176.38,-246.93 -261.04,-246.93 -119.94,0 -197.55,112.88 -268.1,194.02 -109.36,130.52 -211.66,271.63 -310.43,412.73l-229.3 349.24c-35.27,88.18 -183.43,299.84 -183.43,391.56l0 0z"/>
    <path class="fil0" d="M5386.7 2905.43c0,88.19 77.61,162.27 162.27,162.27 77.61,0 282.21,-74.08 366.87,-95.25 409.21,-102.3 772.55,-183.44 1202.92,-183.44 313.96,0 645.56,21.17 955.99,74.08 557.37,91.72 991.26,285.74 1428.69,631.45l183.44 162.27c119.94,116.41 225.77,236.35 321.01,370.4 201.08,282.21 366.87,631.45 366.87,1008.9 0,201.08 -7.06,412.73 -31.75,603.23 -10.58,88.19 -38.8,328.07 -112.88,377.46 -10.58,-148.16 -225.77,-500.92 -313.96,-620.86 -35.28,-49.39 -63.5,-84.66 -102.3,-130.52 -17.64,-21.17 -31.75,-42.33 -52.91,-63.5l-303.38 -292.79c-250.46,-222.24 -596.17,-405.68 -934.82,-479.76 -271.63,-56.44 -716.11,-74.08 -984.21,-10.58 -229.3,52.91 -500.92,169.33 -691.42,310.43 -296.32,222.24 -525.62,497.4 -649.08,871.33 -42.33,123.47 -81.14,246.93 -105.83,395.09 -91.72,564.42 -42.33,1040.65 201.08,1559.21 17.64,38.8 28.22,67.03 49.39,105.83 88.19,172.85 405.68,779.61 620.86,564.42 151.69,-151.69 -77.61,-321.01 -158.74,-451.54l-151.69 -253.99c-165.8,-292.79 -261.04,-638.5 -261.04,-977.15 0,-345.71 14.11,-546.78 137.58,-867.8 52.91,-137.58 123.47,-257.52 204.6,-373.93l303.38 -282.21c278.68,-204.6 592.64,-306.9 970.1,-306.9 504.45,0 994.79,208.13 1340.5,553.84l169.33 179.91c278.68,345.71 391.57,610.28 493.87,1051.23 -77.61,17.64 -148.16,56.44 -239.88,56.44 -176.38,0 -398.62,-172.85 -310.43,-345.71 21.17,-42.33 77.61,-109.36 77.61,-162.27 0,-437.43 -991.26,342.18 -1139.43,-553.84 -59.97,-370.4 -458.59,7.06 -723.16,7.06 -81.14,0 -183.44,-38.8 -236.35,-74.08 -56.44,-38.8 -102.3,-109.36 -197.55,-109.36 -172.85,0 -278.68,218.71 45.86,412.73 190.49,112.88 423.32,126.99 642.03,74.08 38.8,-10.58 52.91,-14.11 88.19,-28.22 31.75,-14.11 59.97,-28.22 88.19,-35.28 38.8,84.66 28.22,141.11 137.58,257.52 208.13,225.77 539.73,352.76 846.63,282.21 0,186.96 116.41,338.65 215.19,430.37 204.6,186.96 511.51,253.99 769.02,126.99 222.24,-109.36 342.18,-331.6 426.84,-553.84 229.3,-596.17 303.38,-1389.89 24.69,-2010.75 -38.8,-84.66 -77.61,-169.33 -130.52,-246.93l-179.91 -271.63c-74.08,-112.88 -176.38,-201.08 -271.63,-296.32 -21.17,-21.17 -24.69,-31.75 -42.33,-52.91 -56.44,-67.03 -172.85,-155.22 -246.93,-215.19 -253.99,-218.71 -603.23,-363.35 -910.13,-486.81 -342.18,-134.05 -860.74,-246.93 -1245.25,-246.93 -511.51,0 -860.74,14.11 -1354.61,102.3 -222.24,38.8 -455.06,91.72 -652.61,186.96 -45.88,28.23 -105.85,70.56 -105.85,162.28l0 0z"/>
    <path class="fil0" d="M11281.37 9057.62c-21.17,-35.28 -38.8,-42.33 -70.55,-67.03l-218.71 -211.66c10.58,-45.86 98.77,-179.91 123.47,-222.24l391.57 -656.14c21.17,-42.33 42.33,-74.08 63.5,-109.36l384.51 -663.2c21.17,-45.86 45.86,-74.08 67.03,-116.41 59.97,38.8 236.35,338.65 285.74,416.26 102.3,158.74 229.3,388.04 331.6,553.84l451.54 786.66 -137.58 141.11c-52.91,52.91 -95.25,116.41 -141.11,144.63 -52.91,-10.58 -134.05,-105.83 -172.85,-144.63 -112.88,-126.99 -380.98,-402.15 -560.89,-402.15 -158.74,0 -278.68,45.86 -388.04,151.69 -31.75,31.75 -56.44,42.33 -84.66,77.61l-236.35 246.93c-31.78,31.76 -49.42,49.39 -88.22,74.09l0 0zm-1404 -84.67c-719.64,0 -1160.59,35.28 -1823.79,-225.77l-257.52 -119.94c-190.49,-95.25 -190.49,-105.83 -345.71,-211.66 -98.77,-67.03 -155.22,-119.94 -257.52,-74.08 -98.77,42.33 -88.19,98.77 -88.19,172.85 0,112.88 95.25,141.11 165.8,190.49l162.27 105.83c21.17,10.58 38.8,24.69 59.97,38.8 536.2,306.9 1090.04,462.12 1725.01,462.12 366.87,0 606.75,10.58 963.04,-17.64 -10.58,49.39 -412.73,691.42 -412.73,807.83 0,77.61 105.83,190.49 183.44,190.49 81.14,0 126.99,-10.58 194.02,-84.66 38.8,-38.8 67.03,-88.19 95.25,-134.05l253.99 -437.43c63.5,-105.83 162.27,-257.52 211.66,-363.35 14.11,-31.75 17.64,-56.44 31.75,-84.66 208.13,49.39 218.71,289.27 518.56,289.27l95.25 0.02c155.22,0 363.35,-208.13 451.54,-289.27l21.17 -17.64c3.53,-3.53 10.58,-14.11 17.64,-21.17l112.88 -119.94c14.11,-17.64 21.17,-28.22 35.28,-42.33 21.17,-24.69 21.17,-14.11 28.22,-45.86 63.5,7.06 144.63,95.25 186.96,141.11l109.36 130.52c14.11,17.64 28.22,28.22 42.33,42.33 186.96,186.96 268.1,222.24 536.2,222.24 197.55,0 285.74,-246.93 462.12,-289.27l158.74 303.38c81.14,134.05 423.32,800.77 603.23,800.77 437.43,0 10.58,-656.14 -95.25,-818.41 -24.69,-38.8 -45.86,-70.55 -70.55,-112.88l-1354.61 -2271.8c-56.44,-95.25 -172.85,-306.9 -246.93,-388.04 -63.5,-70.55 -3.53,-17.64 -91.72,-91.72 -21.17,-17.64 -31.75,-28.22 -52.91,-42.33 -84.66,-56.44 -116.41,-49.39 -211.66,-49.39 -165.8,0 -296.32,225.77 -366.87,345.71 -17.64,31.75 -35.28,52.91 -52.91,88.19l-737.28 1262.89c-84.66,141.11 -257.52,405.68 -324.54,532.67l-81.14 130.52c-38.8,63.5 -31.75,77.61 -141.11,81.14 -109.36,-3.51 -275.16,14.12 -412.74,14.12l0 0z"/>
    <path class="fil0" d="M3495.88 1222.74l0 7870.15c0,229.3 345.71,253.99 345.71,-49.39l0 -7771.37c0,-81.14 -63.5,-172.85 -144.63,-172.85 -77.61,0 -201.08,14.11 -201.08,123.46l0 0z"/>
    <path class="fil0" d="M5598.35 2154.04c0,183.44 158.74,218.71 324.54,119.94 515.03,-303.38 1252.31,-465.65 1862.59,-292.79 253.99,70.55 398.62,194.02 515.03,116.41 49.39,-31.75 -31.75,24.69 10.58,-7.06 10.58,-10.58 7.06,-7.06 14.11,-14.11 84.66,-91.72 56.44,-194.02 -49.39,-268.1 -148.16,-98.77 -342.18,-141.11 -525.62,-179.91 -444.48,-88.19 -790.19,-74.08 -1238.2,31.75 -148.16,35.28 -377.46,119.94 -515.03,186.96 -112.87,59.98 -398.61,186.97 -398.61,306.91z"/>
    <path class="fil0" d="M49.39 9135.23c0,169.33 229.3,246.93 313.96,84.66l444.48 -1061.82c45.86,-102.3 91.72,-183.44 137.58,-285.74 7.06,-14.11 10.58,-21.17 14.11,-31.75l91.72 -176.38c14.11,-31.75 17.64,-49.39 35.28,-77.61l285.74 -578.53c0,-70.55 -176.38,-391.57 -384.51,28.22l-536.2 1086.51c-52.93,105.83 -402.16,903.08 -402.16,1012.44l0 0z"/>
    <path class="fil0" d="M12427.85 4489.33c-98.77,-52.91 -243.41,-116.41 -395.09,-116.41 -335.13,0 -426.84,299.85 -137.58,395.09 84.66,28.22 204.6,28.22 282.21,67.03 236.35,119.94 -14.11,363.35 395.09,363.35 172.85,0 141.11,-303.38 218.71,-433.9 42.33,-74.08 123.47,-88.19 201.08,-126.99 299.85,-151.69 84.66,-405.68 -70.55,-405.68 -194.02,-3.53 -370.4,172.85 -493.87,257.51l0 0z"/>
    <path class="fil0" d="M11242.57 3307.58c-165.8,-88.19 -395.09,-165.8 -589.11,-67.03 -165.8,84.66 -165.8,271.63 63.5,349.24 91.72,31.75 197.55,28.22 278.68,70.55 218.71,116.41 21.17,359.82 380.98,359.82 105.83,0 137.58,-77.61 155.22,-169.33 59.97,-306.9 42.33,-278.68 271.63,-391.57 165.8,-84.66 201.08,-229.3 77.61,-342.18 -201.09,-190.49 -479.77,84.67 -638.51,190.5z"/>
    <path class="fil0" d="M5319.67 1773.06c0,109.36 70.55,179.91 179.91,169.33 141.11,-14.11 179.91,-218.71 356.29,-363.35 190.49,-158.74 338.65,-236.35 575,-328.07 433.9,-165.8 631.45,-52.91 631.45,-321.01 0,-74.08 -109.36,-155.22 -208.13,-141.11 -275.16,38.8 -582.06,148.16 -814.88,264.57 -148.16,74.08 -257.52,144.63 -377.46,246.93 -105.83,88.19 -342.18,331.6 -342.18,472.71l0 0z"/>
    <path class="fil0" d="M18470.69 7011.59c98.77,0 176.38,-134.05 243.41,-197.55 95.25,-91.72 45.86,-148.16 -67.03,-243.41 -28.22,-24.69 -42.33,-31.75 -70.55,-63.5 -95.25,-95.25 -144.63,-67.03 -246.93,56.44 -126.99,158.74 -215.19,126.99 -17.64,321.01 21.16,24.71 130.52,127.01 158.74,127.01l0 0z"/>
    <path class="fil0" d="M19049.22 7540.74c0,74.08 49.39,105.83 126.99,179.91 31.75,31.75 119.94,112.88 162.27,112.88 70.55,0 278.68,-253.99 278.68,-275.16 0,-98.77 -253.99,-289.27 -268.1,-289.27 -105.83,0 -162.27,109.36 -239.88,183.44 -17.63,21.17 -59.96,63.5 -59.96,88.2l0 0z"/>
    <path class="fil0" d="M18209.64 7568.96c0,52.91 225.77,278.68 289.27,278.68 56.44,0 278.68,-225.77 278.68,-289.27 0,-59.97 -88.19,-119.94 -123.47,-155.22 -176.38,-176.38 -172.85,-148.16 -321.01,0 -35.28,35.28 -123.47,112.89 -123.47,165.81z"/>
    <path class="fil0" d="M19596 6715.27c0,-81.14 -134.05,-169.33 -190.49,-222.24 -35.28,-31.75 -38.8,-56.44 -98.77,-56.44 -63.5,0 -176.38,151.69 -225.77,197.55 -98.77,102.3 -45.86,123.47 70.55,239.88 179.91,176.38 158.74,162.27 352.76,-28.22 35.28,-31.76 91.72,-74.09 91.72,-130.53l0 0z"/>
    <path class="fil0" d="M18982.19 3681.5c10.58,17.64 49.39,42.33 70.55,63.5 24.69,28.22 45.86,45.86 70.55,70.55 42.33,42.33 105.83,112.88 148.16,141.11 52.91,-35.28 95.25,-98.77 141.11,-148.16 42.33,-38.8 119.94,-109.36 148.16,-151.69l-14.11 -17.64c-10.58,-14.11 -3.53,-7.06 -17.64,-21.17l-186.96 -176.38c-24.69,-24.69 -42.33,-56.44 -81.14,-63.5 -28.21,24.7 -268.09,250.47 -278.68,303.38l0 0z"/>
    <path class="fil0" d="M18142.62 3681.5c10.58,35.28 67.03,81.14 98.77,112.88l190.49 176.38c49.39,-31.75 253.99,-243.41 289.27,-296.32 -45.86,-31.75 -225.77,-229.3 -299.85,-278.68 -49.39,31.75 -84.66,91.72 -137.58,141.11 -38.8,38.81 -112.88,102.3 -141.1,144.63l0 0z"/>
    <path class="fil0" d="M18124.98 2856.04l289.27 278.68c38.8,-10.58 52.91,-38.8 81.14,-63.5l141.11 -148.16c28.22,-28.22 59.97,-45.86 70.55,-84.66 -7.06,-10.58 -275.16,-268.1 -289.27,-278.68 -70.55,49.39 -165.8,169.33 -215.19,218.71 -31.75,24.69 -59.97,45.86 -77.61,77.61l0 0z"/>
    <path class="fil0" d="M18961.03 2838.4c49.39,74.08 268.1,257.52 289.27,289.27l292.79 -285.74c-17.64,-52.91 -169.33,-172.85 -215.19,-222.24 -28.22,-28.22 -45.86,-59.97 -84.66,-70.55l-282.21 289.26 0 0z"/>
   </g>
  </g>
 </g>
</svg>
