<?xml version="1.0" encoding="UTF-8"?>
<!DOCTYPE svg PUBLIC "-//W3C//DTD SVG 1.1//EN" "http://www.w3.org/Graphics/SVG/1.1/DTD/svg11.dtd">
<!-- Creator: CorelDRAW 2019 (64-Bit) -->
<svg xmlns="http://www.w3.org/2000/svg" xml:space="preserve" width="210mm" height="111mm" version="1.1" style="shape-rendering:geometricPrecision; text-rendering:geometricPrecision; image-rendering:optimizeQuality; fill-rule:evenodd; clip-rule:evenodd"
viewBox="0 0 21000 11100"
 xmlns:xlink="http://www.w3.org/1999/xlink">
 <defs>
  <style type="text/css">
   <![CDATA[
    .fil0 {fill:#0B2027}
   ]]>
  </style>
 </defs>
 <g id="Capa_x0020_1">
  <metadata id="CorelCorpID_0Corel-Layer"/>
  <g id="_2186080198640">
   <path class="fil0" d="M17266.7 1668.01c0,-152.2 -6.83,-227.9 70.55,-371.29 43.09,-79.85 85.4,-123.77 137.33,-189.59 79.51,-100.77 223.31,-256.64 323.38,-330.61 70.56,-52.15 119.2,-85.55 201.03,-126.11 339.86,-168.42 744.78,-219.32 1130.29,-156.49 314.8,51.31 590.9,155.44 840.95,352.55 232.07,182.94 418.4,466.66 418.4,783.15l-28.86 720.04c-2.26,42.19 -8.65,40.11 -10,86.04 -3.09,105.34 -3.7,237.56 -16.32,329.33l-31.58 669.34c0.63,70.21 -9.29,104.11 -9.98,162.85 -3.23,273.95 -38.16,584.1 -38.16,854.78 0,221.29 17.71,427.04 0.51,634.1 -4,48.1 -0.67,112.95 -0.48,162.72 0.25,66.58 -8.37,99.65 -9.98,153.26 -3.22,107.16 1.6,224.6 15.4,321.29 28.32,198.43 23.59,415.49 23.46,639.02 -0.04,63.78 2.59,104.93 8.23,155 5.88,52.19 -2.52,104.92 5.24,157.97 7.39,50.44 13.85,91.61 21.23,142.05 7.63,52.2 4.69,117.23 10.84,162l71.62 907.84c9.8,93.41 24.23,208.47 27.39,308.71 2.95,94.02 23.4,204.44 28.61,297.9 5.81,104.44 20.76,208.96 28.45,307.64 29.48,378.15 94.42,667.41 -40.47,1004.62 -81.26,203.14 -215.7,326.93 -389.55,456.68 -469.89,350.69 -1113.52,470.02 -1675.82,281.56 -165,-55.3 -146.21,-48.84 -299.13,-124.38 -88.36,-43.64 -182.4,-109.48 -255.24,-168.1 -73.32,-59.02 -147.04,-141.24 -207.57,-215.59 -141.64,-173.98 -214.67,-399.48 -220.47,-631.94l24.91 -392.33c1.84,-34.14 -1.93,-71.55 -0.09,-105.69 2.3,-42.69 9.45,-46.05 10.06,-95.57 2.78,-224.3 18.89,-374.06 18.89,-624.38 0,-149.45 9.64,-264.07 9.64,-412.8 0,-982.49 28.9,-1969.46 28.9,-2947.18l-86.08 -1373.42c-5.54,-72.89 -9.18,-141.5 -17.21,-203.66l-69.51 -775.54c-5.06,-66.43 -4.61,-131.47 -14.35,-196.91 -10.16,-68.21 0.63,-136.85 -6.96,-204.25l-27.5 -404.61zm-414.33 48c0,244.31 8.35,506.34 42.93,734.82l96.03 1017.92c33.88,244.9 70.67,854.22 72.65,1050.82l38.94 796.39c-0.4,103.55 9.84,170.31 9.62,268.82 -0.56,246.72 29.24,522.34 1.39,769.41 -3.92,34.86 -1.04,78.28 -1.07,114.13 -0.05,52.77 -7.66,61.73 -10.02,105.22 -1.84,34.17 1.39,71.55 0.37,105.96l-19.59 326.09c-40.47,-29.54 -100.38,-158.09 -129.33,-207.15l-190.46 -319.04c-23.12,-38.14 -40.62,-70.94 -63.72,-109.32l-384.3 -644.31c-115.21,-191.57 -279.89,-457.64 -378.83,-640.17 -120.32,-222.02 -311.26,-517.33 -443.71,-748.32 -91.56,-159.66 -217.25,-400.11 -354.45,-510.86 -212.06,-171.16 -575.14,-107.96 -717.76,132.86 -267.24,451.29 -521.07,911.62 -792.45,1360.87l-454.01 776.46c-40.73,67.7 -72.03,126.56 -113.23,194.39l-227.05 388.19c0,165.46 251.37,446.78 504.39,-54.28 62.26,-123.3 513.22,-905.63 624.8,-1076.7 76.06,-116.61 135.87,-237.75 212.05,-355.14 74.93,-115.48 136.65,-239.32 213.89,-353.29 114.44,-168.84 213.86,-350.04 324.28,-521.71 31.51,-48.98 75.34,-130.67 124.8,-163.67 62.61,16.66 137.66,136.34 170.47,194.96l540.65 920.54c47.04,78.17 91.03,150.87 137.35,227.96l543.08 918.11c24.65,41.52 44.44,72.06 68.99,113.67 25.07,42.48 40.88,74.21 65.95,116.7 47.1,79.83 86.85,150.98 135.03,230.26l202.32 345.63c25.05,41.47 44.3,72.2 68.84,113.8 30.96,52.48 263.61,412.88 273.87,456.75 -135.69,90.52 -235.48,220.28 -349.29,333.6 -94.08,93.67 -278.07,280.8 -411.92,280.8 -106.66,0 -163.45,-43.33 -234.24,-102.63 -168.33,-141.01 -362.64,-355.95 -519.94,-518.78 -175.91,-182.07 -358.02,-405.79 -642.99,-405.79 -228.01,0 -350.62,36 -518.07,184.64 -51.43,45.66 -108.79,89.61 -152.35,145.81 -47.16,60.86 -97.41,103.34 -151.01,156.75 -95.51,95.17 -223,186.92 -289.91,306.36 -99.35,177.32 -15.07,320.04 195.96,320.04 138.41,0 321.9,-249.65 426.38,-352.8l192.52 -201.79c244.33,-240.93 367.46,-157.92 612.17,105.67 18.15,19.55 17.83,23.6 34.04,42.89l72.81 81.06c120.33,150.17 369.74,392.07 510.65,489.63 177.09,122.62 324.76,161.73 560.33,161.73 113.15,0 211.34,-40.42 286.63,-108.03 26.07,-23.41 47.64,-37.39 72.44,-62.22 87.09,-87.21 174.07,-183.55 276.88,-252.14 0,81.41 -10.2,122.39 -9.69,201.54l-16.58 309.88c-11.95,86.93 -12.27,401.95 -12.27,496.57 0,205.11 30.72,385.03 101.77,561 102.49,253.86 285.3,462.25 493.42,631.6 122.9,100.02 258.09,195.06 408.26,255.65 183.71,74.11 302.02,128.28 518.77,164.74 598.42,100.66 1297.5,-17.05 1785.63,-381.36l437.75 -456.67c204.1,-271.78 214.63,-537.66 214.63,-899.76 0,-278.77 -62.17,-851.23 -97.83,-1188.93l-133.76 -1681.12c-0.22,-171.43 -19.85,-335.5 -19,-499.46l-9.57 -643.26c0,-569.98 40.66,-1119.64 38.31,-1689.82 -0.29,-70.26 8.59,-121.9 9.49,-201.75l29.92 -402.19c4.26,-55.91 17.45,-144.67 18.82,-202.04l35.72 -617.21c15.99,-116.2 2.64,-253.28 2.64,-371.78 0,-296.65 -36.64,-545.3 -137.98,-745.72 -101.44,-200.63 -241.33,-350.74 -404.46,-489.84 -40.9,-34.87 -83.15,-60.95 -127.97,-93.3l-276.86 -165.76c-245.07,-122.08 -569.21,-233.37 -883.5,-233.37 -399.88,0 -627.48,8.84 -996.57,149.51 -399.3,152.19 -792.66,388.53 -975.58,784.82 -102.41,221.87 -157.31,463.75 -157.31,726.46z"/>
   <path class="fil0" d="M2688.04 1591.22c0,67.48 68.79,143.99 134.9,143.99 151.88,0 200.55,-76.68 282.74,-227.1 79.39,-145.32 162.97,-287.55 260.92,-421.64l146.03 -200.1c33.87,-43.08 114.82,-172.88 148.61,-197.55 102.7,68.52 333.62,446.52 406.6,554.9l293.63 485.05c67.54,124.99 135.91,250.12 193.09,383.62l121.65 262.8c44.33,94.51 75,179.27 116.46,277.57 77.33,183.36 143.06,371.84 206.69,562.07 97.64,291.93 179.29,603 255.61,906.92 85.29,339.63 202.78,988.71 217.83,1338.18 4.73,110 22.8,242.96 28.88,355.22 3.37,62.04 -2.24,129.71 -0.36,192.36 1.77,58.99 10,108.48 9.95,182.08 -0.08,138.56 -9.8,255.98 -9.64,383.99 0.64,522.36 -27.96,1011.32 -93.39,1462.14 -77.97,537.17 -200.02,1057.54 -358.25,1572.67 -31.44,102.33 -69.17,186.63 -103.55,290.44 -25.6,77.3 -200.79,509.72 -206.01,572.33 -96.62,-50.93 -190.17,-155.03 -267.35,-232.84 -46.85,-47.22 -88.98,-68.71 -134.88,-115.21l-496.49 -513.35c-69.99,-72.39 -70,-108.19 -190.11,-108.19 -44.58,0 -64.51,12.05 -92.69,32.45 -9.33,6.74 -25.32,19.76 -31.8,25.92l-152.52 174.44c-87.68,86.84 -167.42,168.08 -255.16,254.58 -26.33,25.94 -41.67,32.12 -67.84,57.21l-255.01 254.74c-26.88,26.91 -41.4,33.27 -67.73,57.32 -46.22,42.21 -72.54,106.78 -146.8,112.93 -3.63,-43.48 -21.13,-68.47 -35.03,-109.09 -270.43,-790.45 -478.55,-1297 -600.42,-2185.79 -11.5,-83.91 -25.92,-173.87 -36.21,-251.92 -35.35,-268.34 -67.15,-539.54 -69.91,-813.55 -0.55,-55.34 -10.48,-72.34 -10.23,-133.8l-9.41 -509.02c0,-225.41 16.74,-428.9 18.9,-643.57 0.54,-53.97 8.19,-89.49 9.75,-153.48l12.54 -160.31c12.72,-95.05 17.7,-202.09 31.76,-304.35 28.62,-208.07 50.3,-388.58 83.94,-588.37 45.42,-269.7 162.08,-819.95 253.71,-1091.22 71.59,-211.92 130.53,-422.43 207.45,-628.52 88.2,-236.3 182.45,-481.9 303.93,-705.19 147.33,-270.83 -141.79,-479.56 -302.11,-156.99 -43.17,86.85 -73.01,163.72 -110.46,254.75 -68.87,167.44 -153.38,331.58 -214.43,506.35 -62.87,179.94 -130.02,354.69 -181.4,539.28 -140.34,504.33 -182.08,672.97 -279.87,1170.76 -18.45,93.94 -35.35,201.11 -51.26,304.12 -8.98,58.09 -15.43,106.66 -22.8,159.68 -7.56,54.36 -19.11,104.96 -19.87,162.61l-17.8 241.46c-3.47,31.24 0.56,63.08 -1.93,94.08 -8.37,104.07 -15.75,235.79 -26.97,337.93l-31.74 515.57c-18.01,161.98 -13.52,353.98 -8.54,520.12 10.39,346.11 46.81,718.54 89.77,1062.56 90.58,725.5 274.2,1449.76 501.96,2130.29 51.8,154.78 297.3,886.81 429.96,886.81 136.22,0 208.14,-78.04 297,-155.29l36.73 -30.61c102.88,-87.63 194.87,-190.7 299.38,-277.73l265.41 -273.16c47.32,-47.15 87.58,-87.26 134.9,-134.4l142.12 -127.2c88.9,59.3 419.54,417.6 527.36,520.99l135.09 124.6c46.62,46.45 86.47,93.35 137.31,132 26.88,20.45 39.93,35.05 64.9,60.14 47.77,48 178.05,160.66 243.44,160.66l48.17 0c112.96,0 211.2,-293.63 251.8,-392.33 60.56,-147.21 124.1,-306.94 178.29,-465.56 255.15,-746.76 381.87,-1302.29 499.1,-2094.73 129.62,-876.22 117.11,-1821.08 33.49,-2691.26 -28.11,-292.46 -75.45,-597.14 -133.21,-884.88 -14.35,-71.5 -27.05,-134.73 -41.75,-208 -68.28,-340.14 -167.85,-681.11 -268.62,-1009.17 -96.26,-313.37 -219.49,-619.63 -348.32,-920.16l-80.73 -178.76c-261.98,-539.34 -417.12,-808.37 -749.14,-1288.83 -68.21,-98.71 -134.99,-204.93 -215.47,-294.12 -59.94,-66.42 -176.01,-247.34 -262.43,-247.34 -118.6,0 -198.15,114 -266.83,194.97 -110.77,130.58 -213.03,270.91 -309.4,411.73l-227.71 349.14c-50.81,84.55 -198.17,293.79 -198.17,388.16z"/>
   <path class="fil0" d="M5386.01 2954.41c0,87.4 77.11,163.2 163.8,163.2 77.46,0 281.1,-75.03 366.14,-96.02 408.62,-100.84 774.16,-182.38 1204.47,-182.38 314.1,0 645.65,22.34 956.65,74.07 556.12,92.52 989.71,284.79 1428.91,630.78l184.92 161.35c118.2,116.52 224.37,237.49 320.3,372.09 199.9,280.47 366.05,630.93 366.05,1008.1 0,200.68 -7.59,413.14 -30.64,603.07 -10.9,89.83 -39.33,326.38 -113.9,376.12 -12.23,-146.45 -225.11,-499.77 -312.39,-619.96 -34.6,-47.66 -65.21,-85.74 -100.67,-130.1 -17.11,-21.39 -33.18,-43.74 -51.73,-63.65l-303.57 -292.76c-250.91,-222.7 -597.08,-405.67 -936.22,-478.43 -271.16,-58.17 -715.59,-72.94 -985.88,-10.81 -228.76,52.58 -501.26,168.9 -690.38,310.57 -298.05,223.27 -524.08,499.11 -648.06,871.12 -41.74,125.23 -81.75,245.24 -106.16,393.44 -92.92,564.19 -42.21,1042.26 200.5,1559.8 18.8,40.08 28.53,66.49 48.2,105.58 87.04,173.05 405.13,780.34 622.51,565.79 152.77,-150.79 -79.04,-319.74 -159.97,-450.63l-150.5 -253.25c-167.35,-291.37 -260.64,-636.89 -260.64,-978.71 0,-344.62 14.5,-545.43 138.92,-869.58 52.23,-136.07 124.31,-256.89 203.95,-372.82l304.17 -282.54c279.13,-205.3 591.01,-308.65 971.74,-308.65 502.96,0 994.1,207.92 1341.75,554.39l168 178.23c279.5,345.66 391.08,610.91 494.45,1052.97 -78.17,18.14 -148.07,57.6 -240.89,57.6 -177.29,0 -398.46,-174.45 -308.8,-346.06 21.95,-42.02 77.55,-108.22 77.55,-162.74 0,-438.04 -990.76,342.76 -1138.19,-555.62 -60.81,-370.58 -457.27,8.42 -721.48,8.42 -80.33,0 -185.15,-38.08 -235.5,-72.57 -57.31,-39.24 -102.17,-109.83 -198.11,-109.83 -171.27,0 -277.66,219.19 47.61,413.37 190.44,113.69 422.77,126.69 642.44,72.52 39.26,-9.68 54.03,-14.1 87.81,-27.71 31.84,-12.83 59.86,-28.93 89.35,-35.78 40.45,83.99 29.48,141.62 137.17,256.93 209.65,224.48 538.16,352.04 845.66,280.67 0,186.81 114.89,337.69 214.26,429.73 203.7,188.68 510.86,252.78 768.79,127.28 221.23,-107.65 342.92,-332.08 427.85,-552.92 229.73,-597.43 304.27,-1391.29 24.69,-2010.37 -37.8,-83.7 -78.68,-169.82 -129.05,-245.82l-181 -270.87c-75.48,-111.41 -177.67,-200.65 -270.58,-296.82 -21.67,-22.44 -23.81,-30.83 -43.23,-52.93 -57.74,-65.71 -174.36,-154.49 -246.07,-215.63 -254.84,-217.3 -602.97,-365.07 -909.72,-485.65 -341.76,-134.34 -859.07,-246.78 -1245.82,-246.78 -510.66,0 -861.49,13.52 -1353.05,101.54 -221.36,39.64 -456.84,92.53 -651.39,186.22 -62.54,30.12 -125.02,72.04 -125.02,163.44z"/>
   <path class="fil0" d="M11282.99 9107.97c-22.61,-33.65 -37.68,-41.01 -68.88,-65.77l-220.19 -212.63c10.71,-45.77 97.71,-180.06 123.45,-222.61l390.48 -657.35c21.2,-41.7 41.98,-73.29 63.68,-109.36l386.01 -661.81c22.82,-44.18 45.29,-73.64 67.39,-115.25 58.95,39.32 237.09,336.92 287.29,414.57 102.26,158.19 229.93,389.23 329.94,554.47l452.33 787.74 -137.31 141.6c-53.53,53.24 -96.52,115.98 -142.13,146.4 -51.8,-12.02 -134.06,-104.15 -171.11,-146.31 -111.59,-127 -382.06,-400.88 -561.19,-400.88 -157.02,0 -278.17,46.79 -387.85,151.19 -32.63,31.06 -57.71,43.98 -84.34,79.16l-235.27 245.6c-37.2,28.7 -54.09,45.75 -92.3,71.24zm-1406.8 -86.4c-719.91,0 -1160.98,36.14 -1825.32,-226.22l-255.96 -119.38c-189.08,-94.18 -189.79,-106.56 -346.88,-211.2 -100.09,-66.66 -156.41,-119.15 -258.78,-75.43 -98.43,42.02 -88.1,98.24 -88.1,171.44 0,111.29 96.83,139.89 165.27,190.53l161.88 107.52c19.9,11.87 38.42,26.02 58.59,37.63 534.96,307.82 1088.92,461.11 1724.45,461.11 366.03,0 605.1,10.52 963.56,-19.2 -11.74,50.22 -414.33,691.63 -414.33,806.4 0,79.07 106.17,192 183.07,192 80,0 125.33,-10.68 195.47,-83.66 38.62,-40.19 66.07,-86.53 95.54,-135.22l255.12 -437.02c62.52,-104.7 161.2,-256.33 212,-364.78 14.18,-30.28 19.12,-56.58 31.99,-83.32 207.44,48.15 220.36,288 520.32,288l96.36 0c153.47,0 362.09,-208.87 451.37,-289.5l19.8 -18.67c5.04,-5.24 11.64,-13.32 18.11,-20.36l111.17 -119.64c13.19,-16.33 22.01,-27.14 34.46,-42.46 20.78,-25.57 20.91,-13.25 29.95,-46.97 65,5.39 144.99,95.94 185.41,141.68l110.96 129.45c14.64,16.56 27.24,27.35 43.28,43.27 187.67,186.37 269.34,223.2 537.19,223.2 196.25,0 284.09,-246.59 462.51,-288l158.23 303.15c80.94,135.08 424.76,800.85 602.98,800.85 437.71,0 10.81,-655.38 -94.47,-817.88 -25.85,-39.89 -44.82,-72.07 -71.29,-111.37l-1353.62 -2270.57c-58.08,-96.75 -174.14,-307.67 -246.41,-388.1 -64.84,-72.15 -4.35,-19.37 -90.89,-91.84 -20.45,-17.12 -30.59,-29 -52.75,-43.45 -86.07,-56.12 -115.84,-49.57 -210.4,-49.57 -166.56,0 -296.29,224.23 -366.48,345.28 -17.95,30.97 -34.07,53.11 -54.52,89.67l-738.31 1261.21c-83.88,139.46 -256.16,404 -324.56,531.04l-81.27 130.23c-38.14,64.32 -30.75,78.86 -140.33,80.99 -109.58,2.12 -275.2,19.16 -414.37,19.16z"/>
   <path class="fil0" d="M3497.43 1274.42l0 7871.95c0,230.34 346.88,252.5 346.88,-48l0 -7775.95c0,-81.63 -65.02,-172.8 -144.53,-172.8 -81.37,0 -202.35,12.87 -202.35,124.8z"/>
   <path class="fil0" d="M5597.99 2205.61c0,183.05 157.75,218.97 323.59,120.79 513.64,-304.11 1252.12,-466.75 1862.69,-292.59 253.25,72.24 398.43,192.71 514.19,116.7 48.26,-31.68 -29.99,25.53 11.2,-8.04 10.82,-8.82 7.61,-6.33 14.67,-14.19 83.92,-93.44 57.83,-194.6 -49.35,-266.57 -147.25,-98.87 -341.06,-141.74 -524.23,-178.5 -443.9,-89.09 -791.12,-73.69 -1239.4,30.79 -146.74,34.2 -379.07,119.64 -515.2,187.5 -113.38,56.52 -398.16,182.23 -398.16,304.11z"/>
   <path class="fil0" d="M47.89 9184.77c0,171.07 227.56,246.58 315.16,83.6l445.89 -1062.96c45.62,-101.17 90.64,-184.78 138.33,-284.58 6.69,-14 9.88,-22.59 14.78,-33.27l91.27 -177.86c15.77,-32.91 18.82,-48.34 36.93,-78.41l287.35 -577.7c0,-69.85 -176.67,-389.83 -385.43,28.79l-536.49 1087.88c-55.28,109.99 -407.79,906.79 -407.79,1014.51z"/>
   <path class="fil0" d="M12429.63 4538.4c-100.33,-52.89 -242.93,-115.2 -395.06,-115.2 -333.64,0 -425.92,298.16 -136.3,395 85.52,28.59 203.62,26.49 280.57,66.06 235.88,121.32 -14.81,364.54 395.32,364.54 173.42,0 142.72,-304.49 218.23,-435.38 42.12,-73.01 123.2,-89.18 199.54,-127.6 298.17,-150.09 85.43,-406.62 -70.89,-406.62 -193.9,0 -367.91,176.8 -491.41,259.2z"/>
   <path class="fil0" d="M11244.45 3357.61c-166.52,-87.79 -394.83,-165.95 -588.08,-67.51 -166.98,85.05 -164.32,270.92 63.78,349.86 90.36,31.27 198.13,27.27 277.14,69.49 220.12,117.66 20.33,358.55 382.06,358.55 106.78,0 139.05,-77.23 156.86,-170.12 58.55,-305.34 42.96,-278.64 270.47,-392.92 167.05,-83.92 200.25,-228.19 76.37,-341.99 -203.88,-187.26 -480.48,89.14 -638.6,194.64z"/>
   <path class="fil0" d="M5318.56 1821.61c0,110.67 69.25,180.4 180.02,168.89 141.06,-14.66 181.37,-219.35 355.38,-365.06 190.76,-159.74 339.58,-237.9 576.76,-327.77 435.34,-164.97 631.88,-54.52 631.88,-320.85 0,-75.47 -110.35,-153.64 -207.63,-140.49 -274.45,37.1 -580.72,149.21 -813.74,265.29 -146.65,73.05 -256.11,143.88 -378.77,246.63 -105.85,88.66 -343.9,332.37 -343.9,473.36z"/>
   <path class="fil0" d="M18471.15 7063.19c99.75,0 176.33,-134.45 243.38,-199.12 94.23,-90.87 44.33,-146.6 -67.61,-244.81 -29.23,-25.65 -43.19,-32.81 -72.14,-62.52 -93.98,-96.45 -146.34,-68.75 -246.73,56.68 -127.21,158.91 -214.46,125.4 -18.32,322.58 23.58,23.71 135.14,127.19 161.42,127.19z"/>
   <path class="fil0" d="M19049.28 7591.18c0,74.01 51.07,104.86 127.48,180.19 31.84,31.39 119.32,113.82 161.69,113.5 70.34,-0.54 279.33,-253.34 279.33,-274.49 0,-98.58 -255.23,-288 -269.8,-288 -104.91,0 -162.52,110.46 -238.55,184.73 -16.78,16.39 -60.15,58.6 -60.15,84.07z"/>
   <path class="fil0" d="M18210.99 7619.98c0,51.92 225.63,278.4 289.06,278.4 56.51,0 279.44,-226.98 279.44,-288 0,-58.34 -87.4,-120.33 -122.88,-155.98 -176,-176.82 -173.37,-148.86 -322.77,-0.02 -33.87,33.74 -122.85,111.1 -122.85,165.6z"/>
   <path class="fil0" d="M19598.51 6765.59c0,-81.76 -133.91,-170.16 -190.38,-223.13 -35.56,-33.36 -38.5,-55.27 -98.69,-55.27 -64.58,0 -177.86,150.4 -224.08,199.15 -97.8,103.15 -46.07,122.09 72.32,240.05 178.71,178.04 159.14,162.9 351.7,-28.8 32.52,-32.38 89.13,-74.2 89.13,-132z"/>
   <path class="fil0" d="M18981.83 3732c12.19,16.58 49.04,43.76 69.9,64.76 26.32,26.49 45.79,45.71 72.23,72.04 40.85,40.7 104.26,113.13 146.94,141.6 54.36,-36.27 93.75,-98.84 142.08,-146.44 40.62,-40 119.21,-109.83 146.99,-151.16l-12.97 -15.88c-11.65,-13.32 -4.77,-7.37 -18.77,-19.7l-187.47 -178.02c-25.45,-25.42 -42.25,-54.89 -79.5,-64.79 -27.45,18.31 -266.87,243.9 -279.43,297.59z"/>
   <path class="fil0" d="M18143.54 3732c9.08,33.89 66.02,82.09 99.23,112.34l189.83 175.66c50.12,-33.44 253.56,-244.76 289.07,-297.6 -46.68,-31.14 -224.63,-228.98 -298.7,-278.39 -48.33,32.24 -85.53,90.18 -137.31,141.6 -40.74,40.45 -113.69,104.08 -142.12,146.39z"/>
   <path class="fil0" d="M18124.26 2906.41l289.07 278.4c37.25,-9.91 54.05,-39.38 79.5,-64.8l139.57 -148.94c26.8,-26.54 59.62,-45.15 70,-83.86 -6.96,-10.35 -274.95,-268.98 -289.07,-278.4 -72.21,48.18 -164.78,168.84 -214.2,218.59 -27.34,27.52 -54.12,48.14 -74.87,79.01z"/>
   <path class="fil0" d="M18962.56 2887.21c48.94,72.81 268.47,257.35 289.07,288l291.44 -285.64c-16.32,-52.29 -170.14,-174.17 -216.77,-220.76 -26.54,-26.52 -45.59,-59.3 -84.31,-69.6l-279.43 288z"/>
  </g>
 </g>
</svg>
