<?xml version="1.0" encoding="UTF-8"?>
<!DOCTYPE svg PUBLIC "-//W3C//DTD SVG 1.1//EN" "http://www.w3.org/Graphics/SVG/1.1/DTD/svg11.dtd">
<!-- Creator: CorelDRAW 2019 (64-Bit) -->
<svg xmlns="http://www.w3.org/2000/svg" xml:space="preserve" width="188mm" height="188mm" version="1.1" style="shape-rendering:geometricPrecision; text-rendering:geometricPrecision; image-rendering:optimizeQuality; fill-rule:evenodd; clip-rule:evenodd"
viewBox="0 0 18800 18800"
 xmlns:xlink="http://www.w3.org/1999/xlink">
 <defs>
  <style type="text/css">
   <![CDATA[
    .fil0 {fill:#20FC8F}
   ]]>
  </style>
 </defs>
 <g id="Capa_x0020_1">
  <metadata id="CorelCorpID_0Corel-Layer"/>
  <path class="fil0" d="M7706.73 198.91c576.04,-288.02 1276.04,-54.69 1564.06,521.35l911.45 1822.92 1545.83 309.9c710.94,142.19 1378.13,448.44 1950.52,893.23l4597.4 3576.56c510.42,397.4 601.56,1130.21 204.17,1636.98 -397.39,506.76 -1130.21,601.55 -1636.98,204.17l-2628.65 -2045.31 -2606.77 1159.38 1206.77 1006.25c845.83,703.64 1221.35,1822.91 973.44,2894.78l-634.38 2741.67c-80.21,342.71 -298.96,612.5 -586.98,765.63l3153.65 1206.77c167.71,65.63 342.71,94.79 521.35,94.79l1028.13 -0.01c484.9,0 875,390.1 875,875 0,484.9 -390.1,875 -875,875l-1028.12 0c-393.75,0 -780.21,-72.92 -1148.44,-211.46l-12840.62 -4914.58c-419.27,-160.42 -802.08,-408.33 -1122.92,-729.17l-813.02 -813.02c-342.71,-342.71 -342.71,-896.88 0,-1235.94 342.71,-339.06 896.88,-342.71 1235.94,0l816.67 816.67c145.83,145.83 317.19,258.85 510.42,331.77l816.67 313.54c-29.17,-58.33 -54.69,-116.67 -76.56,-178.65 -204.17,-612.5 127.6,-1272.4 736.46,-1476.56l2705.2 -907.81 0 -1939.57c0,-882.29 499.48,-1691.67 1290.63,-2085.42l1647.91 -823.96 -273.44 -54.69c-707.28,-142.19 -1308.84,-601.56 -1629.68,-1243.23l-911.46 -1822.92c-288.02,-576.04 -54.69,-1276.04 521.35,-1564.06zm-2577.61 12640.1l5796.87 2220.31c-76.56,-204.17 -94.79,-433.85 -40.1,-663.54l634.38 -2741.67c51.04,-215.1 -25.52,-437.5 -196.88,-579.69l-1925 -1604.17 0 685.42c0,754.69 -481.24,1421.88 -1195.82,1658.85l-3073.45 1024.49zm10682.29 -9264.05c-966.15,0 -1750,-783.85 -1750,-1750 0,-966.15 783.85,-1750 1750,-1750 966.15,0 1750,783.85 1750,1750 0,966.15 -783.85,1750 -1750,1750z"/>
 </g>
</svg>
