<?xml version="1.0" encoding="UTF-8"?>
<!DOCTYPE svg PUBLIC "-//W3C//DTD SVG 1.1//EN" "http://www.w3.org/Graphics/SVG/1.1/DTD/svg11.dtd">
<!-- Creator: CorelDRAW 2019 (64-Bit) -->
<svg xmlns="http://www.w3.org/2000/svg" xml:space="preserve" width="58mm" height="46mm" version="1.1" style="shape-rendering:geometricPrecision; text-rendering:geometricPrecision; image-rendering:optimizeQuality; fill-rule:evenodd; clip-rule:evenodd"
viewBox="0 0 5800 4600"
 xmlns:xlink="http://www.w3.org/1999/xlink">
 <defs>
  <style type="text/css">
   <![CDATA[
    .str0 {stroke:#20FC8F;stroke-width:35.28;stroke-miterlimit:22.9256}
    .fil0 {fill:#20FC8F}
   ]]>
  </style>
 </defs>
 <g id="Capa_x0020_1">
  <metadata id="CorelCorpID_0Corel-Layer"/>
  <g id="_2100723914704">
   <path class="fil0 str0" d="M4635.39 321.9c167.03,19.52 325.14,107.26 437.81,196.87 338.74,269.42 532.22,827.9 294.21,1206.37 -96.72,153.8 -217.04,180.61 -329.73,255.35l-719.41 388.33 -1406.58 841.07 -1334.12 955.81c-117.07,73.49 -199.29,140.85 -407,117.45 -619.65,-69.8 -1058.03,-888.01 -740.22,-1406.58 46.44,-75.79 92.11,-113.72 154.14,-151.44 237.33,-144.31 409.15,-219.49 627.13,-343.1 118.07,-66.95 350.95,-174.62 451.68,-239.3 34.27,-22 57.65,-29.15 89.27,-49.8 39.17,-25.58 51.52,-30.99 89.23,-49.66l357.09 -211.62c210.75,-126.68 904.73,-570.7 1110.5,-737.86 31.19,-25.35 48.03,-33.97 84.56,-56.38l409.18 -306.89c150.39,-100.8 253.29,-191.41 417.49,-293.31 124.08,-77 197.09,-140.75 414.77,-115.31zm988.35 1378.55c72.53,-178.26 76.78,-380.37 50.64,-553.44 -93.13,-616.75 -738.69,-1243.83 -1415.14,-990.28 -69.99,26.23 -132.91,82.46 -193.78,116.26 -43.84,24.35 -53.82,33.36 -89.97,61.57 -31.3,24.43 -58.83,37.58 -89.6,62.38l-364.53 268.8c-58.04,39.95 -120.07,97.92 -180.29,137.26 -35.43,23.14 -47.39,36.09 -88.68,63.95l-554.74 390.36c-32.79,22.09 -60.98,32.7 -93.8,55.56l-373 241.48c-67.35,42.3 -123.96,69.76 -191.42,119.77 -59.71,44.25 -130.33,72.85 -196.75,111.39l-787.15 430.63c-207.26,117.57 -355.2,175.98 -588.95,321.7 -116.4,72.55 -227.06,187.75 -294.93,365.34 -252.23,659.98 225,1411.29 843.32,1573.76 188.18,49.44 378.29,36.42 515.72,-29.98 189.46,-91.54 585.71,-389.87 739.32,-507l269.51 -200.73c39.47,-26.32 54.27,-43.77 87.69,-65.86 43.57,-28.8 57.52,-39.38 94.95,-68.14l463.53 -315.72c75.57,-40.31 119.76,-73.42 185.2,-115.59l382.92 -238.91c66.78,-42.19 120.72,-64.65 195.84,-112.37 181.43,-115.27 341.25,-182.22 492.85,-270.28l296.01 -158.24c65.83,-30.32 131.03,-68.49 194.92,-100.84l392.22 -223.98c123.61,-79.03 221.54,-180.7 298.09,-368.85z"/>
   <polygon class="fil0 str0" points="3910.02,1342.57 3904.05,1390.84 4119.66,1435.92 4162.98,1220.28 3948.63,1172.56 "/>
   <polygon class="fil0 str0" points="3515.64,1590.85 3509.68,1639.12 3725.29,1684.21 3768.6,1468.56 3554.25,1420.85 "/>
   <polygon class="fil0 str0" points="4167.44,1696.77 4150.51,1784.71 4332.71,1822.24 4367.83,1830.52 4411.27,1614.79 4196.89,1567.01 "/>
   <polygon class="fil0 str0" points="3773.06,1945.06 3756.14,2032.99 3938.34,2070.52 3973.46,2078.8 4016.89,1863.07 3802.52,1815.29 "/>
   <polygon class="fil0 str0" points="2060.43,2542.96 2272.15,2593 2322.29,2381.06 2110.56,2331.02 "/>
   <polygon class="fil0 str0" points="1666.05,2791.24 1877.78,2841.29 1927.91,2629.35 1716.18,2579.3 "/>
   <polygon class="fil0 str0" points="1914.33,3185.34 2125.95,3235.58 2176.14,3023.97 1964.56,2973.82 "/>
   <polygon class="fil0 str0" points="2308.7,2937.06 2520.32,2987.29 2570.51,2775.69 2358.94,2725.54 "/>
  </g>
 </g>
</svg>
