<?xml version="1.0" encoding="UTF-8"?>
<!DOCTYPE svg PUBLIC "-//W3C//DTD SVG 1.1//EN" "http://www.w3.org/Graphics/SVG/1.1/DTD/svg11.dtd">
<!-- Creator: CorelDRAW 2019 (64-Bit) -->
<svg xmlns="http://www.w3.org/2000/svg" xml:space="preserve" width="50mm" height="50mm" version="1.1" style="shape-rendering:geometricPrecision; text-rendering:geometricPrecision; image-rendering:optimizeQuality; fill-rule:evenodd; clip-rule:evenodd"
viewBox="0 0 5000 5000"
 xmlns:xlink="http://www.w3.org/1999/xlink">
 <defs>
  <style type="text/css">
   <![CDATA[
    .str0 {stroke:#20FC8F;stroke-width:35.28;stroke-miterlimit:22.9256}
    .fil0 {fill:#20FC8F}
   ]]>
  </style>
 </defs>
 <g id="Capa_x0020_1">
  <metadata id="CorelCorpID_0Corel-Layer"/>
  <g id="_1759082126352">
   <path class="fil0 str0" d="M3672.76 332.49c157,-16.89 320.04,30.54 441.86,89.14 366.25,176.19 659.67,647.3 520.52,1043.4 -56.55,160.96 -161.15,210.55 -248.78,302.45l-577.91 505.33 -1112.88 1062.92 -1022.66 1152.91c-91.91,91.66 -153.17,170.46 -348.23,192.27 -581.93,65.07 -1153.66,-592.89 -970.59,-1133.89 26.76,-79.06 60.67,-123.3 109.62,-170.75 187.28,-181.54 328.96,-286.15 502.83,-444.71 94.17,-85.88 285,-232.94 363.78,-313.13 26.8,-27.28 46.71,-38.7 71.37,-64.19 30.55,-31.58 40.73,-39.09 71.37,-64.04l282.93 -268.11c166.61,-159.86 709.64,-710.89 863.26,-906.79 23.28,-29.7 36.91,-41.1 65.69,-69.22l310.8 -366.19c116.72,-123.6 192.08,-227.99 321.22,-355.47 97.59,-96.33 151.18,-169.91 355.8,-191.93zm1191.94 1056.57c29.31,-178.32 -8.87,-364.27 -68.82,-517.31 -213.66,-545.35 -935.31,-985.18 -1501.93,-612.2 -58.64,38.59 -104.54,103.17 -153.25,146.8 -35.07,31.41 -42.33,41.74 -69.56,75.1 -23.58,28.89 -46.04,46.66 -69.05,75.77l-277.85 322.01c-44.83,48.66 -89.56,114.65 -136.51,163.21 -27.63,28.56 -35.89,42.92 -67.89,77.01l-426.71 472.91c-25.42,27.06 -49.02,42.64 -74.32,70.41l-291.28 298.76c-52.87,52.75 -98.98,89.68 -150.35,149.51 -45.46,52.95 -104.17,93.83 -156.96,142.95l-631.13 558.17c-165.32,150.79 -288.63,235.07 -472.33,417.16 -91.48,90.66 -168.83,219.18 -194.01,395.91 -93.58,656.84 499.79,1245.45 1099.79,1265.51 182.59,6.1 353.97,-45.39 465.98,-134.8 154.43,-123.26 455.17,-478.91 571.44,-618.14l205.01 -239.9c30.65,-32.31 40.57,-51.37 66.58,-78.56 33.9,-35.44 44.48,-48.03 72.76,-82.16l358.72 -385.58c60.81,-52.63 94.38,-92.16 145.52,-144.39l300.9 -298.47c52.36,-52.53 97.08,-84.33 155.93,-143.66 142.14,-143.31 274.55,-237.89 395.03,-350.07l238.11 -206.51c53.97,-41.47 105.72,-89.99 157.49,-132.91l312.52 -286.74c96.74,-98.09 165.24,-211.57 196.17,-399.79z"/>
   <polygon class="fil0 str0" points="3221.01,1418.07 3225.59,1463.52 3432.41,1459.92 3427.18,1253.45 3220.98,1254.37 "/>
   <polygon class="fil0 str0" points="2911.58,1727.51 2916.16,1772.95 3122.97,1769.36 3117.75,1562.88 2911.54,1563.81 "/>
   <polygon class="fil0 str0" points="3530.45,1688.83 3533.26,1772.87 3707.9,1769.31 3741.79,1769.59 3736.65,1563 3530.41,1563.88 "/>
   <polygon class="fil0 str0" points="3221.02,1998.26 3223.82,2082.31 3398.47,2078.74 3432.35,2079.02 3427.22,1872.44 3220.98,1873.31 "/>
   <polygon class="fil0 str0" points="1777.26,2902.24 1981.55,2903.99 1983.34,2699.49 1779.05,2697.74 "/>
   <polygon class="fil0 str0" points="1467.83,3211.67 1672.12,3213.43 1673.9,3008.92 1469.61,3007.17 "/>
   <polygon class="fil0 str0" points="1777.2,3520.86 1981.43,3522.81 1983.34,3318.6 1779.17,3316.72 "/>
   <polygon class="fil0 str0" points="2086.63,3211.43 2290.87,3213.37 2292.78,3009.17 2088.6,3007.28 "/>
  </g>
 </g>
</svg>
