<?xml version="1.0" encoding="UTF-8"?>
<!DOCTYPE svg PUBLIC "-//W3C//DTD SVG 1.1//EN" "http://www.w3.org/Graphics/SVG/1.1/DTD/svg11.dtd">
<!-- Creator: CorelDRAW 2019 (64-Bit) -->
<svg xmlns="http://www.w3.org/2000/svg" xml:space="preserve" width="43mm" height="43mm" version="1.1" style="shape-rendering:geometricPrecision; text-rendering:geometricPrecision; image-rendering:optimizeQuality; fill-rule:evenodd; clip-rule:evenodd"
viewBox="0 0 4300 4300"
 xmlns:xlink="http://www.w3.org/1999/xlink">
 <defs>
  <style type="text/css">
   <![CDATA[
    .str0 {stroke:#20FC8F;stroke-width:105.83;stroke-miterlimit:22.9256}
    .fil0 {fill:#20FC8F}
   ]]>
  </style>
 </defs>
 <g id="Capa_x0020_1">
  <metadata id="CorelCorpID_0Corel-Layer"/>
  <g id="_1759073595536">
   <path class="fil0 str0" d="M3094.12 2329l-66.97 76.33c-567.63,643.82 -1364.33,1168.52 -2150.33,1566.44l-125.94 62.79c-34.8,17.65 -25.56,13.54 -30.38,7.84 -12.98,-17.8 -32.25,-239.47 -36.57,-282.19 -3.77,-37.29 -0.84,-41.22 18.66,-60.41l195.92 -193.48c93.42,-97.97 -132.2,-188.96 -159.29,-271.51 12.63,-24.08 30.31,-33.18 52.19,-49.85 271.67,-206.94 476.42,-91.79 537.65,-116.92 28.29,-11.62 1788.43,-1782.27 1950.7,-1944.82 38.83,-38.9 749.84,-761.59 778.17,-770.2 -23.66,184.77 -94.45,424.7 -150.03,586.34 -120.8,351.29 -290.9,685.18 -495.51,978.98 -54.66,78.49 -256.92,357.13 -318.27,410.66zm-1689.5 -545.89l62.16 -73.42c0.67,-2.44 3.06,-2.09 4.58,-3.14 85.5,-84.73 154.8,-168.67 238.48,-251.46 83.8,-82.89 166.19,-158.85 255.9,-237.06 362.77,-316.26 754,-566.44 1214.17,-752.79 198.27,-80.29 552.47,-192.12 766.72,-217.35 -6.47,26.26 -19.6,32.05 -37.89,50.19l-2624.34 2626.35c-58.44,1.64 -113.33,-9.43 -177.46,-5.75 -145.32,8.35 -287.59,67.21 -392.98,150.47 -47.25,37.32 -179.88,129.03 -141.77,201.06 27.52,52.01 152.93,136.65 177.02,186.28 -199.38,203.53 -133.39,173.02 -342.57,147.43 -50.48,-6.17 -103.21,-13.73 -152.76,-16.6 15.38,-54.72 223.36,-442.2 251.99,-493.21 91.74,-163.44 185.15,-311.03 275.51,-464.37 91.91,-155.98 473.3,-694.28 623.24,-846.63zm-961.66 1964.25c33.01,0.28 77.99,2.45 103.47,14.17l4.22 40.89c-2.39,52.51 17.59,172.71 24.34,231.64 8.68,75.83 0.31,176.66 66.96,191.6 77.75,17.42 924.45,-470.84 1009.68,-524.29 107.53,-67.44 214.44,-131.06 315.64,-204.46 45.81,-33.22 103.44,-73.51 152.52,-106.3 260.61,-174.11 612.51,-479.12 834.59,-703.9 586.73,-593.85 1025.56,-1299.07 1207.3,-2134.61 14.5,-66.65 81.17,-398.21 61.74,-440.68 -27.64,-60.43 -132.97,-30.1 -204.5,-18.93 -72.03,11.26 -144.97,25.19 -216.58,39.58 -893.99,179.69 -1684.21,684.39 -2282.1,1315.26 -540.52,570.35 -996.05,1265.8 -1354.69,1995.32 -104.48,212.53 -161.32,257.09 49.13,280.81 64.71,7.29 167.1,24.32 228.28,23.9z"/>
   <path class="fil0 str0" d="M550.65 3802.42l-4.22 -40.89c-25.48,-11.72 -70.46,-13.89 -103.47,-14.17 3.83,2.26 2.12,3.37 15.27,7.48 3.48,1.09 7.35,1.75 11.15,2.4 5.97,1.03 14.79,0.85 21.82,1.4 16.91,1.33 29.78,3.13 45.15,6.85 10.12,20.88 0.18,12.69 14.3,36.93z"/>
   <path class="fil0 str0" d="M1404.62 1783.11c1.58,-1.04 4.07,-4.32 4.77,-3.03l61.97 -73.53c-1.52,1.05 -3.91,0.7 -4.58,3.14l-62.16 73.42z"/>
   <path class="fil0 str0" d="M3027.15 2405.33l66.97 -76.33c-1.54,1.1 -3.92,0.79 -4.62,3.32l-14.66 14.07c-6.29,7.37 -8.07,10.95 -14.1,18.72l-33.59 40.22z"/>
  </g>
 </g>
</svg>
