<?xml version="1.0" encoding="UTF-8"?>
<!DOCTYPE svg PUBLIC "-//W3C//DTD SVG 1.1//EN" "http://www.w3.org/Graphics/SVG/1.1/DTD/svg11.dtd">
<!-- Creator: CorelDRAW 2019 (64-Bit) -->
<svg xmlns="http://www.w3.org/2000/svg" xml:space="preserve" width="68mm" height="68mm" version="1.1" style="shape-rendering:geometricPrecision; text-rendering:geometricPrecision; image-rendering:optimizeQuality; fill-rule:evenodd; clip-rule:evenodd"
viewBox="0 0 6800 6800"
 xmlns:xlink="http://www.w3.org/1999/xlink">
 <defs>
  <style type="text/css">
   <![CDATA[
    .fil0 {fill:#20FC8F}
   ]]>
  </style>
 </defs>
 <g id="Capa_x0020_1">
  <metadata id="CorelCorpID_0Corel-Layer"/>
  <g id="_2186083752000">
   <path class="fil0" d="M2809.58 2527.91c-60.59,957 -424.75,1277.64 272.53,1866.05 849.52,716.88 634.54,334.18 738.81,1691.71 16.15,210.3 13.56,338.96 145.74,458.84 106.21,96.32 282.73,145.65 441.64,55.43 289.61,-164.44 169.78,-618.78 143.66,-1002.22 -101.69,-1493.18 -105.57,-911.64 -780.76,-1646.23 -258.41,-281.14 282.94,-1608.29 115.86,-2054.16 -263.07,-702.05 -1073.65,-101.68 -1604.09,176.88 -271.64,142.65 -294.85,416.29 -409.88,790.49 -90.58,294.68 -301.15,701.1 -76.08,910.33 117.45,109.19 319.29,95.76 423.3,0.68 103.08,-94.23 258.1,-710.2 312.54,-888.4 76.73,-251.2 43.09,-266.01 276.73,-359.4z"/>
   <path class="fil0" d="M3995.68 2832.93l-125.31 1005.82c175.66,88.61 296.12,210.83 438.84,351.55 420.48,414.57 164.41,174.77 362.62,444.89 507.07,-1.74 1203.93,-127.63 1642.89,-363.62 525.44,-282.48 560.75,-440.49 11.86,-863.98 -454.65,-350.78 -1589.54,-693.01 -2157.25,-704.68l-141.7 -13.37 -31.95 143.39z"/>
   <path class="fil0" d="M2378.77 4471.81c207.3,-336.95 121.77,-522.08 99.91,-720.97 -109.5,117.79 -212.46,281.6 -453.65,291.69 -911.56,38.14 -312.96,-1241.1 -267.14,-1456.52 -423.58,36.63 -890.33,73.62 -1288.26,173.45 -213.24,53.5 -322.62,126.37 -359.12,349.45 -31.22,190.91 -84.36,516.26 30.66,663.4 211.6,270.66 1758.01,654.5 2237.6,699.5z"/>
   <path class="fil0" d="M3279.21 4766.53c-123.56,-56.02 -543.82,-396.41 -604.7,-497.16 -140.23,283.88 -266.19,797.95 -379.72,1132.88 -110.98,327.41 -391.2,901.97 -127.76,1142.49 143.1,130.64 388.94,128.96 522.64,-7.11 131.95,-134.31 579.63,-1634.18 589.54,-1771.1z"/>
   <path class="fil0" d="M3521.67 187.67c-287.19,80.82 -540.93,381.39 -426.01,769.22 84.48,285.11 390.57,501.7 762.39,398.93 677.23,-187.19 491.02,-1400.97 -336.38,-1168.15z"/>
   <path class="fil0" d="M3995.68 2832.93l31.95 -143.39 141.7 13.37c-13.28,-15.45 31.31,-28.37 -66.73,-31.83 -73.48,-2.59 -58.08,9.28 -74.97,18.46l-31.95 143.39z"/>
  </g>
 </g>
</svg>
