<?xml version="1.0" encoding="UTF-8"?>
<!DOCTYPE svg PUBLIC "-//W3C//DTD SVG 1.1//EN" "http://www.w3.org/Graphics/SVG/1.1/DTD/svg11.dtd">
<!-- Creator: CorelDRAW 2019 (64-Bit) -->
<svg xmlns="http://www.w3.org/2000/svg" xml:space="preserve" width="58mm" height="46mm" version="1.1" style="shape-rendering:geometricPrecision; text-rendering:geometricPrecision; image-rendering:optimizeQuality; fill-rule:evenodd; clip-rule:evenodd"
viewBox="0 0 5800 4600"
 xmlns:xlink="http://www.w3.org/1999/xlink">
 <defs>
  <style type="text/css">
   <![CDATA[
    .str0 {stroke:#20FC8F;stroke-width:105.83;stroke-miterlimit:22.9256}
    .fil0 {fill:#20FC8F}
   ]]>
  </style>
 </defs>
 <g id="Capa_x0020_1">
  <metadata id="CorelCorpID_0Corel-Layer"/>
  <g id="_2074675311136">
   <path class="fil0 str0" d="M4013.52 2502.84l-70.79 80.69c-600.12,680.67 -1442.41,1235.4 -2273.39,1656.09l-133.15 66.38c-36.79,18.65 -27.03,14.31 -32.11,8.28 -13.73,-18.81 -34.1,-253.17 -38.67,-298.33 -3.99,-39.43 -0.89,-43.58 19.73,-63.86l207.13 -204.56c98.76,-103.58 -139.77,-199.77 -168.41,-287.05 13.35,-25.46 32.05,-35.08 55.18,-52.7 287.22,-218.79 503.69,-97.05 568.41,-123.62 29.91,-12.28 1890.78,-1884.26 2062.34,-2056.11 41.05,-41.13 792.74,-805.17 822.7,-814.28 -25.01,195.36 -99.86,449.02 -158.62,619.9 -127.71,371.4 -307.55,724.39 -523.86,1035 -57.79,82.99 -271.62,377.58 -336.49,434.17zm-1786.17 -577.14l65.7 -77.62c0.72,-2.58 3.24,-2.21 4.85,-3.31 90.39,-89.58 163.66,-178.33 252.13,-265.85 88.59,-87.64 175.7,-167.95 270.54,-250.63 383.53,-334.36 797.15,-598.86 1283.65,-795.86 209.62,-84.89 584.09,-203.13 810.6,-229.8 -6.85,27.76 -20.72,33.89 -40.06,53.06l-2774.52 2776.65c-61.79,1.73 -119.81,-9.97 -187.61,-6.08 -153.64,8.83 -304.05,71.05 -415.48,159.08 -49.94,39.46 -190.17,136.41 -149.87,212.57 29.08,54.98 161.67,144.46 187.15,196.94 -210.79,215.18 -141.03,182.92 -362.17,155.87 -53.38,-6.53 -109.12,-14.52 -161.51,-17.56 16.26,-57.85 236.14,-467.5 266.41,-521.43 96.99,-172.79 195.75,-328.83 291.28,-490.95 97.17,-164.9 500.37,-734 658.91,-895.08zm-1016.7 2076.67c34.9,0.29 82.46,2.59 109.39,14.98l4.46 43.22c-2.52,55.52 18.6,182.6 25.73,244.9 9.18,80.17 0.33,186.77 70.8,202.56 82.2,18.42 977.35,-497.78 1067.46,-554.29 113.67,-71.3 226.71,-138.56 333.69,-216.16 48.44,-35.12 109.37,-77.72 161.25,-112.38 275.53,-184.08 647.57,-506.54 882.36,-744.19 620.3,-627.83 1084.25,-1373.4 1276.39,-2256.76 15.33,-70.46 85.81,-421 65.27,-465.89 -29.23,-63.89 -140.59,-31.83 -216.2,-20.01 -76.16,11.9 -153.27,26.62 -228.98,41.84 -945.15,189.97 -1780.59,723.55 -2412.69,1390.52 -571.45,602.99 -1053.05,1338.24 -1432.22,2109.51 -110.46,224.69 -170.55,271.8 51.95,296.87 68.41,7.71 176.66,25.71 241.34,25.28z"/>
   <path class="fil0 str0" d="M1324.5 4060.57l-4.46 -43.22c-26.93,-12.39 -74.49,-14.69 -109.39,-14.98 4.05,2.38 2.24,3.56 16.14,7.9 3.68,1.15 7.77,1.85 11.79,2.54 6.31,1.09 15.64,0.89 23.07,1.48 17.87,1.41 31.48,3.3 47.73,7.24 10.7,22.08 0.19,13.41 15.12,39.04z"/>
   <path class="fil0 str0" d="M2227.35 1925.7c1.66,-1.09 4.29,-4.56 5.04,-3.19l65.51 -77.74c-1.61,1.1 -4.13,0.73 -4.85,3.31l-65.7 77.62z"/>
   <path class="fil0 str0" d="M3942.73 2583.53l70.79 -80.69c-1.62,1.16 -4.14,0.84 -4.88,3.5l-15.5 14.88c-6.65,7.79 -8.54,11.58 -14.9,19.79l-35.51 42.52z"/>
  </g>
 </g>
</svg>
