<?xml version="1.0" encoding="UTF-8"?>
<!DOCTYPE svg PUBLIC "-//W3C//DTD SVG 1.1//EN" "http://www.w3.org/Graphics/SVG/1.1/DTD/svg11.dtd">
<!-- Creator: CorelDRAW 2019 (64-Bit) -->
<svg xmlns="http://www.w3.org/2000/svg" xml:space="preserve" width="152mm" height="101mm" version="1.1" style="shape-rendering:geometricPrecision; text-rendering:geometricPrecision; image-rendering:optimizeQuality; fill-rule:evenodd; clip-rule:evenodd"
viewBox="0 0 15200 10100"
 xmlns:xlink="http://www.w3.org/1999/xlink">
 <defs>
  <style type="text/css">
   <![CDATA[
    .fil0 {fill:#20FC8F}
   ]]>
  </style>
 </defs>
 <g id="Capa_x0020_1">
  <metadata id="CorelCorpID_0Corel-Layer"/>
  <path class="fil0" d="M1778.18 67.09c-916.97,0 -1662.5,745.53 -1662.5,1662.5l0 2078.13c688.38,0 1246.88,558.5 1246.88,1246.88 0,688.38 -558.5,1246.88 -1246.88,1246.88l0 2078.13c0,916.97 745.53,1662.5 1662.5,1662.5l11637.5 -0.02c916.97,0 1662.5,-745.53 1662.5,-1662.5l0 -2078.12c-688.38,0 -1246.88,-558.5 -1246.88,-1246.88 0,-688.38 558.5,-1246.88 1246.88,-1246.88l0 -2078.12c0,-916.97 -745.53,-1662.5 -1662.5,-1662.5l-11637.5 0zm1662.5 2493.75l0 4987.5 8312.5 0 0 -4987.5 -8312.5 0zm-831.25 0c0,-459.79 371.46,-831.25 831.25,-831.25l8312.5 0c459.79,0 831.25,371.46 831.25,831.25l0 4987.5c0,459.79 -371.46,831.25 -831.25,831.25l-8312.5 0c-459.79,0 -831.25,-371.46 -831.25,-831.25l0 -4987.5z"/>
 </g>
</svg>
