<?xml version="1.0" encoding="UTF-8"?>
<!DOCTYPE svg PUBLIC "-//W3C//DTD SVG 1.1//EN" "http://www.w3.org/Graphics/SVG/1.1/DTD/svg11.dtd">
<!-- Creator: CorelDRAW 2019 (64-Bit) -->
<svg xmlns="http://www.w3.org/2000/svg" xml:space="preserve" width="46mm" height="30mm" version="1.1" style="shape-rendering:geometricPrecision; text-rendering:geometricPrecision; image-rendering:optimizeQuality; fill-rule:evenodd; clip-rule:evenodd"
viewBox="0 0 4600 3000"
 xmlns:xlink="http://www.w3.org/1999/xlink">
 <defs>
  <style type="text/css">
   <![CDATA[
    .fil0 {fill:#20FC8F}
   ]]>
  </style>
 </defs>
 <g id="Capa_x0020_1">
  <metadata id="CorelCorpID_0Corel-Layer"/>
  <g id="_1759010439024">
   <path class="fil0" d="M1588.68 2758.52c-38.98,-53.52 -40.89,-84.43 -104.9,-134.95 -117.91,-93.06 -314.96,-87.89 -425.77,51.05 -82.25,103.14 20.79,86.89 -247.37,87.39 -99.13,0.19 -189.86,0.09 -289.05,0.02 -49.14,-0.03 -88.84,-0.02 -138.42,0.46 -189.21,1.86 -149.54,-200.97 -149.37,-357.87l-0.12 -1992.88c0.44,-154.2 99.28,-157.55 203.85,-157.79l571.1 2.1c68.57,110.09 101.9,171.04 229.61,194.94 75.69,14.16 178.35,4.43 265.79,-74.01 171.97,-154.26 -75.72,-124.07 498.92,-123.59l2137.34 0.37c270.99,0.04 226.82,84.83 226.23,393.11l-0.12 1601.47c0.14,91.09 0.14,173.9 -0.02,264.99 -0.52,290 -68.39,247.9 -370.71,248.87 -93.03,0.3 -177.98,0.21 -271.05,-0.05 -610.82,-1.66 -1259.88,8.06 -1866.45,-0.21 -90.28,-1.23 -181.23,1.54 -269.49,-3.42zm-1505.09 -2565.3c-91.92,146.15 -66.17,268.67 -66.7,453.24 -1.75,599.15 5.51,1210.15 -0.16,1806.27 -1.28,134.25 -33.32,309.01 140.26,448.75 121.4,97.74 335.85,72.99 448.89,72.79 153.54,-0.28 298.03,0.07 451.53,0.43 160.01,0.39 126.18,-103.33 151.87,-149.58 52.2,-93.94 166.15,-61.6 183.11,48.98 18.41,120.09 132.42,100.21 194.84,100.48l2486.64 0.2c126.84,-0.08 315.77,25.15 441.46,-155.5 85.86,-123.4 61.6,-290.1 62.27,-450.44l0.26 -1354.75c-0.31,-153.45 -0.63,-298.12 0.02,-451.51 0.55,-131.49 32.27,-310.32 -139.07,-448.79 -121.72,-98.37 -335.5,-74.25 -449,-74.25l-2257.8 -0.45c-72.22,-0.27 -152.45,-4.49 -222.74,0.78 -144.95,10.87 -71.03,123.12 -155.16,186.69 -34.13,25.79 -77.51,28.44 -111.86,0.24 -52.24,-42.88 -29.08,-74.88 -46.12,-116.09 -38.87,-94.04 -168.99,-69.87 -222.75,-69.67 -153.28,0.55 -298.18,-0.27 -451.57,-0.79 -119.55,-0.41 -326.49,-24.66 -438.22,152.97z"/>
   <path class="fil0" d="M1907.05 1892.47c-13.21,38.15 -3.17,90.63 47.31,121.89 44.86,27.77 325.58,15.74 385.65,15.94l1294.35 0.07c59,0.04 211,26.96 251.97,-71.15 14.99,-35.91 2.99,-93.77 -45.78,-126.07 -45.39,-30.07 -325.43,-16.95 -386.71,-17.19 -175.29,-0.66 -342.44,-0.76 -517.83,-0.02l-776.7 0.1c-45.01,0.08 -81.41,-0.74 -126.38,-0.17 -46.38,0.59 -102.34,8.6 -125.88,76.6z"/>
   <path class="fil0" d="M1207.54 651.09c-31.07,60.56 -16.97,389.4 -17.13,477.23l0.7 1191.96c11.94,104.86 149.96,134.51 199.21,36.13 20.81,-41.58 11.35,-407.18 11.14,-475.53l-1.92 -1192.02c-18.06,-103.36 -149.85,-119.96 -192,-37.77z"/>
   <path class="fil0" d="M1916.16 1042.12c-29.93,56.84 -8.97,135.16 68.4,153.35 42.69,10.03 940.09,2.97 1083.95,3.69 47.97,0.24 130.52,15.13 175.79,-53.06 35.89,-54.06 4.47,-141.34 -73.05,-158.39 -41.74,-9.18 -941.61,-2.43 -1084.11,-2.9 -47.99,-0.15 -133.2,-14.45 -170.98,57.31z"/>
  </g>
 </g>
</svg>
