<?xml version="1.0" encoding="UTF-8"?>
<!DOCTYPE svg PUBLIC "-//W3C//DTD SVG 1.1//EN" "http://www.w3.org/Graphics/SVG/1.1/DTD/svg11.dtd">
<!-- Creator: CorelDRAW 2019 (64-Bit) -->
<svg xmlns="http://www.w3.org/2000/svg" xml:space="preserve" width="58mm" height="46mm" version="1.1" style="shape-rendering:geometricPrecision; text-rendering:geometricPrecision; image-rendering:optimizeQuality; fill-rule:evenodd; clip-rule:evenodd"
viewBox="0 0 5800 4600"
 xmlns:xlink="http://www.w3.org/1999/xlink">
 <defs>
  <style type="text/css">
   <![CDATA[
    .fil0 {fill:#20FC8F}
   ]]>
  </style>
 </defs>
 <g id="Capa_x0020_1">
  <metadata id="CorelCorpID_0Corel-Layer"/>
  <g id="_2074502239216">
   <path class="fil0" d="M2052.76 4302.49c-46.4,-63.71 -48.67,-100.49 -124.86,-160.62 -140.34,-110.77 -374.89,-104.62 -506.77,60.77 -97.9,122.75 24.75,103.41 -294.43,104.01 -118,0.22 -225.99,0.1 -344.05,0.03 -58.48,-0.04 -105.74,-0.04 -164.76,0.54 -225.21,2.22 -177.99,-239.21 -177.78,-425.96l-0.15 -2372.04c0.52,-183.54 118.17,-187.52 242.64,-187.82l679.75 2.51c81.62,131.03 121.29,203.57 273.3,232.02 90.09,16.86 212.28,5.28 316.35,-88.09 204.69,-183.61 -90.12,-147.67 593.85,-147.09l2543.99 0.43c322.55,0.05 269.97,100.97 269.27,467.9l-0.14 1906.16c0.17,108.42 0.16,206.99 -0.03,315.41 -0.61,345.17 -81.4,295.07 -441.23,296.23 -110.74,0.35 -211.85,0.24 -322.63,-0.06 -727.03,-1.98 -1499.58,9.59 -2221.56,-0.25 -107.45,-1.47 -215.7,1.82 -320.76,-4.08zm-1791.44 -3053.36c-109.41,173.94 -78.76,319.77 -79.4,539.47 -2.07,713.14 6.57,1440.39 -0.18,2149.92 -1.53,159.79 -39.66,367.8 166.94,534.13 144.5,116.34 399.75,86.88 534.3,86.64 182.75,-0.33 354.72,0.08 537.43,0.52 190.46,0.46 150.19,-123 180.77,-178.05 62.13,-111.81 197.76,-73.31 217.94,58.31 21.92,142.93 157.62,119.26 231.92,119.59l2959.74 0.23c150.97,-0.08 375.85,29.94 525.46,-185.08 102.19,-146.88 73.31,-345.29 74.11,-536.14l0.31 -1612.5c-0.37,-182.64 -0.75,-354.84 0.02,-537.41 0.66,-156.51 38.42,-369.36 -165.53,-534.18 -144.87,-117.08 -399.33,-88.38 -534.43,-88.38l-2687.35 -0.53c-85.97,-0.32 -181.46,-5.35 -265.13,0.93 -172.53,12.93 -84.54,146.54 -184.67,222.21 -40.63,30.69 -92.26,33.85 -133.15,0.29 -62.17,-51.05 -34.61,-89.13 -54.89,-138.19 -46.27,-111.92 -201.14,-83.16 -265.14,-82.93 -182.43,0.66 -354.91,-0.31 -537.48,-0.93 -142.29,-0.48 -388.61,-29.36 -521.59,182.08z"/>
   <path class="fil0" d="M2431.7 3271.67c-15.72,45.41 -3.77,107.88 56.32,145.07 53.4,33.06 387.51,18.75 459.02,18.99l1540.62 0.07c70.22,0.05 251.14,32.09 299.9,-84.68 17.85,-42.74 3.55,-111.62 -54.49,-150.06 -54.03,-35.78 -387.35,-20.18 -460.29,-20.45 -208.63,-0.8 -407.59,-0.91 -616.34,-0.04l-924.48 0.13c-53.57,0.09 -96.9,-0.88 -150.43,-0.2 -55.2,0.7 -121.8,10.23 -149.83,91.17z"/>
   <path class="fil0" d="M1599.1 1794.1c-36.97,72.09 -20.19,463.49 -20.39,568.03l0.84 1418.74c14.21,124.82 178.5,160.1 237.12,43 24.76,-49.48 13.5,-484.64 13.25,-566l-2.29 -1418.8c-21.49,-123.03 -178.35,-142.8 -228.53,-44.97z"/>
   <path class="fil0" d="M2442.54 2259.53c-35.62,67.66 -10.67,160.88 81.43,182.52 50.8,11.95 1118.94,3.55 1290.17,4.4 57.09,0.28 155.36,18 209.24,-63.16 42.71,-64.34 5.32,-168.22 -86.95,-188.52 -49.68,-10.92 -1120.76,-2.9 -1290.37,-3.45 -57.12,-0.18 -158.55,-17.21 -203.52,68.21z"/>
  </g>
 </g>
</svg>
