<?xml version="1.0" encoding="UTF-8"?>
<!DOCTYPE svg PUBLIC "-//W3C//DTD SVG 1.1//EN" "http://www.w3.org/Graphics/SVG/1.1/DTD/svg11.dtd">
<!-- Creator: CorelDRAW 2019 (64-Bit) -->
<svg xmlns="http://www.w3.org/2000/svg" xml:space="preserve" width="126mm" height="144mm" version="1.1" style="shape-rendering:geometricPrecision; text-rendering:geometricPrecision; image-rendering:optimizeQuality; fill-rule:evenodd; clip-rule:evenodd"
viewBox="0 0 12600 14400"
 xmlns:xlink="http://www.w3.org/1999/xlink">
 <defs>
  <style type="text/css">
   <![CDATA[
    .fil0 {fill:#20FC8F}
   ]]>
  </style>
 </defs>
 <g id="Capa_x0020_1">
  <metadata id="CorelCorpID_0Corel-Layer"/>
  <path class="fil0" d="M11617.33 105.13c-443.75,0 -3550,887.5 -3550,4881.25l0 3106.25c0,979.02 795.98,1775 1775,1775l887.5 0 0 3550c0,490.9 396.6,887.5 887.5,887.5 490.9,0 887.5,-396.6 887.5,-887.5l0 -3550 0 -3106.25 0 -5768.75c0,-490.9 -396.6,-887.5 -887.5,-887.5zm-9762.5 443.75c0,-227.42 -169.18,-416.02 -396.6,-440.98 -227.42,-24.96 -429.88,124.81 -479.81,343.91l-840.35 3780.2c-38.83,174.72 -58.24,352.22 -58.24,529.72 0,1273.01 973.48,2318.59 2218.75,2432.3l0 6223.6c0,490.9 396.6,887.5 887.5,887.5 490.9,0 887.5,-396.6 887.5,-887.5l0 -6223.59c1245.27,-113.71 2218.75,-1159.3 2218.75,-2432.3 0,-177.5 -19.41,-355 -58.24,-529.73l-840.35 -3780.2c-49.92,-221.88 -257.93,-368.87 -482.58,-343.91 -224.65,24.96 -393.83,213.56 -393.83,440.98l0 3721.95c0,149.77 -122.03,271.8 -271.8,271.8 -141.45,0 -257.93,-108.16 -271.8,-249.61l-346.67 -3782.97c-19.42,-230.19 -210.78,-404.92 -440.98,-404.92 -230.2,0 -421.56,174.73 -440.98,404.92l-343.9 3782.97c-13.87,141.45 -130.35,249.61 -271.8,249.61 -149.77,0 -271.8,-122.03 -271.8,-271.8l0 -3721.95 -2.77 0zm1339.57 4215.62l-8.32 0 -8.32 0 8.32 -19.41 8.32 19.41z"/>
 </g>
</svg>
