<?xml version="1.0" encoding="UTF-8"?>
<!DOCTYPE svg PUBLIC "-//W3C//DTD SVG 1.1//EN" "http://www.w3.org/Graphics/SVG/1.1/DTD/svg11.dtd">
<!-- Creator: CorelDRAW 2019 (64-Bit) -->
<svg xmlns="http://www.w3.org/2000/svg" xml:space="preserve" width="58mm" height="46mm" version="1.1" style="shape-rendering:geometricPrecision; text-rendering:geometricPrecision; image-rendering:optimizeQuality; fill-rule:evenodd; clip-rule:evenodd"
viewBox="0 0 5800 4600"
 xmlns:xlink="http://www.w3.org/1999/xlink">
 <defs>
  <style type="text/css">
   <![CDATA[
    .fil0 {fill:#20FC8F}
   ]]>
  </style>
 </defs>
 <g id="Capa_x0020_1">
  <metadata id="CorelCorpID_0Corel-Layer"/>
  <g id="_2074501445248">
   <path class="fil0" d="M1525.96 37.13c-98.62,30.12 -75.34,135.2 -75.19,250.18 0.15,111.12 0.15,222.25 0,333.37 -0.29,222.12 -0.99,444.66 0.24,666.75 2.97,536.48 236.99,458.78 348.06,642.42 47.51,78.57 40.82,185.85 35.45,291.44 -10.76,211.41 -14.03,428.59 -20.04,640.79l-39.36 1283.84c-5.32,179.81 -12.77,368.77 249.62,414.58 210.58,36.76 423.37,3.37 507.13,-131.07 54.23,-87.02 38,-187.58 34.39,-297.7l-38.68 -955.88c-12.53,-208.42 -12.85,-424.82 -27.79,-636.69 -7.19,-101.9 -10.77,-207.65 -13.43,-308.35 -2.98,-112.63 -20.34,-207.31 32.3,-298.36 75.03,-129.82 227.36,-130.11 323.92,-340.53 69.42,-151.26 50.28,-430.75 50.55,-616.59 0.31,-222.24 -0.07,-444.5 -0.04,-666.74 0.01,-109.02 22.21,-226.06 -58.67,-266.13 -47.24,-23.4 -94.89,-4.13 -119.89,22.89 -34.51,37.31 -27.22,81.66 -27.14,143.94 0.26,222.24 -0.02,444.5 0,666.74 0.02,157.05 16.56,510.2 -30.74,626.72 -60.89,150 -220.5,138.18 -325.26,342.02 -88.63,172.46 -48.43,384.04 -41.83,591.65 6.78,213.4 22.75,431.43 27.08,638.23 4.4,210.38 17.62,428.69 26.32,638.39 4.58,110.53 8.29,209.99 12.79,319.4 2.85,69.23 30.36,271.39 -14.73,304.47 -48.58,35.64 -222.97,32.81 -288.42,19.04 -53.02,-11.16 -73.97,-26.43 -74.61,-89.12 -0.55,-54.12 3.04,-113.51 4.75,-168.12 20.12,-642.6 34.46,-1290.09 59.56,-1931.8 9.36,-239.34 -51.22,-374.5 -182.34,-475.77 -71.4,-55.15 -129.2,-75.53 -172.39,-160.03 -36.3,-71.01 -31.53,-203.33 -31.53,-300.43 -0.01,-222.24 0.24,-444.5 0.03,-666.74 -0.07,-68.56 13.47,-436.54 -14.91,-483.36 -19.68,-32.46 -64.52,-58.92 -115.2,-43.45z"/>
   <path class="fil0" d="M3820.72 2535.8c1.09,-261.33 -11.17,-149.97 -121.98,-281.22 -62.56,-74.11 -100.17,-155.24 -132.1,-264.68 -119.15,-408.34 -41.18,-969.35 146.13,-1343.76 67.91,-135.74 241.61,-375.15 415.83,-390.34 8.14,1321.99 0.22,2671.44 0.23,3996.51 0,96.48 -30.94,115.19 -165.65,112.86 -114.2,-1.97 -142.48,-15.42 -142.47,-127.04l0.01 -1702.33zm353.64 2001.08c64.81,-54.95 61.75,-19.55 120.96,-115.31l16.43 -21.07c34.57,-155.77 24.5,-136.85 24.05,-311.33l-0.06 -3745.12c-0.18,-98.66 22.11,-247.99 -44.24,-293.55 -62.57,-42.95 -214.09,-3.47 -281.39,22.04 -611.39,231.76 -817.54,1332.96 -649.28,1953.29 87.17,321.37 236.06,407.56 248.57,431.36 14.61,27.79 4.87,1213.54 5.05,1355.35 0.14,113.49 -0.11,226.98 -0.02,340.47 0.09,121.42 -7.71,205.38 49.24,292.45 92.39,141.27 316.96,147.79 510.69,91.42z"/>
   <path class="fil0" d="M2348.93 38.08c-101.71,35.09 -74.22,153.86 -74.22,313.07 0.01,108.35 -10.07,913.33 8.31,958.36 16.29,39.91 69.86,79.35 131.34,56.67 93.98,-34.66 66.58,-195.56 66.7,-312.82 0.11,-108.61 9.54,-908.37 -7.44,-954.95 -15.92,-43.65 -64.46,-81.1 -124.69,-60.33z"/>
   <path class="fil0" d="M1862.08 287.31l0 751.86c0,105.39 -24.97,273.32 48.37,317.9 53.68,32.62 102.81,11.25 132.16,-21.23 39.29,-43.49 26.36,-125.57 26.37,-204.46l0 -886.63c-0.02,-50.23 23.66,-235.94 -123.01,-210.54 -102.61,17.76 -83.89,146.45 -83.89,253.1z"/>
   <path class="fil0" d="M4174.36 4536.88l115.06 -92.7c10.72,-16.8 15.29,-24.37 22.33,-43.68l-16.43 21.07c-59.21,95.76 -56.15,60.36 -120.96,115.31z"/>
  </g>
 </g>
</svg>
