<?xml version="1.0" encoding="UTF-8"?>
<!DOCTYPE svg PUBLIC "-//W3C//DTD SVG 1.1//EN" "http://www.w3.org/Graphics/SVG/1.1/DTD/svg11.dtd">
<!-- Creator: CorelDRAW 2019 (64-Bit) -->
<svg xmlns="http://www.w3.org/2000/svg" xml:space="preserve" width="190mm" height="133mm" version="1.1" style="shape-rendering:geometricPrecision; text-rendering:geometricPrecision; image-rendering:optimizeQuality; fill-rule:evenodd; clip-rule:evenodd"
viewBox="0 0 19000 13300"
 xmlns:xlink="http://www.w3.org/1999/xlink">
 <defs>
  <style type="text/css">
   <![CDATA[
    .fil0 {fill:#20FC8F}
   ]]>
  </style>
 </defs>
 <g id="Capa_x0020_1">
  <metadata id="CorelCorpID_0Corel-Layer"/>
  <path class="fil0" d="M1973.53 2191.47l0 2585 2820 0 0 -2820 -2585 0c-129.25,0 -235,105.75 -235,235zm14158.75 2585l-2376.44 -2820 -2382.31 0 0 2820 4758.75 0zm-6638.75 0l0 -2820 -2820 0 0 2820 2820 0zm7990 5640l-470 0c0,1556.88 -1263.12,2820 -2820,2820 -1556.88,0 -2820,-1263.13 -2820,-2820l-3760 0c0,1556.88 -1263.12,2820 -2820,2820 -1556.88,0 -2820,-1263.13 -2820,-2820l-470 0c-778.44,0 -1410,-631.56 -1410,-1410l0 -6815c0,-1169.12 945.88,-2115 2115,-2115l3525 0 4700 0 3322.31 0c555.19,0 1081,243.81 1439.38,669.75l3257.68 3868.69c284.94,337.81 440.63,766.69 440.63,1210.25l0 3181.31c0,778.44 -631.56,1410 -1410,1410zm-1880 0c0,-778.44 -631.56,-1410 -1410,-1410 -778.44,0 -1410,631.56 -1410,1410 0,778.44 631.56,1410 1410,1410 778.44,0 1410,-631.56 1410,-1410zm-10810 1410c778.44,0 1410,-631.56 1410,-1410 0,-778.44 -631.56,-1410 -1410,-1410 -778.44,0 -1410,631.56 -1410,1410 0,778.44 631.56,1410 1410,1410z"/>
 </g>
</svg>
