<?xml version="1.0" encoding="UTF-8"?>
<!DOCTYPE svg PUBLIC "-//W3C//DTD SVG 1.1//EN" "http://www.w3.org/Graphics/SVG/1.1/DTD/svg11.dtd">
<!-- Creator: CorelDRAW 2019 (64-Bit) -->
<svg xmlns="http://www.w3.org/2000/svg" xml:space="preserve" width="58mm" height="46mm" version="1.1" style="shape-rendering:geometricPrecision; text-rendering:geometricPrecision; image-rendering:optimizeQuality; fill-rule:evenodd; clip-rule:evenodd"
viewBox="0 0 5800 4600"
 xmlns:xlink="http://www.w3.org/1999/xlink">
 <defs>
  <style type="text/css">
   <![CDATA[
    .str0 {stroke:#20FC8F;stroke-width:282.22;stroke-miterlimit:22.9256}
    .str2 {stroke:#20FC8F;stroke-width:105.83;stroke-miterlimit:22.9256}
    .str1 {stroke:#20FC8F;stroke-width:246.94;stroke-miterlimit:22.9256}
    .str3 {stroke:#20FC8F;stroke-width:35.28;stroke-miterlimit:22.9256}
    .fil1 {fill:none}
    .fil0 {fill:#20FC8F}
   ]]>
  </style>
 </defs>
 <g id="Capa_x0020_1">
  <metadata id="CorelCorpID_0Corel-Layer"/>
  <g id="_2074662090752">
   <path class="fil0" d="M4323.93 4014.77c-57.52,-464.42 656.2,-553.82 708.32,-77.81 22.56,206.08 -135.06,368.54 -311.08,389.22 -214.25,25.18 -375.21,-133.48 -397.24,-311.41zm-3563.18 0c-25.94,-209.42 132.48,-375.88 309.32,-394.5 482.99,-50.85 542.16,650.47 86.99,705.74 -211.46,25.67 -374.19,-132.62 -396.31,-311.24zm-225.29 -178.55c-89.02,-19.05 -156.09,-88.61 -193.15,-144 -57.94,-86.61 -58.49,-165.2 -58.51,-282.99l0 -1353.56c-0.04,-184.81 -32.9,-503.74 50.45,-638.77 125.56,-203.43 305.71,-174.27 504.54,-174.28 228.64,0 457.27,0 685.91,0 94.81,0.01 1920.23,-9.95 2038.88,2.14 172.19,17.55 270.72,154 401.66,285.76 158.38,159.36 879.17,899.38 1030.89,1009.02 59.36,42.9 135.2,89.18 214.37,124.02 353.78,155.67 297.96,-54.3 298.61,727.86 0.11,118.26 3.11,202.43 -51.65,290.28 -35.01,56.19 -108.72,141.13 -204.41,151.4 -48.13,-240.83 -287.14,-456.57 -583.88,-452.67 -295.87,3.89 -519.28,219.55 -572.03,472.09l-2401.22 1.94c-53.1,-255.04 -275.21,-469.62 -571.83,-474.01 -214.84,-3.19 -404.72,109.02 -506.98,270.4 -42.19,66.57 -51.65,108.58 -81.65,185.37zm-4.4 245.71c136.54,585.15 834.71,625.69 1090.88,198.98 32.97,-54.93 56.11,-149.33 80.92,-187.16l2387.33 -1.48c32.81,53.85 37.9,190.97 199.96,328.16 330.93,280.13 847.71,154.52 971.91,-338.39 219.09,-53.06 364.69,-176.58 440.85,-360.79 70.74,-171.12 44.18,-541.56 44.11,-757.27 -0.09,-291.29 -44.19,-384.86 -326.86,-473.82 -232.63,-73.22 -347.68,-192.8 -478.68,-323.76 -269.22,-269.13 -532.12,-532.62 -801.85,-801.3 -116.43,-115.99 -249.14,-286.49 -462.05,-341.25 -154.72,-39.79 -590.43,-18.94 -781.05,-18.93 -534.48,0.01 -1068.96,0.13 -1603.44,0 -195.16,-0.05 -623.51,-21.3 -786.04,15.48 -202.53,45.85 -359.87,194.14 -425.69,376.94 -59.83,166.18 -35.28,559.9 -35.32,765.19 -0.05,267.15 -0.05,534.3 -0.03,801.45 0.05,458.87 -97.63,975.8 485.05,1117.95z"/>
   <path class="fil0" d="M2896.56 1628.23l-0.02 890.5c0.02,133.68 68.42,148.62 178.15,148.78l1345.09 -0.05c181.49,0.11 192.68,-237.71 0,-237.73 -403.45,-0.05 -853.3,6.86 -1247.11,-0.03l-37 -1.29 -1.19 -684.42c0.03,-108.6 15.61,-216.65 -66.06,-252.06 -106.2,-46.04 -171.84,32.65 -171.86,136.3z"/>
   <path class="fil0" d="M1709.1 1628.23l0.03 890.5c-0.04,194.27 152.43,148.68 376.77,148.7l418.68 0.05c210.83,-0.04 205.04,-237.56 8.9,-237.76 -117.42,-0.13 -481.33,5 -566.95,-3.11 -6.8,-215.48 -0.38,-440.28 -0.53,-655.9 -0.07,-109.22 20.8,-231.68 -57.82,-274.51 -62.34,-33.96 -179.08,-24.64 -179.08,132.03z"/>
   <path class="fil0" d="M520.76 1726.19l0.03 792.54c0.07,177.79 134.22,148.71 326.91,148.73l472.12 0.01c200.91,0.15 214.95,-238.6 -8.7,-238.01 -180.62,0.48 -372.21,6.11 -551.63,-0.65 -7.57,-241.6 -0.84,-551.48 -0.88,-800.58 -0.03,-95.29 -58.01,-180.15 -164.66,-138.53 -83.03,32.41 -73.71,132.89 -73.19,236.49z"/>
   <path class="fil0" d="M3469.15 2908.35c-106.16,25.14 -131.11,149.58 -44.31,212.41 41.41,29.98 273.37,30.59 331.8,17.18 102.64,-23.56 120.42,-158.85 34.78,-213.77 -43.52,-27.91 -264.23,-29.56 -322.27,-15.82z"/>
  </g>
  <g id="_2074662088096">
   <path class="fil1 str0" d="M30709.24 -4014.28l372.34 -559.65 1061.65 0.16 326.71 498.45c56.8,106.35 148.2,154.04 274.21,143.09l716.5 -1.11c193.55,-13.03 291.04,65.79 292.5,236.42l0 2313.38c1.41,149.75 -78.06,228.19 -238.45,235.31l-3804.57 0c-148.48,1.08 -227.96,-77.36 -238.45,-235.31l0 -2313.38c7.82,-156.19 89.66,-235.36 245.54,-237.5l763.51 2.19c109.77,5.59 185.93,-21.75 228.51,-82.05z"/>
   <circle class="fil1 str0" cx="31612.03" cy="-2647.12" r="825.93"/>
  </g>
  <polyline class="fil1 str0" points="35123.04,-3385.34 37300.69,-4937.43 39483.09,-3381.98 "/>
  <path class="fil1 str0" d="M35626.67 -3025.31l-6.89 1408.93c11.41,280.96 153.1,432.94 425.06,455.93l642.85 1.54c120.66,4.6 185.31,-45.14 193.95,-149.22l-0.93 -973.71 839.88 0.69 -5.58 899.4c-3.89,124.4 31.23,194.14 105.36,209.22 34.78,8.48 71.8,12.3 111.07,11.46l402.74 3.17 269.6 0c162.39,-36.61 270.92,-110.27 325.59,-220.96 41.38,-57.96 59.96,-170.17 55.72,-336.64l-10.01 -1312.46"/>
  <polyline class="fil1 str0" points="35626.58,-4274.79 35627.8,-5009.33 36357.67,-5010.56 "/>
  <g id="_2074662085984">
   <path class="fil1 str1" d="M43646.02 -2934.39c-10.27,-0.94 -36.97,-0.08 -46.63,-0.24 -25.08,-0.41 -31.26,-0.26 -50.85,-0.53 -62.89,-0.88 -97.04,-0.54 -97.04,-0.54 0,0 266.84,-176.7 778.61,-499.34 328.57,-357.74 375.85,-724.88 141.85,-1101.42 -255.9,-342.59 -575.76,-462.18 -959.57,-358.79 0,0 -567.4,317.07 -1702.2,951.22 -309.49,162.26 -512.53,412.59 -609.12,750.97 -120.19,408.66 -42.31,789.71 233.64,1143.14 224.13,309.63 596.83,487.63 1118.11,534.02l2736.86 0 1184.86 -1418.49 -2728.52 0z"/>
   <path class="fil1 str1" d="M41811.51 -4000.65c283.13,-88.3 602.76,-2.76 958.92,256.62 257.02,285.15 350.19,557.72 279.52,817.72 -91.47,280.84 -272.26,456.07 -542.36,525.68 -337.5,29.73 -562.79,-88.48 -675.87,-354.62 -61.87,-257.6 -9.03,-443.95 158.53,-559.06 178.78,-131.99 358.18,-138.94 538.19,-20.86 132.41,111.73 122.68,284.18 -29.2,517.34"/>
   <path class="fil1 str1" d="M43451.5 -2935.7c-936.91,572.88 -936.91,572.88 0,0z"/>
  </g>
  <g id="_2074662083648">
   <path class="fil0 str2" d="M50845.39 -3106.32l-66.97 76.33c-567.63,643.82 -1364.33,1168.52 -2150.33,1566.44l-125.94 62.79c-34.8,17.65 -25.56,13.54 -30.38,7.84 -12.98,-17.8 -32.25,-239.47 -36.57,-282.19 -3.77,-37.29 -0.84,-41.22 18.66,-60.41l195.92 -193.48c93.42,-97.97 -132.2,-188.96 -159.29,-271.51 12.63,-24.08 30.31,-33.18 52.19,-49.85 271.67,-206.94 476.42,-91.79 537.65,-116.92 28.29,-11.62 1788.43,-1782.27 1950.7,-1944.82 38.83,-38.9 749.84,-761.59 778.17,-770.2 -23.66,184.77 -94.45,424.7 -150.03,586.34 -120.8,351.29 -290.9,685.18 -495.51,978.98 -54.66,78.49 -256.92,357.13 -318.27,410.66zm-1689.5 -545.89l62.16 -73.42c0.67,-2.44 3.06,-2.09 4.58,-3.14 85.5,-84.73 154.8,-168.67 238.48,-251.46 83.8,-82.89 166.19,-158.85 255.9,-237.06 362.77,-316.26 754,-566.44 1214.17,-752.79 198.27,-80.29 552.47,-192.12 766.72,-217.35 -6.47,26.26 -19.6,32.05 -37.89,50.19l-2624.34 2626.35c-58.44,1.64 -113.33,-9.43 -177.46,-5.75 -145.32,8.35 -287.59,67.21 -392.98,150.47 -47.25,37.32 -179.88,129.03 -141.77,201.06 27.52,52.01 152.93,136.65 177.02,186.28 -199.38,203.53 -133.39,173.02 -342.57,147.43 -50.48,-6.17 -103.21,-13.73 -152.76,-16.6 15.38,-54.72 223.36,-442.2 251.99,-493.21 91.74,-163.44 185.15,-311.03 275.51,-464.37 91.91,-155.98 473.3,-694.28 623.24,-846.63zm-961.66 1964.25c33.01,0.28 77.99,2.45 103.47,14.17l4.22 40.89c-2.39,52.51 17.59,172.71 24.34,231.64 8.68,75.83 0.31,176.66 66.96,191.6 77.75,17.42 924.45,-470.84 1009.68,-524.29 107.53,-67.44 214.44,-131.06 315.64,-204.46 45.81,-33.22 103.44,-73.51 152.52,-106.3 260.61,-174.11 612.51,-479.12 834.59,-703.9 586.73,-593.85 1025.56,-1299.07 1207.3,-2134.61 14.5,-66.65 81.17,-398.21 61.74,-440.68 -27.64,-60.43 -132.97,-30.1 -204.5,-18.93 -72.03,11.26 -144.97,25.19 -216.58,39.58 -893.99,179.69 -1684.21,684.39 -2282.1,1315.26 -540.52,570.35 -996.05,1265.8 -1354.69,1995.32 -104.48,212.53 -161.32,257.09 49.13,280.81 64.71,7.29 167.1,24.32 228.28,23.9z"/>
   <path class="fil0 str2" d="M48301.92 -1632.9l-4.22 -40.89c-25.48,-11.72 -70.46,-13.89 -103.47,-14.17 3.83,2.26 2.12,3.37 15.27,7.48 3.48,1.09 7.35,1.75 11.15,2.4 5.97,1.03 14.79,0.85 21.82,1.4 16.91,1.33 29.78,3.13 45.15,6.85 10.12,20.88 0.18,12.69 14.3,36.93z"/>
   <path class="fil0 str2" d="M49155.89 -3652.21c1.58,-1.04 4.07,-4.32 4.77,-3.03l61.97 -73.53c-1.52,1.05 -3.91,0.7 -4.58,3.14l-62.16 73.42z"/>
   <path class="fil0 str2" d="M50778.42 -3029.99l66.97 -76.33c-1.54,1.1 -3.92,0.79 -4.62,3.32l-14.66 14.07c-6.29,7.37 -8.07,10.95 -14.1,18.72l-33.59 40.22z"/>
  </g>
  <g id="_2074662082208">
   <path class="fil0 str3" d="M53722.79 -3928.92c6.11,7.6 78.29,167.98 115.92,229.3 216.37,352.67 516.26,672.47 845.22,914.85 64.73,47.69 135.54,99.57 210.54,142.92 41.51,24 71.26,40.06 115,61.3 28.75,13.97 99.67,40.31 119.17,56.44 -352.12,173.96 -758.64,332.27 -1133.11,483.35l-1017.86 401.86c-45.27,17.24 -106.94,48.47 -152.11,11.16 -42.52,-35.13 -7.54,-104.17 9.04,-147.06 199.85,-516.95 675.26,-1739.57 888.19,-2154.12zm483.54 -132.67c-6.94,59.9 -69.37,146.73 -84.5,203.32l149.04 79.98c35.12,-46.13 61.9,-150.36 92.91,-183.28 111.32,66.47 255.78,197.52 349.78,283.62 52.62,48.2 290.15,281.38 306.63,332.47 -29.61,20.04 -204.03,201.63 -224.39,239.5 10.99,18.25 108.33,95.44 130.98,108.44 64.77,-63.86 140.09,-169.12 202.95,-211.95 49.54,43 161.79,240.89 197.04,324.71 102.89,244.69 19.77,258.71 -190.76,170.67 -218.71,-91.45 -446.34,-282.56 -617.64,-435.11 -184.98,-164.74 -616.14,-652.52 -651.76,-931.36 -12.81,-100.3 36.15,-103.33 155.38,-64.82 72.29,23.36 124.46,55.74 184.34,83.81zm-187.67 -615.25c-35.36,5.49 -55.69,22.46 -102.97,9.19 -104.44,-29.32 -130.77,-136.28 -77.17,-226.01 56.21,-94.11 221.11,-123.78 344.26,-58.91 248.57,130.91 118.21,663.21 82.81,721.01 -26.96,-6.68 -127.36,-62.31 -219.54,-88.51 -84.2,-23.94 -187.15,-31.75 -257.52,10.77 -44.12,26.66 -120.92,109.45 -149.21,158.89 -144.12,251.93 -350.67,770.86 -466.61,1051.86 -176.5,427.76 -350.24,874.72 -518.92,1306.26 -71.63,183.25 30.4,336.69 198.14,355.25 91.65,10.14 175.58,-33.14 247.06,-61.69 70.6,-28.2 144.2,-56.24 216.01,-83.83 427.08,-164.11 879.02,-349.3 1302.3,-524.05 188.31,-77.75 694.38,-281.14 817.11,-400.54 49.1,-47.76 103.41,-93.51 108.69,-199.52 4.29,-86.32 -27.15,-179.7 -55.2,-246.21 -32.93,-78.07 -179.07,-340.35 -222.94,-372.08 69.55,-71.37 254.57,-174.53 380.2,-214.28 433.17,-137.05 784.53,205.48 617.64,420.44 -84.22,108.47 -288.6,102.31 -354.66,-56.92l-9.52 -20.34c-2.39,-14.9 -146.72,-46.38 -164.44,-46.77 -35.04,248.22 259.27,443.35 504.18,348.72 211.46,-81.71 331.48,-349.85 163.82,-581.44 -106.6,-147.26 -331.38,-299.66 -622.6,-268.87 -351.46,37.16 -562.76,251.15 -623.67,274.5 -31.88,-20.07 -134.97,-149.91 -169.83,-185.95 -90.3,-93.35 -260.55,-257.29 -362.56,-331.1 -64.93,-46.98 -130.6,-109.88 -200.37,-145.3 8,-49.3 30.44,-107.18 42.5,-161.42 12.39,-55.76 23.54,-111.22 30.18,-166.89 94.57,-792.12 -565.12,-797.45 -764.1,-578.65 -58.01,63.77 -112.84,177.47 -89.5,299.76 20.39,106.83 96.43,184.78 177.51,221.6 102.38,46.5 267.67,36.47 310.49,-40.36 -20.4,-40.69 -80.65,-82.33 -111.57,-118.61z"/>
   <path class="fil0 str3" d="M56407.98 -4282.95c-50.91,2.87 -177.74,6.35 -209.46,27.02 -24.44,15.92 -54.08,66.93 -77.69,99.22l-17.11 22.89c-8.12,8.72 -2.09,3.66 -11.66,10.54l-22.49 -39.58c-6.62,-15.66 -11.24,-25.87 -17.97,-41.34 -46.48,-106.85 -47.18,-85.92 -214.33,-150.86 15.25,-26.77 100.64,-75.7 130.01,-105.46 40.73,-41.29 28.33,-143.31 29.73,-213.77 36.3,2.3 99.15,81.06 143.67,93.91 55.5,16.03 143.95,-36.05 199.4,-41.92 -6.27,55.77 -55.75,142.46 -33,195.59 18.16,42.41 94.77,102.94 100.9,143.76zm142.24 -425.73c32.4,-105.88 -34.51,-156.77 -131.01,-124.7 -34.2,11.36 -201.92,68.63 -223.73,69.76 -45.77,2.39 -202.66,-168.08 -267.6,-176.53 -47.78,-6.22 -81.41,19.27 -93.27,52.29 -11.86,33.02 -12.17,234.73 -12.86,284.36 -0.58,42.38 4.95,34.22 -64.06,84.11l-167.47 127.02c-20.69,22.53 -34.47,72.66 -9.04,109.4 26.92,38.88 137.33,69.72 195.79,92.13 126.24,48.41 98.77,20.05 152.17,142.18 25.32,57.91 59.16,165.39 105.59,187.98 83.54,40.65 134.96,-62.72 167.87,-109.54 104.02,-148.01 73.38,-126.46 163.36,-134.05 136.23,-11.48 342.54,9.2 304.71,-130.7 -10.22,-37.82 -181.87,-220.51 -183.8,-251.29 -0.87,-13.83 55.12,-195.53 63.35,-222.42z"/>
   <path class="fil0 str3" d="M54686.1 -5205.85c-13.32,-102.28 62.13,-186.65 149.51,-196.45 241.51,-27.12 263.02,322.14 45.17,345.52 -102.66,11.02 -183.57,-63.73 -194.68,-149.07zm517.55 26.17c36.78,-204.22 -120.52,-364.63 -287.27,-394.2 -208.5,-36.96 -373.17,119.67 -401.18,284.31 -54.01,317.45 308.9,531.07 561.09,331.38 63,-49.88 107.5,-111.27 127.36,-221.49z"/>
   <path class="fil0 str3" d="M55284.97 -5436.79c12.02,48.15 36.29,83.24 57.52,149.35 54.6,170.09 50.11,349.65 -6.2,510.55 -57.07,163.05 -211.34,366.13 -358.48,425.68 5.69,31.44 60.78,126.24 79.9,152.44 36.87,-7.05 123.67,-75.08 147.21,-94.43 136.18,-111.94 233.23,-248.24 297.16,-429.08 44.96,-127.17 64.01,-277.66 48.54,-430.48 -9.19,-90.88 -70.22,-311.82 -120.65,-361.5l-145 77.47z"/>
  </g>
  <g id="_2074502227376">
   <path class="fil0" d="M59635.76 -2007.73c-38.98,-53.52 -40.89,-84.43 -104.9,-134.95 -117.91,-93.06 -314.96,-87.89 -425.77,51.05 -82.25,103.14 20.79,86.89 -247.37,87.39 -99.13,0.19 -189.86,0.09 -289.05,0.02 -49.14,-0.03 -88.84,-0.02 -138.42,0.46 -189.21,1.86 -149.54,-200.97 -149.37,-357.87l-0.12 -1992.88c0.44,-154.2 99.28,-157.55 203.85,-157.79l571.1 2.1c68.57,110.09 101.9,171.04 229.61,194.94 75.69,14.16 178.35,4.43 265.79,-74.01 171.97,-154.26 -75.72,-124.07 498.92,-123.59l2137.34 0.37c270.99,0.04 226.82,84.83 226.23,393.11l-0.12 1601.47c0.14,91.09 0.14,173.9 -0.02,264.99 -0.52,290 -68.39,247.9 -370.71,248.87 -93.03,0.3 -177.98,0.21 -271.05,-0.05 -610.82,-1.66 -1259.88,8.06 -1866.45,-0.21 -90.28,-1.23 -181.23,1.54 -269.49,-3.42zm-1505.09 -2565.3c-91.92,146.15 -66.17,268.67 -66.7,453.24 -1.75,599.15 5.51,1210.15 -0.16,1806.27 -1.28,134.25 -33.32,309.01 140.26,448.75 121.4,97.74 335.85,72.99 448.89,72.79 153.54,-0.28 298.03,0.07 451.53,0.43 160.01,0.39 126.18,-103.33 151.87,-149.58 52.2,-93.94 166.15,-61.6 183.11,48.98 18.41,120.09 132.42,100.21 194.84,100.48l2486.64 0.2c126.84,-0.08 315.77,25.15 441.46,-155.5 85.86,-123.4 61.6,-290.1 62.27,-450.44l0.26 -1354.75c-0.31,-153.45 -0.63,-298.12 0.02,-451.51 0.55,-131.49 32.27,-310.32 -139.07,-448.79 -121.72,-98.37 -335.5,-74.25 -449,-74.25l-2257.8 -0.45c-72.22,-0.27 -152.45,-4.49 -222.74,0.78 -144.95,10.87 -71.03,123.12 -155.16,186.69 -34.13,25.79 -77.51,28.44 -111.86,0.24 -52.24,-42.88 -29.08,-74.88 -46.12,-116.09 -38.87,-94.04 -168.99,-69.87 -222.75,-69.67 -153.28,0.55 -298.18,-0.27 -451.57,-0.79 -119.55,-0.41 -326.49,-24.66 -438.22,152.97z"/>
   <path class="fil0" d="M59954.13 -2873.78c-13.21,38.15 -3.17,90.63 47.31,121.89 44.86,27.77 325.58,15.74 385.65,15.94l1294.35 0.07c59,0.04 211,26.96 251.97,-71.15 14.99,-35.91 2.99,-93.77 -45.78,-126.07 -45.39,-30.07 -325.43,-16.95 -386.71,-17.19 -175.29,-0.66 -342.44,-0.76 -517.83,-0.02l-776.7 0.1c-45.01,0.08 -81.41,-0.74 -126.38,-0.17 -46.38,0.59 -102.34,8.6 -125.88,76.6z"/>
   <path class="fil0" d="M59254.62 -4115.16c-31.07,60.56 -16.97,389.4 -17.13,477.23l0.7 1191.96c11.94,104.86 149.96,134.51 199.21,36.13 20.81,-41.58 11.35,-407.18 11.14,-475.53l-1.92 -1192.02c-18.06,-103.36 -149.85,-119.96 -192,-37.77z"/>
   <path class="fil0" d="M59963.24 -3724.13c-29.93,56.84 -8.97,135.16 68.4,153.35 42.69,10.03 940.09,2.97 1083.95,3.69 47.97,0.24 130.52,15.13 175.79,-53.06 35.89,-54.06 4.47,-141.34 -73.05,-158.39 -41.74,-9.18 -941.61,-2.43 -1084.11,-2.9 -47.99,-0.15 -133.2,-14.45 -170.98,57.31z"/>
  </g>
  <g id="_2074501442048">
   <path class="fil0 str3" d="M68316.08 -5541.06c157,-16.89 320.04,30.54 441.86,89.14 366.25,176.19 659.67,647.3 520.52,1043.4 -56.55,160.96 -161.15,210.55 -248.78,302.45l-577.91 505.33 -1112.88 1062.92 -1022.66 1152.91c-91.91,91.66 -153.17,170.46 -348.23,192.27 -581.93,65.07 -1153.66,-592.89 -970.59,-1133.89 26.76,-79.06 60.67,-123.3 109.62,-170.75 187.28,-181.54 328.96,-286.15 502.83,-444.71 94.17,-85.88 285,-232.94 363.78,-313.13 26.8,-27.28 46.71,-38.7 71.37,-64.19 30.55,-31.58 40.73,-39.09 71.37,-64.04l282.93 -268.11c166.61,-159.86 709.64,-710.89 863.26,-906.79 23.28,-29.7 36.91,-41.1 65.69,-69.22l310.8 -366.19c116.72,-123.6 192.08,-227.99 321.22,-355.47 97.59,-96.33 151.18,-169.91 355.8,-191.93zm1191.94 1056.57c29.31,-178.32 -8.87,-364.27 -68.82,-517.31 -213.66,-545.35 -935.31,-985.18 -1501.93,-612.2 -58.64,38.59 -104.54,103.17 -153.25,146.8 -35.07,31.41 -42.33,41.74 -69.56,75.1 -23.58,28.89 -46.04,46.66 -69.05,75.77l-277.85 322.01c-44.83,48.66 -89.56,114.65 -136.51,163.21 -27.63,28.56 -35.89,42.92 -67.89,77.01l-426.71 472.91c-25.42,27.06 -49.02,42.64 -74.32,70.41l-291.28 298.76c-52.87,52.75 -98.98,89.68 -150.35,149.51 -45.46,52.95 -104.17,93.83 -156.96,142.95l-631.13 558.17c-165.32,150.79 -288.63,235.07 -472.33,417.16 -91.48,90.66 -168.83,219.18 -194.01,395.91 -93.58,656.84 499.79,1245.45 1099.79,1265.51 182.59,6.1 353.97,-45.39 465.98,-134.8 154.43,-123.26 455.17,-478.91 571.44,-618.14l205.01 -239.9c30.65,-32.31 40.57,-51.37 66.58,-78.56 33.9,-35.44 44.48,-48.03 72.76,-82.16l358.72 -385.58c60.81,-52.63 94.38,-92.16 145.52,-144.39l300.9 -298.47c52.36,-52.53 97.08,-84.33 155.93,-143.66 142.14,-143.31 274.55,-237.89 395.03,-350.07l238.11 -206.51c53.97,-41.47 105.72,-89.99 157.49,-132.91l312.52 -286.74c96.74,-98.09 165.24,-211.57 196.17,-399.79z"/>
   <polygon class="fil0 str3" points="67864.33,-4455.48 67868.91,-4410.03 68075.73,-4413.63 68070.5,-4620.1 67864.3,-4619.18 "/>
   <polygon class="fil0 str3" points="67554.9,-4146.04 67559.48,-4100.6 67766.29,-4104.19 67761.07,-4310.67 67554.86,-4309.74 "/>
   <polygon class="fil0 str3" points="68173.77,-4184.72 68176.58,-4100.68 68351.22,-4104.24 68385.11,-4103.96 68379.97,-4310.55 68173.73,-4309.67 "/>
   <polygon class="fil0 str3" points="67864.34,-3875.29 67867.14,-3791.24 68041.79,-3794.81 68075.67,-3794.53 68070.54,-4001.11 67864.3,-4000.24 "/>
   <polygon class="fil0 str3" points="66420.58,-2971.31 66624.87,-2969.56 66626.66,-3174.06 66422.37,-3175.81 "/>
   <polygon class="fil0 str3" points="66111.15,-2661.88 66315.44,-2660.12 66317.22,-2864.63 66112.93,-2866.38 "/>
   <polygon class="fil0 str3" points="66420.52,-2352.69 66624.75,-2350.74 66626.66,-2554.95 66422.49,-2556.83 "/>
   <polygon class="fil0 str3" points="66729.95,-2662.12 66934.19,-2660.18 66936.1,-2864.38 66731.92,-2866.27 "/>
  </g>
 </g>
</svg>
