<?xml version="1.0" encoding="UTF-8"?>
<!DOCTYPE svg PUBLIC "-//W3C//DTD SVG 1.1//EN" "http://www.w3.org/Graphics/SVG/1.1/DTD/svg11.dtd">
<!-- Creator: CorelDRAW 2019 (64-Bit) -->
<svg xmlns="http://www.w3.org/2000/svg" xml:space="preserve" width="62mm" height="46mm" version="1.1" style="shape-rendering:geometricPrecision; text-rendering:geometricPrecision; image-rendering:optimizeQuality; fill-rule:evenodd; clip-rule:evenodd"
viewBox="0 0 6200 4600"
 xmlns:xlink="http://www.w3.org/1999/xlink">
 <defs>
  <style type="text/css">
   <![CDATA[
    .fil0 {fill:#20FC8F}
   ]]>
  </style>
 </defs>
 <g id="Capa_x0020_1">
  <metadata id="CorelCorpID_0Corel-Layer"/>
  <g id="_2371538251024">
   <path class="fil0" d="M4628.4 3957.65c-61.86,-499.44 705.68,-595.58 761.72,-83.67 24.27,221.61 -145.24,396.32 -334.53,418.56 -230.4,27.07 -403.5,-143.55 -427.19,-334.89zm-3831.84 0c-27.9,-225.22 142.47,-404.22 332.65,-424.25 519.4,-54.68 583.03,699.52 93.55,758.95 -227.41,27.61 -402.41,-142.61 -426.2,-334.7zm-242.27 -192.02c-95.74,-20.48 -167.87,-95.28 -207.72,-154.86 -62.3,-93.13 -62.89,-177.65 -62.92,-304.32l0 -1455.62c-0.05,-198.74 -35.38,-541.72 54.26,-686.93 135.02,-218.77 328.75,-187.41 542.58,-187.41 245.87,-0.01 491.75,-0.01 737.62,0 101.96,0 2065.01,-10.71 2192.61,2.3 185.18,18.86 291.13,165.6 431.95,307.3 170.31,171.37 945.45,967.19 1108.61,1085.1 63.84,46.13 145.39,95.9 230.54,133.37 380.45,167.41 320.42,-58.39 321.12,782.74 0.11,127.17 3.34,217.69 -55.54,312.17 -37.66,60.42 -116.92,151.77 -219.83,162.81 -51.75,-258.99 -308.79,-491 -627.9,-486.8 -318.18,4.19 -558.44,236.1 -615.16,507.69l-2582.27 2.09c-57.1,-274.27 -295.96,-505.03 -614.94,-509.76 -231.05,-3.43 -435.24,117.24 -545.21,290.79 -45.37,71.59 -55.54,116.76 -87.8,199.34zm-4.74 264.24c146.84,629.27 897.65,672.87 1173.13,213.98 35.46,-59.06 60.35,-160.59 87.03,-201.27l2567.32 -1.58c35.29,57.9 40.76,205.36 215.04,352.9 355.88,301.25 911.63,166.16 1045.19,-363.91 235.61,-57.06 392.18,-189.89 474.09,-387.99 76.08,-184.02 47.51,-582.39 47.44,-814.37 -0.11,-313.25 -47.52,-413.88 -351.51,-509.55 -250.17,-78.73 -373.89,-207.33 -514.77,-348.16 -289.52,-289.43 -572.24,-572.78 -862.31,-861.72 -125.21,-124.73 -267.92,-308.09 -496.88,-366.98 -166.39,-42.79 -634.96,-20.36 -839.95,-20.36 -574.77,0.01 -1149.55,0.14 -1724.33,0 -209.87,-0.05 -670.52,-22.9 -845.31,16.65 -217.8,49.3 -387,208.77 -457.78,405.36 -64.34,178.71 -37.94,602.12 -37.98,822.89 -0.06,287.29 -0.06,574.58 -0.03,861.87 0.05,493.47 -105,1049.38 521.61,1202.24z"/>
   <path class="fil0" d="M3093.41 1391.17l-0.02 957.64c0.01,143.76 73.57,159.83 191.58,159.99l1446.51 -0.05c195.17,0.12 207.2,-255.63 0,-255.65 -433.88,-0.06 -917.65,7.38 -1341.14,-0.03l-39.79 -1.39 -1.28 -736.02c0.03,-116.79 16.78,-232.99 -71.04,-271.07 -114.21,-49.51 -184.8,35.11 -184.82,146.58z"/>
   <path class="fil0" d="M1816.41 1391.17l0.04 957.64c-0.04,208.92 163.92,159.89 405.18,159.91l450.24 0.05c226.73,-0.04 220.51,-255.46 9.58,-255.69 -126.28,-0.13 -517.63,5.39 -609.7,-3.34 -7.32,-231.72 -0.41,-473.48 -0.57,-705.35 -0.08,-117.46 22.36,-249.15 -62.18,-295.21 -67.04,-36.52 -192.59,-26.5 -192.59,141.99z"/>
   <path class="fil0" d="M538.48 1496.51l0.03 852.3c0.07,191.2 144.34,159.92 351.55,159.94l507.72 0.01c216.06,0.17 231.16,-256.58 -9.35,-255.95 -194.24,0.51 -400.28,6.57 -593.22,-0.7 -8.15,-259.81 -0.91,-593.06 -0.95,-860.94 -0.03,-102.48 -62.38,-193.74 -177.07,-148.98 -89.29,34.86 -79.27,142.91 -78.71,254.32z"/>
   <path class="fil0" d="M3709.16 2767.81c-114.15,27.03 -140.99,160.85 -47.64,228.42 44.53,32.24 293.98,32.89 356.82,18.48 110.37,-25.34 129.5,-170.83 37.4,-229.89 -46.8,-30.01 -284.15,-31.79 -346.58,-17.01z"/>
  </g>
 </g>
</svg>
