<?xml version="1.0" encoding="UTF-8"?>
<!DOCTYPE svg PUBLIC "-//W3C//DTD SVG 1.1//EN" "http://www.w3.org/Graphics/SVG/1.1/DTD/svg11.dtd">
<!-- Creator: CorelDRAW 2019 (64-Bit) -->
<svg xmlns="http://www.w3.org/2000/svg" xml:space="preserve" width="58mm" height="36mm" version="1.1" style="shape-rendering:geometricPrecision; text-rendering:geometricPrecision; image-rendering:optimizeQuality; fill-rule:evenodd; clip-rule:evenodd"
viewBox="0 0 5800 3600"
 xmlns:xlink="http://www.w3.org/1999/xlink">
 <defs>
  <style type="text/css">
   <![CDATA[
    .fil0 {fill:#20FC8F}
   ]]>
  </style>
 </defs>
 <g id="Capa_x0020_1">
  <metadata id="CorelCorpID_0Corel-Layer"/>
  <g id="_1759073895792">
   <path class="fil0" d="M4323.94 3035.23c-57.52,-464.42 656.2,-553.82 708.32,-77.81 22.56,206.08 -135.06,368.54 -311.08,389.22 -214.25,25.18 -375.21,-133.48 -397.24,-311.41zm-3563.18 0c-25.94,-209.42 132.48,-375.88 309.32,-394.5 482.99,-50.85 542.16,650.47 86.99,705.74 -211.46,25.67 -374.19,-132.62 -396.31,-311.24zm-225.29 -178.55c-89.02,-19.05 -156.09,-88.61 -193.15,-144 -57.94,-86.61 -58.49,-165.2 -58.51,-282.99l0 -1353.56c-0.04,-184.81 -32.9,-503.74 50.45,-638.77 125.56,-203.43 305.71,-174.27 504.54,-174.28 228.64,0 457.27,0 685.91,0 94.81,0.01 1920.23,-9.95 2038.88,2.14 172.19,17.55 270.72,154 401.66,285.76 158.38,159.36 879.17,899.38 1030.89,1009.02 59.36,42.9 135.2,89.18 214.37,124.02 353.78,155.67 297.96,-54.3 298.61,727.86 0.11,118.26 3.11,202.43 -51.65,290.28 -35.01,56.19 -108.72,141.13 -204.41,151.4 -48.13,-240.83 -287.14,-456.57 -583.88,-452.67 -295.87,3.89 -519.28,219.55 -572.03,472.09l-2401.22 1.94c-53.1,-255.04 -275.21,-469.62 -571.83,-474.01 -214.84,-3.19 -404.72,109.02 -506.98,270.4 -42.19,66.57 -51.65,108.58 -81.65,185.37zm-4.4 245.71c136.54,585.15 834.71,625.69 1090.88,198.98 32.97,-54.93 56.11,-149.33 80.92,-187.16l2387.33 -1.48c32.81,53.85 37.9,190.97 199.96,328.16 330.93,280.13 847.71,154.52 971.91,-338.39 219.09,-53.06 364.69,-176.58 440.85,-360.79 70.74,-171.12 44.18,-541.56 44.11,-757.27 -0.09,-291.29 -44.19,-384.86 -326.86,-473.82 -232.63,-73.22 -347.68,-192.8 -478.68,-323.76 -269.22,-269.13 -532.12,-532.62 -801.85,-801.3 -116.43,-115.99 -249.14,-286.49 -462.05,-341.25 -154.72,-39.79 -590.43,-18.94 -781.05,-18.93 -534.48,0.01 -1068.96,0.13 -1603.44,0 -195.16,-0.05 -623.51,-21.3 -786.04,15.48 -202.53,45.85 -359.87,194.14 -425.69,376.94 -59.83,166.18 -35.28,559.9 -35.32,765.19 -0.05,267.15 -0.05,534.3 -0.03,801.45 0.05,458.87 -97.63,975.8 485.05,1117.95z"/>
   <path class="fil0" d="M2896.57 648.69l-0.02 890.5c0.02,133.68 68.42,148.62 178.15,148.78l1345.09 -0.05c181.49,0.11 192.68,-237.71 0,-237.73 -403.45,-0.05 -853.3,6.86 -1247.11,-0.03l-37 -1.29 -1.19 -684.42c0.03,-108.6 15.61,-216.65 -66.06,-252.06 -106.2,-46.04 -171.84,32.65 -171.86,136.3z"/>
   <path class="fil0" d="M1709.11 648.69l0.03 890.5c-0.04,194.27 152.43,148.68 376.77,148.7l418.68 0.05c210.83,-0.04 205.04,-237.56 8.9,-237.76 -117.42,-0.13 -481.33,5 -566.95,-3.11 -6.8,-215.48 -0.38,-440.28 -0.53,-655.9 -0.07,-109.22 20.8,-231.68 -57.82,-274.51 -62.34,-33.96 -179.08,-24.64 -179.08,132.03z"/>
   <path class="fil0" d="M520.77 746.65l0.03 792.54c0.07,177.79 134.22,148.71 326.91,148.73l472.12 0.01c200.91,0.15 214.95,-238.6 -8.7,-238.01 -180.62,0.48 -372.21,6.11 -551.63,-0.65 -7.57,-241.6 -0.84,-551.48 -0.88,-800.58 -0.03,-95.29 -58.01,-180.15 -164.66,-138.53 -83.03,32.41 -73.71,132.89 -73.19,236.49z"/>
   <path class="fil0" d="M3469.16 1928.81c-106.16,25.14 -131.11,149.58 -44.31,212.41 41.41,29.98 273.37,30.59 331.8,17.18 102.64,-23.56 120.42,-158.85 34.78,-213.77 -43.52,-27.91 -264.23,-29.56 -322.27,-15.82z"/>
  </g>
 </g>
</svg>
