<?xml version="1.0" encoding="UTF-8"?>
<!DOCTYPE svg PUBLIC "-//W3C//DTD SVG 1.1//EN" "http://www.w3.org/Graphics/SVG/1.1/DTD/svg11.dtd">
<!-- Creator: CorelDRAW 2019 (64-Bit) -->
<svg xmlns="http://www.w3.org/2000/svg" xml:space="preserve" width="168mm" height="143mm" version="1.1" style="shape-rendering:geometricPrecision; text-rendering:geometricPrecision; image-rendering:optimizeQuality; fill-rule:evenodd; clip-rule:evenodd"
viewBox="0 0 16800 14300"
 xmlns:xlink="http://www.w3.org/1999/xlink">
 <defs>
  <style type="text/css">
   <![CDATA[
    .fil0 {fill:#20FC8F}
   ]]>
  </style>
 </defs>
 <g id="Capa_x0020_1">
  <metadata id="CorelCorpID_0Corel-Layer"/>
  <g id="_2150701938560">
   <g id="_2150716380048">
    <path class="fil0" d="M5788.44 8294.24c62.1,195.11 57.92,2114.49 145.66,2698.58 367.47,112.73 2264.74,761.44 2465.06,760.1 145.89,-0.97 1021.36,-306.11 1226.59,-370.29 375.23,-117.35 861.35,-301.14 1239.02,-386.67l136.38 -2704.97c121.2,129.75 355.07,706.6 466.89,909.05 214.72,388.73 314.68,480.24 834.73,580.31 776.86,149.48 1575.23,286.29 2344.58,439.28 933.32,185.6 1002.54,55.55 1862.31,-774.17 105.45,-101.77 233.85,-211.97 208.39,-448.07 -21.29,-197.47 -146.38,-349.86 -301.83,-403.62 -236.35,-81.74 -864.8,171.2 -1103.6,254.25 -368.4,128.13 -478.69,31.41 -1052.53,-180.71 -346.34,-128.03 -708.04,-229.77 -1049.14,-359.9 -200.86,-76.63 -202.16,-194.18 -294.97,-374.21l-731.35 -1386.36c-227.4,-435.35 -678.87,-1503.65 -1077.87,-1710.37 -377.35,-195.5 -2152.55,-109.99 -2707.77,-109.99 -556,0 -2289.44,-79.56 -2683.9,98.86 -316.31,143.08 -429.16,441.51 -605.26,770.6l-957.43 1829.17c-620.71,1152.22 -119.31,706.71 -2086.05,1405.76 -289.49,102.89 -257.34,133.43 -556.46,29.16 -414.01,-144.31 -1273.37,-588.94 -1422.42,76.06 -58.65,261.64 53.25,372.69 186.4,489.94 923.49,813.19 873.61,985.85 1845.13,799.85 781.19,-149.56 1549.58,-306.08 2345.52,-441.2 522.19,-88.65 656.28,-187.33 847.33,-564.71 85.01,-167.93 400.28,-842.93 476.59,-925.73z"/>
    <path class="fil0" d="M1845.8 12130.44c82.55,401.66 346.9,646.27 733.59,739.89 1156.07,279.89 2461.4,533.72 3641.05,804.27 804.35,184.47 1627.2,382.87 2423.99,534.51 952.17,181.22 1585.34,-737.38 1060.97,-1479.26 -276.8,-391.63 -1472.87,-666.64 -2100.18,-865.31l-4507.11 -1417.58c-835.81,-167.67 -1424.27,846.75 -1252.31,1683.48z"/>
    <path class="fil0" d="M7954.87 129.19c-1247.03,276.91 -1925.79,1434.99 -1670.39,2580.56 228.41,1024.54 1260.07,1925.98 2567.12,1652.89 1025.49,-214.27 1944.09,-1256.87 1667.42,-2567.84 -214.72,-1017.44 -1244.98,-1958.54 -2564.15,-1665.61z"/>
    <path class="fil0" d="M8972.17 11940.78c506.26,211.48 665.54,217.98 974.89,581.73 291.63,342.89 322.66,755.87 189.97,1232.63 329.9,-8.55 1230.09,-252.76 1596.66,-334.85 547.45,-122.6 1071.24,-240.15 1617.98,-358.51 590.14,-127.75 1143.98,-164.46 1428.35,-547.38 405.49,-546.04 178.86,-1625.48 -500.55,-1996.79 -281.4,-153.8 -536.17,-90.66 -824.46,1.72l-4482.84 1421.45z"/>
   </g>
  </g>
 </g>
</svg>
