<?xml version="1.0" encoding="UTF-8"?>
<!DOCTYPE svg PUBLIC "-//W3C//DTD SVG 1.1//EN" "http://www.w3.org/Graphics/SVG/1.1/DTD/svg11.dtd">
<!-- Creator: CorelDRAW 2019 (64-Bit) -->
<svg xmlns="http://www.w3.org/2000/svg" xml:space="preserve" width="58mm" height="46mm" version="1.1" style="shape-rendering:geometricPrecision; text-rendering:geometricPrecision; image-rendering:optimizeQuality; fill-rule:evenodd; clip-rule:evenodd"
viewBox="0 0 5800 4600"
 xmlns:xlink="http://www.w3.org/1999/xlink">
 <defs>
  <style type="text/css">
   <![CDATA[
    .str0 {stroke:#20FC8F;stroke-width:246.94;stroke-miterlimit:22.9256}
    .fil0 {fill:none}
   ]]>
  </style>
 </defs>
 <g id="Capa_x0020_1">
  <metadata id="CorelCorpID_0Corel-Layer"/>
  <g id="_2074664696416">
   <path class="fil0 str0" d="M2775.5 3012.81c-10.27,-0.94 -36.97,-0.08 -46.63,-0.24 -25.08,-0.41 -31.26,-0.26 -50.85,-0.53 -62.89,-0.88 -97.04,-0.54 -97.04,-0.54 0,0 266.84,-176.7 778.61,-499.34 328.57,-357.74 375.85,-724.88 141.85,-1101.42 -255.9,-342.59 -575.76,-462.18 -959.57,-358.79 0,0 -567.4,317.07 -1702.2,951.22 -309.49,162.26 -512.53,412.59 -609.12,750.97 -120.19,408.66 -42.31,789.71 233.64,1143.14 224.13,309.63 596.83,487.63 1118.11,534.02l2736.86 0 1184.86 -1418.49 -2728.52 0z"/>
   <path class="fil0 str0" d="M940.99 1946.55c283.13,-88.3 602.76,-2.76 958.92,256.62 257.02,285.15 350.19,557.72 279.52,817.72 -91.47,280.84 -272.26,456.07 -542.36,525.68 -337.5,29.73 -562.79,-88.48 -675.87,-354.62 -61.87,-257.6 -9.03,-443.95 158.53,-559.06 178.78,-131.99 358.18,-138.94 538.19,-20.86 132.41,111.73 122.68,284.18 -29.2,517.34"/>
   <path class="fil0 str0" d="M2580.98 3011.5c-936.91,572.88 -936.91,572.88 0,0z"/>
  </g>
 </g>
</svg>
